<?xml version="1.0" encoding="utf-8"?>
<!-- Generator: Adobe Illustrator 18.0.0, SVG Export Plug-In . SVG Version: 6.00 Build 0)  -->
<!DOCTYPE svg PUBLIC "-//W3C//DTD SVG 1.1//EN" "http://www.w3.org/Graphics/SVG/1.1/DTD/svg11.dtd">
<svg version="1.1" id="Layer_1" xmlns="http://www.w3.org/2000/svg" xmlns:xlink="http://www.w3.org/1999/xlink" x="0px" y="0px"
	 viewBox="0 0 68.1 127.7" enable-background="new 0 0 68.1 127.7" xml:space="preserve">
<path fill="none" stroke="#FFFFFF" stroke-linecap="square" stroke-miterlimit="10" d="M50.7-5.5"/>
<path fill="none" stroke="#FFFFFF" stroke-miterlimit="10" d="M50.9,117.4"/>
<path fill="none" stroke="#FFFFFF" stroke-linecap="square" stroke-miterlimit="10" d="M6.3,59.6"/>
<path fill="none" stroke="#FFFFFF" stroke-miterlimit="10" d="M8.1,64.1"/>
<g>
	<path fill="#FFFFFF" d="M34.1,2.3l32.3,56.6L1.7,58.8L34.1,2.3 M34.1,0.3L0,59.8l68.1,0.1L34.1,0.3L34.1,0.3z"/>
</g>
<g>
	<path fill="#FFFFFF" d="M66.4,67.5l-32.3,56.6L1.7,67.6L66.4,67.5 M68.1,66.5L0,66.6l34.2,59.5L68.1,66.5L68.1,66.5z"/>
</g>
<g>
	<path fill="#FFFFFF" d="M66.4,43.3L34.2,99.9L1.7,43.4L66.4,43.3 M68.1,42.3L0,42.4l34.2,59.5L68.1,42.3L68.1,42.3z"/>
</g>
</svg>
