<?xml version="1.0" encoding="utf-8"?>
<!-- Generator: Adobe Illustrator 18.0.0, SVG Export Plug-In . SVG Version: 6.00 Build 0)  -->
<!DOCTYPE svg PUBLIC "-//W3C//DTD SVG 1.1//EN" "http://www.w3.org/Graphics/SVG/1.1/DTD/svg11.dtd">
<svg version="1.1" id="Layer_1" xmlns="http://www.w3.org/2000/svg" xmlns:xlink="http://www.w3.org/1999/xlink" x="0px" y="0px"
	 viewBox="0 0 67.7 157.2" enable-background="new 0 0 67.7 157.2" xml:space="preserve">
<polyline fill="none" stroke="#FFFFFF" stroke-width="0.75" stroke-linecap="round" stroke-linejoin="round" stroke-miterlimit="10" points="
	33.9,157.2 33.9,151.9 33.9,149.3 33.9,142.8 33.9,139.1 33.9,133.8 33.9,121.2 33.9,115.9 33.9,103.3 33.9,98 33.9,85.4 33.9,80.2 
	33.9,67.6 33.9,62.3 33.9,49.7 33.9,44.4 33.9,31.8 33.9,26.5 "/>
<polyline fill="none" stroke="#FFFFFF" stroke-width="0.75" stroke-linecap="round" stroke-linejoin="round" stroke-miterlimit="10" points="
	6.4,138.5 6.4,143.8 33.9,157.2 61.3,143.8 61.3,138.5 58.6,137.2 61.3,138.5 33.9,151.9 6.4,138.5 9.1,137.2 "/>
<polyline fill="none" stroke="#FFFFFF" stroke-width="0.75" stroke-linecap="round" stroke-linejoin="round" stroke-miterlimit="10" points="
	67.7,126.3 67.7,132.8 33.9,149.3 0,132.8 0,126.3 6.4,123.2 6.4,120.4 6.4,125.7 33.9,139.1 61.3,125.7 61.3,120.4 61.3,123.2 
	67.7,126.3 33.9,142.8 0,126.3 "/>
<polyline fill="none" stroke="#FFFFFF" stroke-width="0.75" stroke-linecap="round" stroke-linejoin="round" stroke-miterlimit="10" points="
	8.9,119.2 6.4,120.4 33.9,133.8 61.3,120.4 58.9,119.2 "/>
<polyline fill="none" stroke="#FFFFFF" stroke-width="0.75" stroke-linecap="round" stroke-linejoin="round" stroke-miterlimit="10" points="
	67.7,108.4 67.7,114.9 33.9,131.4 0,114.9 0,108.4 6.4,105.3 6.4,102.5 6.4,107.8 33.9,121.2 61.3,107.8 61.3,102.5 61.3,105.3 
	67.7,108.4 33.9,124.9 0,108.4 "/>
<polyline fill="none" stroke="#FFFFFF" stroke-width="0.75" stroke-linecap="round" stroke-linejoin="round" stroke-miterlimit="10" points="
	8.9,101.4 6.4,102.5 33.9,115.9 61.3,102.5 58.9,101.4 "/>
<polyline fill="none" stroke="#FFFFFF" stroke-width="0.75" stroke-linecap="round" stroke-linejoin="round" stroke-miterlimit="10" points="
	67.7,90.5 67.7,97 33.9,113.6 0,97 0,90.5 6.4,87.4 6.4,84.7 6.4,89.9 33.9,103.3 61.3,89.9 61.3,84.7 61.3,87.4 67.7,90.5 
	33.9,107 0,90.5 "/>
<polyline fill="none" stroke="#FFFFFF" stroke-width="0.75" stroke-linecap="round" stroke-linejoin="round" stroke-miterlimit="10" points="
	8.9,83.5 6.4,84.7 33.9,98 61.3,84.7 59,83.5 "/>
<polyline fill="none" stroke="#FFFFFF" stroke-width="0.75" stroke-linecap="round" stroke-linejoin="round" stroke-miterlimit="10" points="
	67.7,72.7 67.7,79.2 33.9,95.7 0,79.2 0,72.7 6.4,69.5 6.4,66.8 6.4,72.1 33.9,85.4 61.3,72.1 61.3,66.8 61.3,69.5 67.7,72.7 
	33.9,89.2 0,72.7 "/>
<polyline fill="none" stroke="#FFFFFF" stroke-width="0.75" stroke-linecap="round" stroke-linejoin="round" stroke-miterlimit="10" points="
	8.7,65.7 6.4,66.8 33.9,80.2 61.3,66.8 58.9,65.6 "/>
<polyline fill="none" stroke="#FFFFFF" stroke-width="0.75" stroke-linecap="round" stroke-linejoin="round" stroke-miterlimit="10" points="
	67.7,54.8 67.7,61.3 33.9,77.8 0,61.3 0,54.8 6.4,51.6 6.4,48.9 6.4,54.2 33.9,67.6 61.3,54.2 61.3,48.9 61.3,51.6 67.7,54.8 
	33.9,71.3 0,54.8 "/>
<polyline fill="none" stroke="#FFFFFF" stroke-width="0.75" stroke-linecap="round" stroke-linejoin="round" stroke-miterlimit="10" points="
	8.9,47.7 6.4,48.9 33.9,62.3 61.3,48.9 58.9,47.8 "/>
<polyline fill="none" stroke="#FFFFFF" stroke-width="0.75" stroke-linecap="round" stroke-linejoin="round" stroke-miterlimit="10" points="
	67.7,36.9 67.7,43.4 33.9,59.9 0,43.4 0,36.9 6.4,33.8 6.4,31 6.4,36.3 33.9,49.7 61.3,36.3 61.3,31 61.3,33.8 67.7,36.9 33.9,53.4 
	0,36.9 "/>
<polyline fill="none" stroke="#FFFFFF" stroke-width="0.75" stroke-linecap="round" stroke-linejoin="round" stroke-miterlimit="10" points="
	8.9,29.8 6.4,31 33.9,44.4 61.3,31 58.9,29.8 "/>
<polyline fill="none" stroke="#FFFFFF" stroke-width="0.75" stroke-linecap="round" stroke-linejoin="round" stroke-miterlimit="10" points="
	67.7,19 67.7,25.5 33.9,42 0,25.5 0,19 6.4,15.9 6.4,13.1 6.4,18.4 33.9,31.8 61.3,18.4 61.3,13.1 61.3,15.9 67.7,19 33.9,35.5 
	0,19 "/>
<polygon fill="none" stroke="#FFFFFF" stroke-width="0.75" stroke-linecap="round" stroke-linejoin="round" stroke-miterlimit="10" points="
	33.8,26.5 6.4,13.2 33.9,-0.2 61.3,13.1 "/>
</svg>
