<?xml version="1.0" encoding="utf-8"?>
<!-- Generator: Adobe Illustrator 18.0.0, SVG Export Plug-In . SVG Version: 6.00 Build 0)  -->
<!DOCTYPE svg PUBLIC "-//W3C//DTD SVG 1.1//EN" "http://www.w3.org/Graphics/SVG/1.1/DTD/svg11.dtd">
<svg version="1.1" id="Layer_1" xmlns="http://www.w3.org/2000/svg" xmlns:xlink="http://www.w3.org/1999/xlink" x="0px" y="0px"
	 viewBox="0 0 24.2 131.3" enable-background="new 0 0 24.2 131.3" xml:space="preserve">
<g>
	<g id="XMLID_1_">
		<g>
		</g>
		<g>
			<path fill="none" stroke="#FFFFFF" stroke-width="0.75" stroke-miterlimit="10" d="M24.2,10.9c0,3.8-7.7,2.3-12.2,2.9
				c-1.9,0.3-3.3,0.9-3.3,2.5c0,1.6,1.4,2.3,3.3,2.6c4.5,0.6,12.2-0.9,12.2,2.9"/>
			<path fill="none" stroke="#FFFFFF" stroke-width="0.75" stroke-miterlimit="10" d="M24.2,32.8c0-3.8-7.7-2.3-12.2-2.9
				c-1.9-0.3-3.3-0.9-3.3-2.6s1.4-2.3,3.3-2.6c4.5-0.6,12.2,0.9,12.2-2.9"/>
			<path fill="none" stroke="#FFFFFF" stroke-width="0.75" stroke-miterlimit="10" d="M24.2,32.8c0,3.9-7.7,2.3-12.2,2.9
				c-1.9,0.3-3.3,0.9-3.3,2.6c0,1.6,1.4,2.3,3.3,2.5c4.5,0.6,12.2-0.9,12.2,2.9"/>
			<path fill="none" stroke="#FFFFFF" stroke-width="0.75" stroke-miterlimit="10" d="M24.2,54.7c0-3.9-7.7-2.3-12.2-2.9
				c-1.9-0.3-3.3-0.9-3.3-2.6s1.4-2.3,3.3-2.5c4.5-0.6,12.2,0.9,12.2-2.9"/>
			<path fill="none" stroke="#FFFFFF" stroke-width="0.75" stroke-miterlimit="10" d="M24.2,54.7c0,3.8-7.7,2.3-12.2,2.9
				c-1.9,0.3-3.3,0.9-3.3,2.6c0,1.6,1.4,2.3,3.3,2.6c4.5,0.6,12.2-0.9,12.2,2.9"/>
			<path fill="none" stroke="#FFFFFF" stroke-width="0.75" stroke-miterlimit="10" d="M15.5,10.9c0-1.7-1.5-2.3-3.5-2.6
				C7.4,7.8,0,9.3,0,5.5c0-3.8,7.4-2.3,12-2.9C14,2.3,15.5,1.7,15.5,0h8.7c0,3.9-7.7,2.3-12.2,2.9c-1.9,0.3-3.3,0.9-3.3,2.6
				S10.1,7.8,12,8c4.5,0.6,12.2-0.9,12.2,2.9"/>
			<path fill="none" stroke="#FFFFFF" stroke-width="0.75" stroke-miterlimit="10" d="M15.5,21.9c0-1.7-1.5-2.3-3.5-2.6
				c-4.6-0.6-12,0.9-12-2.9c0-3.8,7.4-2.3,12-2.9c2.1-0.2,3.5-0.9,3.5-2.6"/>
			<path fill="none" stroke="#FFFFFF" stroke-width="0.75" stroke-miterlimit="10" d="M15.5,32.8c0-1.7-1.5-2.3-3.5-2.6
				c-4.6-0.6-12,0.9-12-2.9s7.4-2.3,12-2.9c2.1-0.2,3.5-0.9,3.5-2.6"/>
			<path fill="none" stroke="#FFFFFF" stroke-width="0.75" stroke-miterlimit="10" d="M15.5,43.8c0-1.7-1.5-2.3-3.5-2.6
				c-4.6-0.5-12,0.9-12-2.9c0-3.8,7.4-2.3,12-2.9c2.1-0.2,3.5-0.9,3.5-2.6"/>
			<path fill="none" stroke="#FFFFFF" stroke-width="0.75" stroke-miterlimit="10" d="M15.5,54.7c0-1.7-1.5-2.3-3.5-2.6
				C7.4,51.6,0,53,0,49.2c0-3.8,7.4-2.3,12-2.9c2.1-0.2,3.5-0.9,3.5-2.6"/>
			<path fill="none" stroke="#FFFFFF" stroke-width="0.75" stroke-miterlimit="10" d="M15.5,65.6c0-1.7-1.5-2.3-3.5-2.6
				c-4.6-0.6-12,0.9-12-2.9s7.4-2.3,12-2.9c2.1-0.2,3.5-0.9,3.5-2.6"/>
			<path fill="none" stroke="#FFFFFF" stroke-width="0.75" stroke-miterlimit="10" d="M24.2,76.6c0-3.8-7.7-2.3-12.2-2.9
				c-1.9-0.3-3.3-0.9-3.3-2.5s1.4-2.3,3.3-2.6c4.5-0.6,12.2,0.9,12.2-2.9"/>
			<path fill="none" stroke="#FFFFFF" stroke-width="0.75" stroke-miterlimit="10" d="M24.2,76.6c0,3.8-7.7,2.3-12.2,2.9
				c-1.9,0.3-3.3,0.9-3.3,2.5c0,1.6,1.4,2.3,3.3,2.6c4.5,0.6,12.2-0.9,12.2,2.9"/>
			<path fill="none" stroke="#FFFFFF" stroke-width="0.75" stroke-miterlimit="10" d="M24.2,98.5c0-3.8-7.7-2.3-12.2-2.9
				c-1.9-0.3-3.3-0.9-3.3-2.6s1.4-2.3,3.3-2.6c4.5-0.6,12.2,0.9,12.2-2.9"/>
			<path fill="none" stroke="#FFFFFF" stroke-width="0.75" stroke-miterlimit="10" d="M24.2,98.5c0,3.9-7.7,2.3-12.2,2.9
				c-1.9,0.3-3.3,0.9-3.3,2.6s1.4,2.3,3.3,2.5c4.5,0.6,12.2-0.9,12.2,2.9"/>
			<path fill="none" stroke="#FFFFFF" stroke-width="0.75" stroke-miterlimit="10" d="M24.2,120.3c0-3.9-7.7-2.3-12.2-2.9
				c-1.9-0.3-3.3-0.9-3.3-2.6c0-1.6,1.4-2.3,3.3-2.5c4.5-0.6,12.2,0.9,12.2-2.9"/>
			<path fill="none" stroke="#FFFFFF" stroke-width="0.75" stroke-miterlimit="10" d="M24.2,120.3c0,3.8-7.7,2.3-12.2,2.9
				c-1.9,0.3-3.3,0.9-3.3,2.6s1.4,2.3,3.3,2.6c4.5,0.6,12.2-0.9,12.2,2.9h-8.7c0-1.7-1.5-2.3-3.5-2.6c-4.6-0.6-12,0.9-12-2.9
				c0-3.8,7.4-2.3,12-2.9c2.1-0.2,3.5-0.9,3.5-2.6"/>
			<path fill="none" stroke="#FFFFFF" stroke-width="0.75" stroke-miterlimit="10" d="M15.5,76.6c0-1.7-1.5-2.3-3.5-2.6
				c-4.6-0.5-12,0.9-12-2.9c0-3.8,7.4-2.3,12-2.9c2.1-0.2,3.5-0.9,3.5-2.6"/>
			<path fill="none" stroke="#FFFFFF" stroke-width="0.75" stroke-miterlimit="10" d="M15.5,87.5c0-1.7-1.5-2.3-3.5-2.6
				c-4.6-0.6-12,0.9-12-2.9c0-3.8,7.4-2.3,12-2.9c2.1-0.2,3.5-0.9,3.5-2.6"/>
			<path fill="none" stroke="#FFFFFF" stroke-width="0.75" stroke-miterlimit="10" d="M15.5,98.5c0-1.7-1.5-2.3-3.5-2.6
				C7.4,95.3,0,96.8,0,93c0-3.8,7.4-2.3,12-2.9c2.1-0.2,3.5-0.9,3.5-2.6"/>
			<path fill="none" stroke="#FFFFFF" stroke-width="0.75" stroke-miterlimit="10" d="M15.5,109.4c0-1.7-1.5-2.3-3.5-2.6
				c-4.6-0.5-12,0.9-12-2.9c0-3.8,7.4-2.3,12-2.9c2.1-0.2,3.5-0.9,3.5-2.6"/>
			<path fill="none" stroke="#FFFFFF" stroke-width="0.75" stroke-miterlimit="10" d="M15.5,120.3c0-1.7-1.5-2.3-3.5-2.6
				c-4.6-0.6-12,0.9-12-2.9c0-3.8,7.4-2.3,12-2.9c2.1-0.2,3.5-0.9,3.5-2.6"/>
		</g>
	</g>
</g>
</svg>
