<?xml version="1.0" encoding="utf-8"?>
<!-- Generator: Adobe Illustrator 18.0.0, SVG Export Plug-In . SVG Version: 6.00 Build 0)  -->
<!DOCTYPE svg PUBLIC "-//W3C//DTD SVG 1.1//EN" "http://www.w3.org/Graphics/SVG/1.1/DTD/svg11.dtd">
<svg version="1.1" id="Layer_1" xmlns="http://www.w3.org/2000/svg" xmlns:xlink="http://www.w3.org/1999/xlink" x="0px" y="0px"
	 viewBox="0 0 67.7 158.3" enable-background="new 0 0 67.7 158.3" xml:space="preserve">
<polyline fill="none" stroke="#FFFFFF" stroke-width="0.75" stroke-linecap="round" stroke-linejoin="round" stroke-miterlimit="10" points="
	33.9,158.3 33.9,153 33.9,150.4 33.9,143.9 33.9,140.1 33.9,134.9 33.9,122.3 33.9,117 33.9,104.4 33.9,99.1 33.9,86.5 33.9,81.2 
	33.9,68.6 33.9,63.4 33.9,50.7 33.9,45.5 33.9,32.9 33.9,27.6 "/>
<polyline fill="none" stroke="#FFFFFF" stroke-width="0.75" stroke-linecap="round" stroke-linejoin="round" stroke-miterlimit="10" points="
	6.4,139.6 6.4,144.9 33.9,158.3 61.3,144.9 61.3,139.6 58.6,138.3 61.3,139.6 33.9,153 6.4,139.6 9.1,138.3 "/>
<polyline fill="none" stroke="#FFFFFF" stroke-width="0.75" stroke-linecap="round" stroke-linejoin="round" stroke-miterlimit="10" points="
	67.7,127.4 67.7,133.9 33.9,150.4 0,133.9 0,127.4 6.4,124.2 6.4,121.5 6.4,126.8 33.9,140.1 61.3,126.8 61.3,121.5 61.3,124.2 
	67.7,127.4 33.9,143.9 0,127.4 "/>
<polyline fill="none" stroke="#FFFFFF" stroke-width="0.75" stroke-linecap="round" stroke-linejoin="round" stroke-miterlimit="10" points="
	8.9,120.3 6.4,121.5 33.9,134.9 61.3,121.5 58.9,120.3 "/>
<polyline fill="none" stroke="#FFFFFF" stroke-width="0.75" stroke-linecap="round" stroke-linejoin="round" stroke-miterlimit="10" points="
	67.7,109.5 67.7,116 33.9,132.5 0,116 0,109.5 6.4,106.3 6.4,103.6 6.4,108.9 33.9,122.3 61.3,108.9 61.3,103.6 61.3,106.3 
	67.7,109.5 33.9,126 0,109.5 "/>
<polyline fill="none" stroke="#FFFFFF" stroke-width="0.75" stroke-linecap="round" stroke-linejoin="round" stroke-miterlimit="10" points="
	8.9,102.4 6.4,103.6 33.9,117 61.3,103.6 58.9,102.4 "/>
<polyline fill="none" stroke="#FFFFFF" stroke-width="0.75" stroke-linecap="round" stroke-linejoin="round" stroke-miterlimit="10" points="
	67.7,91.6 67.7,98.1 33.9,114.6 0,98.1 0,91.6 6.4,88.5 6.4,85.7 6.4,91 33.9,104.4 61.3,91 61.3,85.7 61.3,88.5 67.7,91.6 
	33.9,108.1 0,91.6 "/>
<polyline fill="none" stroke="#FFFFFF" stroke-width="0.75" stroke-linecap="round" stroke-linejoin="round" stroke-miterlimit="10" points="
	8.9,84.5 6.4,85.7 33.9,99.1 61.3,85.7 59,84.6 "/>
<polyline fill="none" stroke="#FFFFFF" stroke-width="0.75" stroke-linecap="round" stroke-linejoin="round" stroke-miterlimit="10" points="
	67.7,73.7 67.7,80.2 33.9,96.7 0,80.2 0,73.7 6.4,70.6 6.4,67.8 6.4,73.1 33.9,86.5 61.3,73.1 61.3,67.8 61.3,70.6 67.7,73.7 
	33.9,90.2 0,73.7 "/>
<polyline fill="none" stroke="#FFFFFF" stroke-width="0.75" stroke-linecap="round" stroke-linejoin="round" stroke-miterlimit="10" points="
	8.7,66.7 6.4,67.8 33.9,81.2 61.3,67.8 58.9,66.7 "/>
<polyline fill="none" stroke="#FFFFFF" stroke-width="0.75" stroke-linecap="round" stroke-linejoin="round" stroke-miterlimit="10" points="
	67.7,55.8 67.7,62.3 33.9,78.9 0,62.3 0,55.8 6.4,52.7 6.4,50 6.4,55.2 33.9,68.6 61.3,55.2 61.3,50 61.3,52.7 67.7,55.8 33.9,72.4 
	0,55.8 "/>
<polyline fill="none" stroke="#FFFFFF" stroke-width="0.75" stroke-linecap="round" stroke-linejoin="round" stroke-miterlimit="10" points="
	8.9,48.8 6.4,50 33.9,63.4 61.3,50 58.9,48.8 "/>
<polyline fill="none" stroke="#FFFFFF" stroke-width="0.75" stroke-linecap="round" stroke-linejoin="round" stroke-miterlimit="10" points="
	67.7,38 67.7,44.5 33.9,61 0,44.5 0,38 6.4,34.8 6.4,32.1 6.4,37.4 33.9,50.7 61.3,37.4 61.3,32.1 61.3,34.8 67.7,38 33.9,54.5 
	0,38 "/>
<polyline fill="none" stroke="#FFFFFF" stroke-width="0.75" stroke-linecap="round" stroke-linejoin="round" stroke-miterlimit="10" points="
	8.9,30.9 6.4,32.1 33.9,45.5 61.3,32.1 58.9,30.9 "/>
<polyline fill="none" stroke="#FFFFFF" stroke-width="0.75" stroke-linecap="round" stroke-linejoin="round" stroke-miterlimit="10" points="
	67.7,20.1 67.7,26.6 33.9,43.1 0,26.6 0,20.1 6.4,16.9 6.4,14.2 6.4,19.5 33.9,32.9 61.3,19.5 61.3,14.2 61.3,16.9 67.7,20.1 
	33.9,36.6 0,20.1 "/>
<polygon fill="none" stroke="#FFFFFF" stroke-width="0.75" stroke-linecap="round" stroke-linejoin="round" stroke-miterlimit="10" points="
	33.8,27.6 6.4,14.3 33.9,0.8 61.3,14.2 "/>
</svg>
