<?xml version="1.0" encoding="utf-8"?>
<!-- Generator: Adobe Illustrator 18.0.0, SVG Export Plug-In . SVG Version: 6.00 Build 0)  -->
<!DOCTYPE svg PUBLIC "-//W3C//DTD SVG 1.1//EN" "http://www.w3.org/Graphics/SVG/1.1/DTD/svg11.dtd">
<svg version="1.1" id="Layer_1" xmlns="http://www.w3.org/2000/svg" xmlns:xlink="http://www.w3.org/1999/xlink" x="0px" y="0px"
	 viewBox="0 0 48.3 208" enable-background="new 0 0 48.3 208" xml:space="preserve">
<polyline fill="none" stroke="#FFFFFF" stroke-width="0.75" stroke-linecap="square" stroke-miterlimit="10" points="7.8,147.7 
	-0.3,147.7 -0.3,188 7.8,188 "/>
<polyline fill="none" stroke="#FFFFFF" stroke-width="0.75" stroke-linecap="square" stroke-miterlimit="10" points="7.8,107.6 
	-0.3,107.6 -0.3,147.9 7.8,147.9 "/>
<polyline fill="none" stroke="#FFFFFF" stroke-width="0.75" stroke-linecap="square" stroke-miterlimit="10" points="7.8,67.5 
	-0.3,67.5 -0.3,107.8 7.8,107.8 "/>
<polyline fill="none" stroke="#FFFFFF" stroke-width="0.75" stroke-linecap="square" stroke-miterlimit="10" points="7.8,27.4 
	-0.3,27.4 -0.3,67.7 7.8,67.7 "/>
<polyline fill="none" stroke="#FFFFFF" stroke-width="0.75" stroke-linecap="square" stroke-miterlimit="10" points="32.1,188 
	40.2,188 40.2,147.7 32.1,147.7 "/>
<polyline fill="none" stroke="#FFFFFF" stroke-width="0.75" stroke-linecap="square" stroke-miterlimit="10" points="32.1,147.9 
	40.2,147.9 40.2,107.6 32.1,107.6 "/>
<polyline fill="none" stroke="#FFFFFF" stroke-width="0.75" stroke-linecap="square" stroke-miterlimit="10" points="32.1,107.8 
	40.2,107.8 40.2,67.5 32.1,67.5 "/>
<polyline fill="none" stroke="#FFFFFF" stroke-width="0.75" stroke-linecap="square" stroke-miterlimit="10" points="32.1,67.7 
	40.2,67.7 40.2,27.4 32.1,27.4 "/>
<line fill="none" stroke="#FFFFFF" stroke-width="0.75" stroke-linecap="square" stroke-miterlimit="10" x1="15.9" y1="147.9" x2="24" y2="147.9"/>
<line fill="none" stroke="#FFFFFF" stroke-width="0.75" stroke-linecap="square" stroke-miterlimit="10" x1="24" y1="107.6" x2="15.9" y2="107.6"/>
<line fill="none" stroke="#FFFFFF" stroke-width="0.75" stroke-linecap="square" stroke-miterlimit="10" x1="15.9" y1="107.8" x2="24" y2="107.8"/>
<line fill="none" stroke="#FFFFFF" stroke-width="0.75" stroke-linecap="square" stroke-miterlimit="10" x1="24" y1="67.5" x2="15.9" y2="67.5"/>
<line fill="none" stroke="#FFFFFF" stroke-width="0.75" stroke-linecap="square" stroke-miterlimit="10" x1="15.9" y1="67.7" x2="24" y2="67.7"/>
<line fill="none" stroke="#FFFFFF" stroke-width="0.75" stroke-linecap="square" stroke-miterlimit="10" x1="24" y1="27.4" x2="15.9" y2="27.4"/>
<line fill="none" stroke="#FFFFFF" stroke-width="0.75" stroke-linecap="square" stroke-miterlimit="10" x1="15.9" y1="127.6" x2="7.8" y2="127.6"/>
<line fill="none" stroke="#FFFFFF" stroke-width="0.75" stroke-linecap="square" stroke-miterlimit="10" x1="7.8" y1="167.9" x2="15.9" y2="167.9"/>
<line fill="none" stroke="#FFFFFF" stroke-width="0.75" stroke-linecap="square" stroke-miterlimit="10" x1="15.9" y1="87.5" x2="7.8" y2="87.5"/>
<line fill="none" stroke="#FFFFFF" stroke-width="0.75" stroke-linecap="square" stroke-miterlimit="10" x1="7.8" y1="127.8" x2="15.9" y2="127.8"/>
<line fill="none" stroke="#FFFFFF" stroke-width="0.75" stroke-linecap="square" stroke-miterlimit="10" x1="15.9" y1="47.4" x2="7.8" y2="47.4"/>
<line fill="none" stroke="#FFFFFF" stroke-width="0.75" stroke-linecap="square" stroke-miterlimit="10" x1="7.8" y1="87.7" x2="15.9" y2="87.7"/>
<line fill="none" stroke="#FFFFFF" stroke-width="0.75" stroke-linecap="square" stroke-miterlimit="10" x1="15.9" y1="7.3" x2="7.8" y2="7.3"/>
<line fill="none" stroke="#FFFFFF" stroke-width="0.75" stroke-linecap="square" stroke-miterlimit="10" x1="7.8" y1="47.5" x2="15.9" y2="47.5"/>
<line fill="none" stroke="#FFFFFF" stroke-width="0.75" stroke-linecap="square" stroke-miterlimit="10" x1="32.1" y1="167.7" x2="24" y2="167.7"/>
<line fill="none" stroke="#FFFFFF" stroke-width="0.75" stroke-linecap="square" stroke-miterlimit="10" x1="32.1" y1="127.6" x2="24" y2="127.6"/>
<line fill="none" stroke="#FFFFFF" stroke-width="0.75" stroke-linecap="square" stroke-miterlimit="10" x1="24" y1="167.9" x2="32.1" y2="167.9"/>
<line fill="none" stroke="#FFFFFF" stroke-width="0.75" stroke-linecap="square" stroke-miterlimit="10" x1="32.1" y1="87.5" x2="24" y2="87.5"/>
<line fill="none" stroke="#FFFFFF" stroke-width="0.75" stroke-linecap="square" stroke-miterlimit="10" x1="24" y1="127.8" x2="32.1" y2="127.8"/>
<line fill="none" stroke="#FFFFFF" stroke-width="0.75" stroke-linecap="square" stroke-miterlimit="10" x1="32.1" y1="7.3" x2="24" y2="7.3"/>
<line fill="none" stroke="#FFFFFF" stroke-width="0.75" stroke-linecap="square" stroke-miterlimit="10" x1="24" y1="47.5" x2="32.1" y2="47.5"/>
<line fill="none" stroke="#FFFFFF" stroke-width="0.75" stroke-linecap="square" stroke-miterlimit="10" x1="48.3" y1="140.6" x2="40.2" y2="147.9"/>
<polyline fill="none" stroke="#FFFFFF" stroke-width="0.75" stroke-linecap="square" stroke-miterlimit="10" points="40.2,60.2 
	40.2,67.5 48.3,60.2 48.3,100.5 40.2,107.7 "/>
<path fill="none" stroke="#FFFFFF" stroke-width="0.75" stroke-linecap="square" stroke-miterlimit="10" d="M15.9,27.4"/>
<path fill="none" stroke="#FFFFFF" stroke-width="0.75" stroke-linecap="square" stroke-miterlimit="10" d="M24,20.1"/>
<line fill="none" stroke="#FFFFFF" stroke-width="0.75" stroke-linecap="square" stroke-miterlimit="10" x1="15.9" y1="167.7" x2="7.8" y2="167.7"/>
<polyline fill="none" stroke="#FFFFFF" stroke-width="0.75" stroke-linecap="square" stroke-linejoin="round" stroke-miterlimit="10" points="
	32.1,208 40.2,200.8 40.2,188 48.3,180.8 48.3,20.1 40.2,20.1 48.3,20.1 40.2,27.4 32.1,27.4 40.2,20.1 40.2,0 32.1,7.3 40.2,0 
	32.1,0 24,7.3 15.9,7.3 24,0 15.9,0 7.8,7.3 7.8,208 15.9,208 "/>
<polyline fill="none" stroke="#FFFFFF" stroke-width="0.75" stroke-linecap="square" stroke-miterlimit="10" points="24,200.8 
	15.9,208 15.9,7.3 "/>
<polyline fill="none" stroke="#FFFFFF" stroke-width="0.75" stroke-linecap="square" stroke-miterlimit="10" points="24,0 24,7.3 
	24,208 32.1,208 32.1,7.3 "/>
</svg>
