<?xml version="1.0" encoding="utf-8"?>
<!-- Generator: Adobe Illustrator 18.0.0, SVG Export Plug-In . SVG Version: 6.00 Build 0)  -->
<!DOCTYPE svg PUBLIC "-//W3C//DTD SVG 1.1//EN" "http://www.w3.org/Graphics/SVG/1.1/DTD/svg11.dtd">
<svg version="1.1" id="Layer_1" xmlns="http://www.w3.org/2000/svg" xmlns:xlink="http://www.w3.org/1999/xlink" x="0px" y="0px"
	 viewBox="0 0 55.7 187.5" enable-background="new 0 0 55.7 187.5" xml:space="preserve">
<polygon fill="none" stroke="#FFFFFF" stroke-width="0.75" stroke-linecap="round" stroke-linejoin="bevel" stroke-miterlimit="10" points="
	10,184.8 3.2,172.9 10,161.1 23.6,161.1 30.5,172.9 23.6,184.8 "/>
<polyline fill="none" stroke="#FFFFFF" stroke-width="0.75" stroke-linecap="round" stroke-linejoin="bevel" stroke-miterlimit="10" points="
	25.2,158.4 8.4,158.4 0,172.9 8.4,187.5 25.2,187.5 33.6,172.9 47.3,172.9 55.7,158.4 47.3,143.8 30.5,143.8 "/>
<polygon fill="none" stroke="#FFFFFF" stroke-width="0.75" stroke-linecap="round" stroke-linejoin="bevel" stroke-miterlimit="10" points="
	23.6,132 30.5,143.8 23.6,155.7 10,155.7 3.2,143.8 10,132 "/>
<polyline fill="none" stroke="#FFFFFF" stroke-width="0.75" stroke-linecap="round" stroke-linejoin="bevel" stroke-miterlimit="10" points="
	8.4,158.4 0,143.8 8.4,129.7 "/>
<polygon fill="none" stroke="#FFFFFF" stroke-width="0.75" stroke-linecap="round" stroke-linejoin="bevel" stroke-miterlimit="10" points="
	23.6,103.3 30.5,115.1 23.6,127 10,127 3.2,115.1 10,103.3 "/>
<path fill="none" stroke="#FFFFFF" stroke-width="0.75" stroke-linecap="round" stroke-linejoin="bevel" stroke-miterlimit="10" d="
	M25.2,100.6"/>
<path fill="none" stroke="#FFFFFF" stroke-width="0.75" stroke-linecap="round" stroke-linejoin="bevel" stroke-miterlimit="10" d="
	M33.6,115.1"/>
<polygon fill="none" stroke="#FFFFFF" stroke-width="0.75" stroke-linecap="round" stroke-linejoin="bevel" stroke-miterlimit="10" points="
	23.6,74.6 30.5,86.5 23.6,98.3 10,98.3 3.2,86.5 10,74.6 "/>
<path fill="none" stroke="#FFFFFF" stroke-width="0.75" stroke-linecap="round" stroke-linejoin="bevel" stroke-miterlimit="10" d="
	M25.2,71.9"/>
<path fill="none" stroke="#FFFFFF" stroke-width="0.75" stroke-linecap="round" stroke-linejoin="bevel" stroke-miterlimit="10" d="
	M33.6,86.5"/>
<polyline fill="none" stroke="#FFFFFF" stroke-width="0.75" stroke-linecap="round" stroke-linejoin="bevel" stroke-miterlimit="10" points="
	8.4,71.9 0,86.5 8.4,101 25.2,101.1 32,112.4 45.7,112.4 52.5,100.6 45.7,88.8 32,88.8 25.2,101.1 "/>
<polygon fill="none" stroke="#FFFFFF" stroke-width="0.75" stroke-linecap="round" stroke-linejoin="bevel" stroke-miterlimit="10" points="
	23.6,46 30.5,57.8 23.6,69.6 10,69.6 3.2,57.8 10,46 "/>
<path fill="none" stroke="#FFFFFF" stroke-width="0.75" stroke-linecap="round" stroke-linejoin="bevel" stroke-miterlimit="10" d="
	M25.2,43.2"/>
<line fill="none" stroke="#FFFFFF" stroke-width="0.75" stroke-linecap="round" stroke-linejoin="bevel" stroke-miterlimit="10" x1="25.2" y1="71.9" x2="32.2" y2="60.1"/>
<polyline fill="none" stroke="#FFFFFF" stroke-width="0.75" stroke-linecap="round" stroke-linejoin="bevel" stroke-miterlimit="10" points="
	8.4,43.2 0,57.8 8.4,71.9 25.2,71.9 "/>
<polygon fill="none" stroke="#FFFFFF" stroke-width="0.75" stroke-linecap="round" stroke-linejoin="bevel" stroke-miterlimit="10" points="
	23.6,17.3 30.5,29.1 23.6,40.9 10,40.9 3.2,29.1 10,17.3 "/>
<line fill="none" stroke="#FFFFFF" stroke-width="0.75" stroke-linecap="round" stroke-linejoin="bevel" stroke-miterlimit="10" x1="25.2" y1="14.6" x2="32" y2="26.4"/>
<polyline fill="none" stroke="#FFFFFF" stroke-width="0.75" stroke-linecap="round" stroke-linejoin="bevel" stroke-miterlimit="10" points="
	25.2,43.2 8.4,43.2 0,29.1 8.4,14.6 22.1,14.6 30.5,0 47.3,0 55.7,14.6 47.3,29.1 30.5,29.1 "/>
<path fill="none" stroke="#FFFFFF" stroke-width="0.75" stroke-linecap="round" stroke-linejoin="bevel" stroke-miterlimit="10" d="
	M25.2,158.4"/>
<path fill="none" stroke="#FFFFFF" stroke-width="0.75" stroke-linecap="round" stroke-linejoin="bevel" stroke-miterlimit="10" d="
	M30.5,172.9"/>
<path fill="none" stroke="#FFFFFF" stroke-width="0.75" stroke-linecap="round" stroke-linejoin="bevel" stroke-miterlimit="10" d="
	M22.1,158.4"/>
<path fill="none" stroke="#FFFFFF" stroke-width="0.75" stroke-linecap="round" stroke-linejoin="bevel" stroke-miterlimit="10" d="
	M25.2,129.3"/>
<polyline fill="none" stroke="#FFFFFF" stroke-width="0.75" stroke-linecap="round" stroke-linejoin="bevel" stroke-miterlimit="10" points="
	47.3,114.7 55.7,129.3 47.3,143.8 "/>
<path fill="none" stroke="#FFFFFF" stroke-width="0.75" stroke-linecap="round" stroke-linejoin="bevel" stroke-miterlimit="10" d="
	M30.5,114.7"/>
<path fill="none" stroke="#FFFFFF" stroke-width="0.75" stroke-linecap="round" stroke-linejoin="bevel" stroke-miterlimit="10" d="
	M22.1,129.3"/>
<path fill="none" stroke="#FFFFFF" stroke-width="0.75" stroke-linecap="round" stroke-linejoin="bevel" stroke-miterlimit="10" d="
	M30.5,143.8"/>
<path fill="none" stroke="#FFFFFF" stroke-width="0.75" stroke-linecap="round" stroke-linejoin="bevel" stroke-miterlimit="10" d="
	M25.2,100.6"/>
<polyline fill="none" stroke="#FFFFFF" stroke-width="0.75" stroke-linecap="round" stroke-linejoin="bevel" stroke-miterlimit="10" points="
	30.5,115.1 47.3,115.1 55.7,100.6 47.3,86 "/>
<path fill="none" stroke="#FFFFFF" stroke-width="0.75" stroke-linecap="round" stroke-linejoin="bevel" stroke-miterlimit="10" d="
	M22.1,100.6"/>
<path fill="none" stroke="#FFFFFF" stroke-width="0.75" stroke-linecap="round" stroke-linejoin="bevel" stroke-miterlimit="10" d="
	M30.5,86"/>
<polyline fill="none" stroke="#FFFFFF" stroke-width="0.75" stroke-linecap="round" stroke-linejoin="bevel" stroke-miterlimit="10" points="
	32.2,60.1 45.7,60.1 52.5,71.9 45.7,83.7 32,83.7 25.2,71.9 "/>
<polyline fill="none" stroke="#FFFFFF" stroke-width="0.75" stroke-linecap="round" stroke-linejoin="bevel" stroke-miterlimit="10" points="
	23.6,74.6 30.5,86.5 47.3,86.5 55.7,71.9 47.3,57.8 "/>
<path fill="none" stroke="#FFFFFF" stroke-width="0.75" stroke-linecap="round" stroke-linejoin="bevel" stroke-miterlimit="10" d="
	M30.5,57.4"/>
<polygon fill="none" stroke="#FFFFFF" stroke-width="0.75" stroke-linecap="round" stroke-linejoin="bevel" stroke-miterlimit="10" points="
	45.7,31.4 52.5,43.2 45.7,55.1 32,55.1 25.2,43.2 32,31.4 "/>
<polyline fill="none" stroke="#FFFFFF" stroke-width="0.75" stroke-linecap="round" stroke-linejoin="bevel" stroke-miterlimit="10" points="
	23.6,46 30.5,57.8 47.3,57.8 55.7,43.2 47.3,29.1 "/>
<path fill="none" stroke="#FFFFFF" stroke-width="0.75" stroke-linecap="round" stroke-linejoin="bevel" stroke-miterlimit="10" d="
	M30.5,28.7"/>
<polygon fill="none" stroke="#FFFFFF" stroke-width="0.75" stroke-linecap="round" stroke-linejoin="bevel" stroke-miterlimit="10" points="
	45.7,2.7 52.5,14.6 45.7,26.4 32,26.4 25.2,14.6 32,2.7 "/>
<polygon fill="none" stroke="#FFFFFF" stroke-width="0.75" stroke-linecap="round" stroke-linejoin="bevel" stroke-miterlimit="10" points="
	32,170.2 45.7,170.2 52.5,158.4 45.7,146.6 32,146.6 25.2,158.4 "/>
<polyline fill="none" stroke="#FFFFFF" stroke-width="0.75" stroke-linecap="round" stroke-linejoin="bevel" stroke-miterlimit="10" points="
	25.2,129.7 32,117.5 45.7,117.5 52.5,129.3 45.7,141.1 32,141.1 25.2,129.7 8.4,129.7 0,115.1 8.2,101 "/>
<path fill="none" stroke="#FFFFFF" stroke-width="0.75" stroke-linecap="round" stroke-linejoin="bevel" stroke-miterlimit="10" d="
	M112.5,98.3"/>
</svg>
