<?xml version="1.0" encoding="utf-8"?>
<!-- Generator: Adobe Illustrator 18.0.0, SVG Export Plug-In . SVG Version: 6.00 Build 0)  -->
<!DOCTYPE svg PUBLIC "-//W3C//DTD SVG 1.1//EN" "http://www.w3.org/Graphics/SVG/1.1/DTD/svg11.dtd">
<svg version="1.1" id="Layer_1" xmlns="http://www.w3.org/2000/svg" xmlns:xlink="http://www.w3.org/1999/xlink" x="0px" y="0px"
	 viewBox="0 0 80.6 130.7" enable-background="new 0 0 80.6 130.7" xml:space="preserve">
<g>
	<path fill="#FFFFFF" d="M35.7,0.9L68,57.5L3.3,57.4L35.7,0.9 M35.7-1.1L1.6,58.4l68.1,0.1L35.7-1.1L35.7-1.1z"/>
</g>
<path fill="none" stroke="#FFFFFF" stroke-linecap="square" stroke-miterlimit="10" d="M18.8,62.7"/>
<path fill="none" stroke="#FFFFFF" stroke-linecap="square" stroke-miterlimit="10" d="M69.6,58.7"/>
<path fill="none" stroke="#FFFFFF" stroke-miterlimit="10" d="M20.5,67.1"/>
<g>
	<path fill="#FFFFFF" d="M46.6,5.3l32.3,56.6l-64.7-0.1L46.6,5.3 M46.6,3.3L12.5,62.8l68.1,0.1L46.6,3.3L46.6,3.3z"/>
</g>
<g>
	<path fill="#FFFFFF" d="M68,66l-32.3,56.6L3.3,66.1L68,66 M69.7,65L1.6,65.1l34.2,59.5L69.7,65L69.7,65z"/>
</g>
<g>
	<path fill="#FFFFFF" d="M78.9,70.5l-32.3,56.6L14.2,70.6L78.9,70.5 M80.6,69.5l-68.1,0.1l34.2,59.5L80.6,69.5L80.6,69.5z"/>
</g>
<g>
	<path fill="#44314C" d="M-0.6,66.1v2.5h-0.1v-2.5H-0.6 M0.4,65.1h-2.1v4.5h2.1V65.1L0.4,65.1z"/>
</g>
</svg>
