<?xml version="1.0" encoding="utf-8"?>
<!-- Generator: Adobe Illustrator 18.1.1, SVG Export Plug-In . SVG Version: 6.00 Build 0)  -->
<!DOCTYPE svg PUBLIC "-//W3C//DTD SVG 1.1//EN" "http://www.w3.org/Graphics/SVG/1.1/DTD/svg11.dtd">
<svg version="1.1" xmlns="http://www.w3.org/2000/svg" xmlns:xlink="http://www.w3.org/1999/xlink" x="0px" y="0px"
	 viewBox="0 0 1024 768" enable-background="new 0 0 1024 768" xml:space="preserve">
<g id="background">
	<rect x="-0.7" fill="#242C51" width="1024.7" height="768"/>
</g>
<g id="barrieres">
	
		<line fill="none" stroke="#181E35" stroke-width="12" stroke-linecap="round" stroke-linejoin="round" stroke-miterlimit="10" x1="694" y1="8" x2="694" y2="228"/>
	
		<line fill="none" stroke="#181E35" stroke-width="12" stroke-linecap="round" stroke-linejoin="round" stroke-miterlimit="10" x1="770" y1="369" x2="770" y2="760"/>
	<rect x="-0.7" y="756.6" fill="#181E35" width="1024.7" height="11.4"/>
	<rect x="-0.7" fill="#181E35" width="1024.7" height="11.4"/>
</g>
<g id="pics">
	<g>
		
			<polyline fill="none" stroke="#40518D" stroke-width="6" stroke-linecap="round" stroke-linejoin="round" stroke-miterlimit="10" points="
			512.4,524.9 494.6,507.1 512.4,489.3 		"/>
		
			<polyline fill="none" stroke="#40518D" stroke-width="6" stroke-linecap="round" stroke-linejoin="round" stroke-miterlimit="10" points="
			512.4,489.3 494.6,471.5 512.4,453.7 		"/>
		
			<polyline fill="none" stroke="#40518D" stroke-width="6" stroke-linecap="round" stroke-linejoin="round" stroke-miterlimit="10" points="
			512.4,453.7 494.6,436 512.4,418.2 		"/>
		
			<polyline fill="none" stroke="#40518D" stroke-width="6" stroke-linecap="round" stroke-linejoin="round" stroke-miterlimit="10" points="
			512.4,418.2 494.6,400.4 512.4,382.6 		"/>
		
			<polyline fill="none" stroke="#40518D" stroke-width="6" stroke-linecap="round" stroke-linejoin="round" stroke-miterlimit="10" points="
			512.4,382.6 494.6,364.8 512.4,347 		"/>
		
			<polyline fill="none" stroke="#40518D" stroke-width="6" stroke-linecap="round" stroke-linejoin="round" stroke-miterlimit="10" points="
			512.4,347.1 494.6,329.3 512.4,311.5 		"/>
		
			<polyline fill="none" stroke="#40518D" stroke-width="6" stroke-linecap="round" stroke-linejoin="round" stroke-miterlimit="10" points="
			512.4,311.5 494.6,293.7 512.4,275.9 		"/>
		
			<polyline fill="none" stroke="#40518D" stroke-width="6" stroke-linecap="round" stroke-linejoin="round" stroke-miterlimit="10" points="
			512.4,276 494.6,258.2 512.4,240.4 		"/>
	</g>
</g>
<g id="bonus">
	<g>
		<circle fill="#F4D13D" cx="250.7" cy="395.7" r="3"/>
		<circle fill="#F4D13D" cx="250.7" cy="370.7" r="3"/>
		<path fill="#F4D13D" d="M241.8,389c-0.8,0-1.6,0.3-2.1,0.9c-1.2,1.2-1.2,3.1,0,4.3c0.6,0.6,1.3,0.9,2.1,0.9c0.8,0,1.6-0.3,2.1-0.9
			c1.2-1.2,1.2-3.1,0-4.3C243.4,389.4,242.6,389,241.8,389z"/>
		<path fill="#F4D13D" d="M259.5,377.4c0.8,0,1.6-0.3,2.1-0.9s0.9-1.3,0.9-2.1c0-0.8-0.3-1.6-0.9-2.1c-0.6-0.6-1.3-0.9-2.1-0.9
			c-0.8,0-1.6,0.3-2.1,0.9c-1.2,1.2-1.2,3.1,0,4.3C258,377.1,258.7,377.4,259.5,377.4z"/>
		<circle fill="#F4D13D" cx="238.1" cy="383.2" r="3"/>
		<circle fill="#F4D13D" cx="263.2" cy="383.2" r="3"/>
		<path fill="#F4D13D" d="M241.8,371.3c-0.8,0-1.6,0.3-2.1,0.9c-0.6,0.6-0.9,1.3-0.9,2.1c0,0.8,0.3,1.6,0.9,2.1
			c0.6,0.6,1.3,0.9,2.1,0.9c0.8,0,1.6-0.3,2.1-0.9c0.6-0.6,0.9-1.3,0.9-2.1c0-0.8-0.3-1.6-0.9-2.1
			C243.4,371.6,242.6,371.3,241.8,371.3z"/>
		<path fill="#F4D13D" d="M259.5,389c-0.8,0-1.6,0.3-2.1,0.9c-1.2,1.2-1.2,3.1,0,4.3c0.6,0.6,1.3,0.9,2.1,0.9c0.8,0,1.6-0.3,2.1-0.9
			c1.2-1.2,1.2-3.1,0-4.3C261.1,389.4,260.3,389,259.5,389z"/>
	</g>
</g>
<g id="interface">
	<path fill="#DF324B" d="M958.3,111.2h-29c-19.2,0-34.8-15.6-34.8-34.8v0c0-19.2,15.6-34.8,34.8-34.8h29c19.2,0,34.8,15.6,34.8,34.8
		v0C993.1,95.6,977.5,111.2,958.3,111.2z"/>
	<text transform="matrix(1 0 0 1 829.6221 85.9238)" fill="#FFFFFF" font-family="'HelveticaNeue-Bold'" font-size="28.4444">25</text>
	<text transform="matrix(1 0 0 1 919.5557 86.8413)" fill="#FFFFFF" font-family="'HelveticaNeue-Bold'" font-size="29.0326">310</text>
	<g>
		<circle fill="#DF324B" cx="845.3" cy="45.5" r="3.7"/>
		<circle fill="#DF324B" cx="845.3" cy="107.4" r="3.7"/>
		<circle fill="#DF324B" cx="860.8" cy="103.2" r="3.7"/>
		<circle fill="#DF324B" cx="872.1" cy="91.9" r="3.7"/>
		<circle fill="#DF324B" cx="814.4" cy="76.5" r="3.7"/>
		<circle fill="#DF324B" cx="876.3" cy="76.5" r="3.7"/>
		<circle fill="#DF324B" cx="818.5" cy="91.9" r="3.7"/>
		<circle fill="#DF324B" cx="872.1" cy="61" r="3.7"/>
		<circle fill="#DF324B" cx="829.9" cy="103.2" r="3.7"/>
		<circle fill="#DF324B" cx="860.8" cy="49.7" r="3.7"/>
	</g>
	<g>
		
			<circle opacity="0.25" fill="none" stroke="#FFFFFF" stroke-width="5" stroke-linecap="round" stroke-linejoin="round" stroke-miterlimit="10" cx="944.3" cy="384" r="9.3"/>
		
			<circle fill="none" stroke="#FFFFFF" stroke-width="5" stroke-linecap="round" stroke-linejoin="round" stroke-miterlimit="10" cx="982.3" cy="384" r="9.3"/>
		
			<circle opacity="0.6" fill="none" stroke="#FFFFFF" stroke-width="5" stroke-linecap="round" stroke-linejoin="round" stroke-miterlimit="10" cx="963.3" cy="384" r="9.3"/>
	</g>
</g>
<g id="KINECT_walls">
	<line fill="none" stroke="#0000FF" stroke-width="3" stroke-miterlimit="10" x1="-1" y1="11.5" x2="1024" y2="11.5"/>
	<line fill="none" stroke="#0000FF" stroke-width="3" stroke-miterlimit="10" x1="-1" y1="756.5" x2="1024" y2="756.5"/>
	<line fill="none" stroke="#0000FF" stroke-width="3" stroke-miterlimit="10" x1="770.5" y1="369" x2="770.5" y2="757"/>
	<line fill="none" stroke="#0000FF" stroke-width="3" stroke-miterlimit="10" x1="693.5" y1="12" x2="693.5" y2="228"/>
</g>
<g id="KINECT_kill">
	<line fill="none" stroke="#FF0000" stroke-width="3" stroke-miterlimit="10" x1="503.5" y1="240" x2="503.5" y2="525"/>
</g>
<g id="KINECT_end">
	<line fill="none" stroke="#00FF00" stroke-width="3" stroke-miterlimit="10" x1="1022.5" y1="0" x2="1022.5" y2="768"/>
</g>
</svg>
