<?xml version="1.0" encoding="utf-8"?>
<!-- Generator: Adobe Illustrator 18.1.1, SVG Export Plug-In . SVG Version: 6.00 Build 0)  -->
<svg version="1.1" id="Calque_1" xmlns="http://www.w3.org/2000/svg" xmlns:xlink="http://www.w3.org/1999/xlink" x="0px" y="0px"
	 viewBox="0 0 1024 768" enable-background="new 0 0 1024 768" xml:space="preserve">
<g id="background">
	<rect x="-0.7" fill="#242C51" width="1024.7" height="768"/>
</g>
<g id="barrieres">
	
		<line fill="none" stroke="#181E35" stroke-width="12" stroke-linecap="round" stroke-linejoin="round" stroke-miterlimit="10" x1="681" y1="384" x2="295" y2="384"/>
	<rect x="-0.7" y="756.6" fill="#181E35" width="1024.7" height="11.4"/>
	<rect x="-0.7" y="0" fill="#181E35" width="1024.7" height="11.4"/>
	
		<line fill="none" stroke="#181E35" stroke-width="12" stroke-linecap="round" stroke-linejoin="round" stroke-miterlimit="10" x1="295" y1="345" x2="295" y2="423"/>
	
		<line fill="none" stroke="#181E35" stroke-width="12" stroke-linecap="round" stroke-linejoin="round" stroke-miterlimit="10" x1="488" y1="6" x2="488" y2="140"/>
	
		<line fill="none" stroke="#181E35" stroke-width="12" stroke-linecap="round" stroke-linejoin="round" stroke-miterlimit="10" x1="488" y1="628" x2="488" y2="762"/>
</g>
<g id="pics">
	<g>
		
			<polyline fill="none" stroke="#40518D" stroke-width="6" stroke-linecap="round" stroke-linejoin="round" stroke-miterlimit="10" points="
			346.2,593.7 364,611.5 381.8,593.7 		"/>
		
			<polyline fill="none" stroke="#40518D" stroke-width="6" stroke-linecap="round" stroke-linejoin="round" stroke-miterlimit="10" points="
			381.8,593.7 399.6,611.5 417.3,593.7 		"/>
		
			<polyline fill="none" stroke="#40518D" stroke-width="6" stroke-linecap="round" stroke-linejoin="round" stroke-miterlimit="10" points="
			417.3,593.7 435.1,611.5 452.9,593.7 		"/>
		
			<polyline fill="none" stroke="#40518D" stroke-width="6" stroke-linecap="round" stroke-linejoin="round" stroke-miterlimit="10" points="
			452.9,593.7 470.7,611.5 488.5,593.7 		"/>
		
			<polyline fill="none" stroke="#40518D" stroke-width="6" stroke-linecap="round" stroke-linejoin="round" stroke-miterlimit="10" points="
			488.5,593.7 506.3,611.5 524.1,593.7 		"/>
		
			<polyline fill="none" stroke="#40518D" stroke-width="6" stroke-linecap="round" stroke-linejoin="round" stroke-miterlimit="10" points="
			524,593.7 541.8,611.5 559.6,593.7 		"/>
		
			<polyline fill="none" stroke="#40518D" stroke-width="6" stroke-linecap="round" stroke-linejoin="round" stroke-miterlimit="10" points="
			559.6,593.7 577.4,611.5 595.2,593.7 		"/>
		
			<polyline fill="none" stroke="#40518D" stroke-width="6" stroke-linecap="round" stroke-linejoin="round" stroke-miterlimit="10" points="
			595.1,593.7 612.9,611.5 630.7,593.7 		"/>
	</g>
	<g>
		
			<polyline fill="none" stroke="#40518D" stroke-width="6" stroke-linecap="round" stroke-linejoin="round" stroke-miterlimit="10" points="
			346.2,174.5 364,156.7 381.8,174.5 		"/>
		
			<polyline fill="none" stroke="#40518D" stroke-width="6" stroke-linecap="round" stroke-linejoin="round" stroke-miterlimit="10" points="
			381.8,174.5 399.6,156.7 417.3,174.5 		"/>
		
			<polyline fill="none" stroke="#40518D" stroke-width="6" stroke-linecap="round" stroke-linejoin="round" stroke-miterlimit="10" points="
			417.3,174.5 435.1,156.7 452.9,174.5 		"/>
		
			<polyline fill="none" stroke="#40518D" stroke-width="6" stroke-linecap="round" stroke-linejoin="round" stroke-miterlimit="10" points="
			452.9,174.5 470.7,156.7 488.5,174.5 		"/>
		
			<polyline fill="none" stroke="#40518D" stroke-width="6" stroke-linecap="round" stroke-linejoin="round" stroke-miterlimit="10" points="
			488.5,174.5 506.3,156.7 524.1,174.5 		"/>
		
			<polyline fill="none" stroke="#40518D" stroke-width="6" stroke-linecap="round" stroke-linejoin="round" stroke-miterlimit="10" points="
			524,174.5 541.8,156.7 559.6,174.5 		"/>
		
			<polyline fill="none" stroke="#40518D" stroke-width="6" stroke-linecap="round" stroke-linejoin="round" stroke-miterlimit="10" points="
			559.6,174.5 577.4,156.7 595.2,174.5 		"/>
		
			<polyline fill="none" stroke="#40518D" stroke-width="6" stroke-linecap="round" stroke-linejoin="round" stroke-miterlimit="10" points="
			595.1,174.5 612.9,156.7 630.7,174.5 		"/>
	</g>
</g>
<g id="KINECT_walls">
	<line fill="none" stroke="#0000FF" stroke-width="3" stroke-miterlimit="10" x1="-1" y1="11.5" x2="1024" y2="11.5"/>
	<line fill="none" stroke="#0000FF" stroke-width="3" stroke-miterlimit="10" x1="-1" y1="756.5" x2="1024" y2="756.5"/>
	<line fill="none" stroke="#0000FF" stroke-width="3" stroke-miterlimit="10" x1="488.5" y1="12" x2="488.5" y2="142"/>
	<line fill="none" stroke="#0000FF" stroke-width="3" stroke-miterlimit="10" x1="294.5" y1="345" x2="294.5" y2="423"/>
	<line fill="none" stroke="#0000FF" stroke-width="3" stroke-miterlimit="10" x1="681" y1="384.5" x2="294" y2="384.5"/>
	<line fill="none" stroke="#0000FF" stroke-width="3" stroke-miterlimit="10" x1="487.5" y1="626" x2="487.5" y2="757"/>
	<line fill="none" stroke="#0000FF" stroke-width="3" stroke-miterlimit="10" x1="0.5" y1="12" x2="0.5" y2="757"/>
</g>
<g id="KINECT_kill">
	<line fill="none" stroke="#FF0000" stroke-width="3" stroke-miterlimit="10" x1="631" y1="602.5" x2="346" y2="602.5"/>
	<line fill="none" stroke="#FF0000" stroke-width="3" stroke-miterlimit="10" x1="631" y1="165.5" x2="346" y2="165.5"/>
</g>
<g id="KINECT_end">
	<line fill="none" stroke="#00FF00" stroke-width="3" stroke-miterlimit="10" x1="1022.5" y1="0" x2="1022.5" y2="768"/>
</g>
</svg>
