<?xml version="1.0" encoding="utf-8"?>
<!-- Generator: Adobe Illustrator 18.1.1, SVG Export Plug-In . SVG Version: 6.00 Build 0)  -->
<!DOCTYPE svg PUBLIC "-//W3C//DTD SVG 1.1//EN" "http://www.w3.org/Graphics/SVG/1.1/DTD/svg11.dtd">
<svg version="1.1" id="Calque_1" xmlns="http://www.w3.org/2000/svg" xmlns:xlink="http://www.w3.org/1999/xlink" x="0px" y="0px"
	 viewBox="0 0 1024 768" enable-background="new 0 0 1024 768" xml:space="preserve">
<g id="background">
	<rect x="-0.7" fill="#242C51" width="1024.7" height="768"/>
</g>
<g id="barrieres">
	
		<line fill="none" stroke="#181E35" stroke-width="12" stroke-linecap="round" stroke-linejoin="round" stroke-miterlimit="10" x1="770" y1="499" x2="770" y2="760"/>
	
		<line fill="none" stroke="#181E35" stroke-width="12" stroke-linecap="round" stroke-linejoin="round" stroke-miterlimit="10" x1="770" y1="5.5" x2="770" y2="266.5"/>
	<rect x="-0.7" y="756.6" fill="#181E35" width="1024.7" height="11.4"/>
	<rect x="-0.7" y="0" fill="#181E35" width="1024.7" height="11.4"/>
</g>
<g id="pics">
	<g>
		
			<polyline fill="none" stroke="#40518D" stroke-width="6" stroke-linecap="round" stroke-linejoin="round" stroke-miterlimit="10" points="
			512.4,524.9 494.6,507.1 512.4,489.3 		"/>
		
			<polyline fill="none" stroke="#40518D" stroke-width="6" stroke-linecap="round" stroke-linejoin="round" stroke-miterlimit="10" points="
			512.4,489.3 494.6,471.5 512.4,453.7 		"/>
		
			<polyline fill="none" stroke="#40518D" stroke-width="6" stroke-linecap="round" stroke-linejoin="round" stroke-miterlimit="10" points="
			512.4,453.7 494.6,436 512.4,418.2 		"/>
		
			<polyline fill="none" stroke="#40518D" stroke-width="6" stroke-linecap="round" stroke-linejoin="round" stroke-miterlimit="10" points="
			512.4,418.2 494.6,400.4 512.4,382.6 		"/>
		
			<polyline fill="none" stroke="#40518D" stroke-width="6" stroke-linecap="round" stroke-linejoin="round" stroke-miterlimit="10" points="
			512.4,382.6 494.6,364.8 512.4,347 		"/>
		
			<polyline fill="none" stroke="#40518D" stroke-width="6" stroke-linecap="round" stroke-linejoin="round" stroke-miterlimit="10" points="
			512.4,347.1 494.6,329.3 512.4,311.5 		"/>
		
			<polyline fill="none" stroke="#40518D" stroke-width="6" stroke-linecap="round" stroke-linejoin="round" stroke-miterlimit="10" points="
			512.4,311.5 494.6,293.7 512.4,275.9 		"/>
		
			<polyline fill="none" stroke="#40518D" stroke-width="6" stroke-linecap="round" stroke-linejoin="round" stroke-miterlimit="10" points="
			512.4,276 494.6,258.2 512.4,240.4 		"/>
	</g>
</g>
<g id="KINECT_walls">
	<line fill="none" stroke="#0000FF" stroke-width="3" stroke-miterlimit="10" x1="-1" y1="11.5" x2="1024" y2="11.5"/>
	<line fill="none" stroke="#0000FF" stroke-width="3" stroke-miterlimit="10" x1="-1" y1="756.5" x2="1024" y2="756.5"/>
	<line fill="none" stroke="#0000FF" stroke-width="3" stroke-miterlimit="10" x1="770.5" y1="499" x2="770.5" y2="757"/>
	<line fill="none" stroke="#0000FF" stroke-width="3" stroke-miterlimit="10" x1="770" y1="13" x2="770" y2="271"/>
	<line fill="none" stroke="#0000FF" stroke-width="3" stroke-miterlimit="10" x1="0.5" y1="12" x2="0.5" y2="757"/>
</g>
<g id="KINECT_kill">
	<line fill="none" stroke="#FF0000" stroke-width="3" stroke-miterlimit="10" x1="503.5" y1="240" x2="503.5" y2="525"/>
</g>
<g id="KINECT_end">
	<line fill="none" stroke="#00FF00" stroke-width="3" stroke-miterlimit="10" x1="1022.5" y1="0" x2="1022.5" y2="768"/>
</g>
<g>
	<path fill="#FFFFFF" d="M933.7,375.8c-1,0.4-2,0.6-3.1,0.6c-1.6,0-3.1-0.3-4.4-0.9c-1.3-0.6-2.4-1.4-3.3-2.4
		c-0.9-1-1.6-2.2-2.1-3.5c-0.5-1.4-0.7-2.8-0.7-4.4c0-1.6,0.2-3.1,0.7-4.5c0.5-1.4,1.2-2.6,2.1-3.6c0.9-1,2-1.8,3.3-2.4
		c1.3-0.6,2.8-0.9,4.4-0.9c1.1,0,2.2,0.2,3.2,0.5c1,0.3,2,0.8,2.8,1.5c0.8,0.6,1.5,1.4,2.1,2.4s0.9,2,1,3.2h-4.5
		c-0.3-1.2-0.8-2.1-1.6-2.7c-0.8-0.6-1.8-0.9-2.9-0.9c-1.1,0-2,0.2-2.7,0.6c-0.7,0.4-1.3,1-1.8,1.6s-0.8,1.5-1,2.4
		c-0.2,0.9-0.3,1.8-0.3,2.7c0,0.9,0.1,1.8,0.3,2.6c0.2,0.9,0.5,1.6,1,2.3c0.5,0.7,1.1,1.2,1.8,1.6c0.7,0.4,1.6,0.6,2.7,0.6
		c1.6,0,2.8-0.4,3.6-1.2c0.8-0.8,1.3-1.9,1.5-3.4H931v-3.5h9v11.6h-3l-0.5-2.4C935.6,374.6,934.7,375.4,933.7,375.8z"/>
	<path fill="#FFFFFF" d="M943.6,360.9c0.5-1.4,1.2-2.6,2.1-3.6c0.9-1,2-1.8,3.3-2.4c1.3-0.6,2.8-0.9,4.4-0.9c1.7,0,3.1,0.3,4.4,0.9
		c1.3,0.6,2.4,1.4,3.3,2.4c0.9,1,1.6,2.2,2.1,3.6c0.5,1.4,0.7,2.9,0.7,4.5c0,1.6-0.2,3-0.7,4.4c-0.5,1.4-1.2,2.5-2.1,3.5
		c-0.9,1-2,1.8-3.3,2.4c-1.3,0.6-2.8,0.9-4.4,0.9c-1.6,0-3.1-0.3-4.4-0.9c-1.3-0.6-2.4-1.4-3.3-2.4c-0.9-1-1.6-2.2-2.1-3.5
		c-0.5-1.4-0.7-2.8-0.7-4.4C942.8,363.7,943.1,362.2,943.6,360.9z M947.9,367.9c0.2,0.9,0.5,1.6,1,2.3c0.5,0.7,1.1,1.2,1.8,1.6
		c0.7,0.4,1.6,0.6,2.7,0.6c1.1,0,2-0.2,2.7-0.6c0.7-0.4,1.3-1,1.8-1.6c0.5-0.7,0.8-1.4,1-2.3c0.2-0.8,0.3-1.7,0.3-2.6
		c0-0.9-0.1-1.8-0.3-2.7c-0.2-0.9-0.5-1.7-1-2.4s-1.1-1.2-1.8-1.6c-0.7-0.4-1.6-0.6-2.7-0.6c-1.1,0-2,0.2-2.7,0.6
		c-0.7,0.4-1.3,1-1.8,1.6s-0.8,1.5-1,2.4c-0.2,0.9-0.3,1.8-0.3,2.7C947.5,366.2,947.7,367.1,947.9,367.9z"/>
	<path fill="#FFFFFF" d="M971.6,371.3v4.6h-4.7v-4.6H971.6z M970.3,369.5h-2.1l-1.1-9.2v-5.8h4.4v5.8L970.3,369.5z"/>
	<path fill="#FFFFFF" d="M937.3,403.2v-3.4h13.6l-3.8-5.9l2.9-1.7l5.7,9.4l-5.7,9.4l-2.9-1.7l3.7-6.1H937.3z"/>
</g>
</svg>
