<?xml version="1.0" encoding="utf-8"?>
<!-- Generator: Adobe Illustrator 18.1.1, SVG Export Plug-In . SVG Version: 6.00 Build 0)  -->
<!DOCTYPE svg PUBLIC "-//W3C//DTD SVG 1.1//EN" "http://www.w3.org/Graphics/SVG/1.1/DTD/svg11.dtd">
<svg version="1.1" xmlns="http://www.w3.org/2000/svg" xmlns:xlink="http://www.w3.org/1999/xlink" x="0px" y="0px"
	 viewBox="0 0 1024 768" enable-background="new 0 0 1024 768" xml:space="preserve">
<g id="background">
	<rect x="-0.7" fill="#242C51" width="1024.7" height="768"/>
</g>
<g id="barrieres">
	
		<line fill="none" stroke="#181E35" stroke-width="12" stroke-linecap="round" stroke-linejoin="round" stroke-miterlimit="10" x1="681" y1="384" x2="295" y2="384"/>
	<rect x="-0.7" y="756.6" fill="#181E35" width="1024.7" height="11.4"/>
	<rect x="-0.7" fill="#181E35" width="1024.7" height="11.4"/>
	
		<line fill="none" stroke="#181E35" stroke-width="12" stroke-linecap="round" stroke-linejoin="round" stroke-miterlimit="10" x1="295" y1="345" x2="295" y2="423"/>
	
		<line fill="none" stroke="#181E35" stroke-width="12" stroke-linecap="round" stroke-linejoin="round" stroke-miterlimit="10" x1="488" y1="6" x2="488" y2="140"/>
	
		<line fill="none" stroke="#181E35" stroke-width="12" stroke-linecap="round" stroke-linejoin="round" stroke-miterlimit="10" x1="488" y1="628" x2="488" y2="762"/>
</g>
<g id="pics">
	<g>
		
			<polyline fill="none" stroke="#40518D" stroke-width="6" stroke-linecap="round" stroke-linejoin="round" stroke-miterlimit="10" points="
			346.2,593.7 364,611.5 381.8,593.7 		"/>
		
			<polyline fill="none" stroke="#40518D" stroke-width="6" stroke-linecap="round" stroke-linejoin="round" stroke-miterlimit="10" points="
			381.8,593.7 399.6,611.5 417.3,593.7 		"/>
		
			<polyline fill="none" stroke="#40518D" stroke-width="6" stroke-linecap="round" stroke-linejoin="round" stroke-miterlimit="10" points="
			417.3,593.7 435.1,611.5 452.9,593.7 		"/>
		
			<polyline fill="none" stroke="#40518D" stroke-width="6" stroke-linecap="round" stroke-linejoin="round" stroke-miterlimit="10" points="
			452.9,593.7 470.7,611.5 488.5,593.7 		"/>
		
			<polyline fill="none" stroke="#40518D" stroke-width="6" stroke-linecap="round" stroke-linejoin="round" stroke-miterlimit="10" points="
			488.5,593.7 506.3,611.5 524.1,593.7 		"/>
		
			<polyline fill="none" stroke="#40518D" stroke-width="6" stroke-linecap="round" stroke-linejoin="round" stroke-miterlimit="10" points="
			524,593.7 541.8,611.5 559.6,593.7 		"/>
		
			<polyline fill="none" stroke="#40518D" stroke-width="6" stroke-linecap="round" stroke-linejoin="round" stroke-miterlimit="10" points="
			559.6,593.7 577.4,611.5 595.2,593.7 		"/>
		
			<polyline fill="none" stroke="#40518D" stroke-width="6" stroke-linecap="round" stroke-linejoin="round" stroke-miterlimit="10" points="
			595.1,593.7 612.9,611.5 630.7,593.7 		"/>
	</g>
	<g>
		
			<polyline fill="none" stroke="#40518D" stroke-width="6" stroke-linecap="round" stroke-linejoin="round" stroke-miterlimit="10" points="
			346.2,174.5 364,156.7 381.8,174.5 		"/>
		
			<polyline fill="none" stroke="#40518D" stroke-width="6" stroke-linecap="round" stroke-linejoin="round" stroke-miterlimit="10" points="
			381.8,174.5 399.6,156.7 417.3,174.5 		"/>
		
			<polyline fill="none" stroke="#40518D" stroke-width="6" stroke-linecap="round" stroke-linejoin="round" stroke-miterlimit="10" points="
			417.3,174.5 435.1,156.7 452.9,174.5 		"/>
		
			<polyline fill="none" stroke="#40518D" stroke-width="6" stroke-linecap="round" stroke-linejoin="round" stroke-miterlimit="10" points="
			452.9,174.5 470.7,156.7 488.5,174.5 		"/>
		
			<polyline fill="none" stroke="#40518D" stroke-width="6" stroke-linecap="round" stroke-linejoin="round" stroke-miterlimit="10" points="
			488.5,174.5 506.3,156.7 524.1,174.5 		"/>
		
			<polyline fill="none" stroke="#40518D" stroke-width="6" stroke-linecap="round" stroke-linejoin="round" stroke-miterlimit="10" points="
			524,174.5 541.8,156.7 559.6,174.5 		"/>
		
			<polyline fill="none" stroke="#40518D" stroke-width="6" stroke-linecap="round" stroke-linejoin="round" stroke-miterlimit="10" points="
			559.6,174.5 577.4,156.7 595.2,174.5 		"/>
		
			<polyline fill="none" stroke="#40518D" stroke-width="6" stroke-linecap="round" stroke-linejoin="round" stroke-miterlimit="10" points="
			595.1,174.5 612.9,156.7 630.7,174.5 		"/>
	</g>
</g>
<g id="bonus">
	<g>
		<circle fill="#F4D13D" cx="751.7" cy="396.7" r="3"/>
		<circle fill="#F4D13D" cx="751.7" cy="371.7" r="3"/>
		<path fill="#F4D13D" d="M742.8,390c-0.8,0-1.6,0.3-2.1,0.9c-1.2,1.2-1.2,3.1,0,4.3c0.6,0.6,1.3,0.9,2.1,0.9c0.8,0,1.6-0.3,2.1-0.9
			c1.2-1.2,1.2-3.1,0-4.3C744.4,390.4,743.6,390,742.8,390z"/>
		<path fill="#F4D13D" d="M760.5,378.4c0.8,0,1.6-0.3,2.1-0.9c0.6-0.6,0.9-1.3,0.9-2.1c0-0.8-0.3-1.6-0.9-2.1
			c-0.6-0.6-1.3-0.9-2.1-0.9c-0.8,0-1.6,0.3-2.1,0.9c-1.2,1.2-1.2,3.1,0,4.3C759,378.1,759.7,378.4,760.5,378.4z"/>
		<circle fill="#F4D13D" cx="739.1" cy="384.2" r="3"/>
		<circle fill="#F4D13D" cx="764.2" cy="384.2" r="3"/>
		<path fill="#F4D13D" d="M742.8,372.3c-0.8,0-1.6,0.3-2.1,0.9c-0.6,0.6-0.9,1.3-0.9,2.1c0,0.8,0.3,1.6,0.9,2.1
			c0.6,0.6,1.3,0.9,2.1,0.9c0.8,0,1.6-0.3,2.1-0.9c0.6-0.6,0.9-1.3,0.9-2.1c0-0.8-0.3-1.6-0.9-2.1
			C744.4,372.6,743.6,372.3,742.8,372.3z"/>
		<path fill="#F4D13D" d="M760.5,390c-0.8,0-1.6,0.3-2.1,0.9c-1.2,1.2-1.2,3.1,0,4.3c0.6,0.6,1.3,0.9,2.1,0.9c0.8,0,1.6-0.3,2.1-0.9
			c1.2-1.2,1.2-3.1,0-4.3C762.1,390.4,761.3,390,760.5,390z"/>
	</g>
</g>
<g id="interface">
	<path fill="#DF324B" d="M958.3,111.2h-29c-19.2,0-34.8-15.6-34.8-34.8v0c0-19.2,15.6-34.8,34.8-34.8h29c19.2,0,34.8,15.6,34.8,34.8
		v0C993.1,95.6,977.5,111.2,958.3,111.2z"/>
	<text transform="matrix(1 0 0 1 829.6221 85.9238)" fill="#FFFFFF" font-family="'HelveticaNeue-Bold'" font-size="28.4444">25</text>
	<text transform="matrix(1 0 0 1 919.5557 86.8413)" fill="#FFFFFF" font-family="'HelveticaNeue-Bold'" font-size="29.0326">310</text>
	<g>
		<circle fill="#DF324B" cx="845.3" cy="45.5" r="3.7"/>
		<circle fill="#DF324B" cx="845.3" cy="107.4" r="3.7"/>
		<circle fill="#DF324B" cx="860.8" cy="103.2" r="3.7"/>
		<circle fill="#DF324B" cx="872.1" cy="91.9" r="3.7"/>
		<circle fill="#DF324B" cx="814.4" cy="76.5" r="3.7"/>
		<circle fill="#DF324B" cx="876.3" cy="76.5" r="3.7"/>
		<circle fill="#DF324B" cx="818.5" cy="91.9" r="3.7"/>
		<circle fill="#DF324B" cx="872.1" cy="61" r="3.7"/>
		<circle fill="#DF324B" cx="829.9" cy="103.2" r="3.7"/>
		<circle fill="#DF324B" cx="860.8" cy="49.7" r="3.7"/>
	</g>
	<g>
		
			<circle opacity="0.25" fill="none" stroke="#FFFFFF" stroke-width="5" stroke-linecap="round" stroke-linejoin="round" stroke-miterlimit="10" cx="944.3" cy="384" r="9.3"/>
		
			<circle fill="none" stroke="#FFFFFF" stroke-width="5" stroke-linecap="round" stroke-linejoin="round" stroke-miterlimit="10" cx="982.3" cy="384" r="9.3"/>
		
			<circle opacity="0.6" fill="none" stroke="#FFFFFF" stroke-width="5" stroke-linecap="round" stroke-linejoin="round" stroke-miterlimit="10" cx="963.3" cy="384" r="9.3"/>
	</g>
</g>
<g id="KINECT_walls">
	<line fill="none" stroke="#0000FF" stroke-width="3" stroke-miterlimit="10" x1="-1" y1="11.5" x2="1024" y2="11.5"/>
	<line fill="none" stroke="#0000FF" stroke-width="3" stroke-miterlimit="10" x1="-1" y1="756.5" x2="1024" y2="756.5"/>
	<line fill="none" stroke="#0000FF" stroke-width="3" stroke-miterlimit="10" x1="488.5" y1="12" x2="488.5" y2="142"/>
	<line fill="none" stroke="#0000FF" stroke-width="3" stroke-miterlimit="10" x1="294.5" y1="345" x2="294.5" y2="423"/>
	<line fill="none" stroke="#0000FF" stroke-width="3" stroke-miterlimit="10" x1="681" y1="384.5" x2="294" y2="384.5"/>
	<line fill="none" stroke="#0000FF" stroke-width="3" stroke-miterlimit="10" x1="487.5" y1="626" x2="487.5" y2="757"/>
</g>
<g id="KINECT_kill">
	<line fill="none" stroke="#FF0000" stroke-width="3" stroke-miterlimit="10" x1="631" y1="602.5" x2="346" y2="602.5"/>
	<line fill="none" stroke="#FF0000" stroke-width="3" stroke-miterlimit="10" x1="631" y1="165.5" x2="346" y2="165.5"/>
</g>
<g id="KINECT_end">
	<line fill="none" stroke="#00FF00" stroke-width="3" stroke-miterlimit="10" x1="1022.5" y1="0" x2="1022.5" y2="768"/>
</g>
</svg>
