<?xml version="1.0" encoding="utf-8"?>
<!-- Generator: Adobe Illustrator 18.1.1, SVG Export Plug-In . SVG Version: 6.00 Build 0)  -->
<!DOCTYPE svg PUBLIC "-//W3C//DTD SVG 1.1//EN" "http://www.w3.org/Graphics/SVG/1.1/DTD/svg11.dtd">
<svg version="1.1" id="Calque_1" xmlns="http://www.w3.org/2000/svg" xmlns:xlink="http://www.w3.org/1999/xlink" x="0px" y="0px"
	 viewBox="0 0 1024 768" enable-background="new 0 0 1024 768" xml:space="preserve">
<g id="background">
	<rect x="-0.7" fill="#242C51" width="1024.7" height="768"/>
</g>
<g id="barrieres">
	<rect x="-0.7" y="756.6" fill="#181E35" width="1024.7" height="11.4"/>
	<rect x="-0.7" y="0" fill="#181E35" width="1024.7" height="11.4"/>
	
		<polyline fill="none" stroke="#181E35" stroke-width="12" stroke-linecap="round" stroke-linejoin="round" stroke-miterlimit="10" points="
		661.1,248.1 782.1,248.1 782.1,534.1 713.1,534.1 713.1,623 	"/>
	<g>
		
			<polyline fill="none" stroke="#181E35" stroke-width="12" stroke-linecap="round" stroke-linejoin="round" stroke-miterlimit="10" points="
			-1,305 132,305 216,220.5 216,184 65,184 65,91 435,91 435,281 476.6,322.7 551.1,248.2 		"/>
		
			<polyline fill="none" stroke="#181E35" stroke-width="12" stroke-linecap="round" stroke-linejoin="round" stroke-miterlimit="10" points="
			-1,461 132,461 294,623 375,623 		"/>
	</g>
	
		<polyline fill="none" stroke="#181E35" stroke-width="12" stroke-linecap="round" stroke-linejoin="round" stroke-miterlimit="10" points="
		545,512 545,447 596.5,395.5 	"/>
	
		<line fill="none" stroke="#181E35" stroke-width="12" stroke-linecap="round" stroke-linejoin="round" stroke-miterlimit="10" x1="248" y1="419" x2="317.5" y2="349.5"/>
</g>
<g id="pics">
	<g>
		
			<polyline fill="none" stroke="#40518D" stroke-width="6" stroke-linecap="round" stroke-linejoin="round" stroke-miterlimit="10" points="
			403.2,631.5 421,613.7 438.8,631.5 		"/>
		
			<polyline fill="none" stroke="#40518D" stroke-width="6" stroke-linecap="round" stroke-linejoin="round" stroke-miterlimit="10" points="
			438.8,631.5 456.6,613.7 474.3,631.5 		"/>
		
			<polyline fill="none" stroke="#40518D" stroke-width="6" stroke-linecap="round" stroke-linejoin="round" stroke-miterlimit="10" points="
			474.3,631.5 492.1,613.7 509.9,631.5 		"/>
		
			<polyline fill="none" stroke="#40518D" stroke-width="6" stroke-linecap="round" stroke-linejoin="round" stroke-miterlimit="10" points="
			509.9,631.5 527.7,613.7 545.5,631.5 		"/>
		
			<polyline fill="none" stroke="#40518D" stroke-width="6" stroke-linecap="round" stroke-linejoin="round" stroke-miterlimit="10" points="
			545.5,631.5 563.3,613.7 581.1,631.5 		"/>
		
			<polyline fill="none" stroke="#40518D" stroke-width="6" stroke-linecap="round" stroke-linejoin="round" stroke-miterlimit="10" points="
			581,631.5 598.8,613.7 616.6,631.5 		"/>
		
			<polyline fill="none" stroke="#40518D" stroke-width="6" stroke-linecap="round" stroke-linejoin="round" stroke-miterlimit="10" points="
			616.6,631.5 634.4,613.7 652.2,631.5 		"/>
		
			<polyline fill="none" stroke="#40518D" stroke-width="6" stroke-linecap="round" stroke-linejoin="round" stroke-miterlimit="10" points="
			652.1,631.5 669.9,613.7 687.7,631.5 		"/>
	</g>
	<g>
		
			<polyline fill="none" stroke="#40518D" stroke-width="6" stroke-linecap="round" stroke-linejoin="round" stroke-miterlimit="10" points="
			712.6,81.7 694.8,99.5 677,81.7 		"/>
		
			<polyline fill="none" stroke="#40518D" stroke-width="6" stroke-linecap="round" stroke-linejoin="round" stroke-miterlimit="10" points="
			677.1,81.7 659.3,99.5 641.5,81.7 		"/>
		
			<polyline fill="none" stroke="#40518D" stroke-width="6" stroke-linecap="round" stroke-linejoin="round" stroke-miterlimit="10" points="
			641.5,81.7 623.7,99.5 605.9,81.7 		"/>
		
			<polyline fill="none" stroke="#40518D" stroke-width="6" stroke-linecap="round" stroke-linejoin="round" stroke-miterlimit="10" points="
			605.9,81.7 588.1,99.5 570.3,81.7 		"/>
		
			<polyline fill="none" stroke="#40518D" stroke-width="6" stroke-linecap="round" stroke-linejoin="round" stroke-miterlimit="10" points="
			570.3,81.7 552.6,99.5 534.8,81.7 		"/>
		
			<polyline fill="none" stroke="#40518D" stroke-width="6" stroke-linecap="round" stroke-linejoin="round" stroke-miterlimit="10" points="
			534.8,81.7 517,99.5 499.2,81.7 		"/>
	</g>
</g>
<g id="KINECT_walls">
	<line fill="none" stroke="#0000FF" stroke-width="3" stroke-miterlimit="10" x1="-1" y1="11.5" x2="1024" y2="11.5"/>
	<line fill="none" stroke="#0000FF" stroke-width="3" stroke-miterlimit="10" x1="-1" y1="756.5" x2="1024" y2="756.5"/>
	<g>
		<line fill="none" stroke="#0000FF" stroke-width="3" stroke-miterlimit="10" x1="-1" y1="461.5" x2="132" y2="461.5"/>
	</g>
	<line fill="none" stroke="#0000FF" stroke-width="3" stroke-miterlimit="10" x1="132" y1="461.5" x2="293.7" y2="623.2"/>
	<line fill="none" stroke="#0000FF" stroke-width="3" stroke-miterlimit="10" x1="375" y1="623.5" x2="294" y2="623.5"/>
	<line fill="none" stroke="#0000FF" stroke-width="3" stroke-miterlimit="10" x1="544.5" y1="512" x2="544.5" y2="447"/>
	<line fill="none" stroke="#0000FF" stroke-width="3" stroke-miterlimit="10" x1="596.5" y1="395.5" x2="545" y2="447"/>
	<path fill="none" stroke="#0000FF" stroke-width="3" stroke-miterlimit="10" d="M247.5,419"/>
	<line fill="none" stroke="#0000FF" stroke-width="3" stroke-miterlimit="10" x1="317.5" y1="349.5" x2="248" y2="419"/>
	<line fill="none" stroke="#0000FF" stroke-width="3" stroke-miterlimit="10" x1="661" y1="248.5" x2="782" y2="248.5"/>
	<line fill="none" stroke="#0000FF" stroke-width="3" stroke-miterlimit="10" x1="782.5" y1="534" x2="782.5" y2="249"/>
	<line fill="none" stroke="#0000FF" stroke-width="3" stroke-miterlimit="10" x1="713" y1="534.5" x2="782" y2="534.5"/>
	<line fill="none" stroke="#0000FF" stroke-width="3" stroke-miterlimit="10" x1="713.5" y1="623" x2="713.5" y2="535"/>
	<line fill="none" stroke="#0000FF" stroke-width="3" stroke-miterlimit="10" x1="-1" y1="305.5" x2="132" y2="305.5"/>
	<line fill="none" stroke="#0000FF" stroke-width="3" stroke-miterlimit="10" x1="216" y1="220.5" x2="131.5" y2="305"/>
	<line fill="none" stroke="#0000FF" stroke-width="3" stroke-miterlimit="10" x1="65" y1="184.5" x2="216" y2="184.5"/>
	<line fill="none" stroke="#0000FF" stroke-width="3" stroke-miterlimit="10" x1="215.5" y1="221" x2="215.5" y2="185"/>
	<line fill="none" stroke="#0000FF" stroke-width="3" stroke-miterlimit="10" x1="65.5" y1="91" x2="65.5" y2="185"/>
	<line fill="none" stroke="#0000FF" stroke-width="3" stroke-miterlimit="10" x1="435" y1="91.5" x2="65" y2="91.5"/>
	<line fill="none" stroke="#0000FF" stroke-width="3" stroke-miterlimit="10" x1="434.5" y1="281" x2="434.5" y2="92"/>
	<line fill="none" stroke="#0000FF" stroke-width="3" stroke-miterlimit="10" x1="476.6" y1="322.7" x2="435" y2="281"/>
	<line fill="none" stroke="#0000FF" stroke-width="3" stroke-miterlimit="10" x1="551.1" y1="248.2" x2="476.6" y2="322.7"/>
	<line fill="none" stroke="#0000FF" stroke-width="3" stroke-miterlimit="10" x1="0.5" y1="12" x2="0.5" y2="757"/>
</g>
<g id="KINECT_kill">
	<line fill="none" stroke="#FF0000" stroke-width="3" stroke-miterlimit="10" x1="688" y1="623.5" x2="403" y2="623.5"/>
	<line fill="none" stroke="#FF0000" stroke-width="3" stroke-miterlimit="10" x1="713" y1="91.5" x2="499" y2="91.5"/>
</g>
<g id="KINECT_end">
	<line fill="none" stroke="#00FF00" stroke-width="3" stroke-miterlimit="10" x1="1022.5" y1="0" x2="1022.5" y2="768"/>
</g>
</svg>
