<?xml version="1.0" encoding="utf-8"?>
<!-- Generator: Adobe Illustrator 18.1.1, SVG Export Plug-In . SVG Version: 6.00 Build 0)  -->
<!DOCTYPE svg PUBLIC "-//W3C//DTD SVG 1.1//EN" "http://www.w3.org/Graphics/SVG/1.1/DTD/svg11.dtd">
<svg version="1.1" id="Calque_1" xmlns="http://www.w3.org/2000/svg" xmlns:xlink="http://www.w3.org/1999/xlink" x="0px" y="0px"
	 viewBox="0 0 1024 768" enable-background="new 0 0 1024 768" xml:space="preserve">
<g id="background">
	<rect x="-0.7" fill="#242C51" width="1024.7" height="768"/>
</g>
<g id="barrieres">
	
		<polyline fill="none" stroke="#181E35" stroke-width="12" stroke-linecap="round" stroke-linejoin="round" stroke-miterlimit="10" points="
		0,267 220,267 220,197 290,197 290,127 360,127 	"/>
	
		<line fill="none" stroke="#181E35" stroke-width="12" stroke-linecap="round" stroke-linejoin="round" stroke-miterlimit="10" x1="740" y1="6" x2="740" y2="392"/>
	<rect x="-0.7" y="756.6" fill="#181E35" width="1024.7" height="11.4"/>
	<rect x="-0.7" y="0" fill="#181E35" width="1024.7" height="11.4"/>
</g>
<g id="pics">
	<g>
		
			<polyline fill="none" stroke="#40518D" stroke-width="6" stroke-linecap="round" stroke-linejoin="round" stroke-miterlimit="10" points="
			127.2,582.5 145,564.7 162.8,582.5 		"/>
		
			<polyline fill="none" stroke="#40518D" stroke-width="6" stroke-linecap="round" stroke-linejoin="round" stroke-miterlimit="10" points="
			162.8,582.5 180.6,564.7 198.3,582.5 		"/>
		
			<polyline fill="none" stroke="#40518D" stroke-width="6" stroke-linecap="round" stroke-linejoin="round" stroke-miterlimit="10" points="
			198.3,582.5 216.1,564.7 233.9,582.5 		"/>
		
			<polyline fill="none" stroke="#40518D" stroke-width="6" stroke-linecap="round" stroke-linejoin="round" stroke-miterlimit="10" points="
			233.9,582.5 251.7,564.7 269.5,582.5 		"/>
		
			<polyline fill="none" stroke="#40518D" stroke-width="6" stroke-linecap="round" stroke-linejoin="round" stroke-miterlimit="10" points="
			269.5,582.5 287.3,564.7 305.1,582.5 		"/>
		
			<polyline fill="none" stroke="#40518D" stroke-width="6" stroke-linecap="round" stroke-linejoin="round" stroke-miterlimit="10" points="
			305,582.5 322.8,564.7 340.6,582.5 		"/>
		
			<polyline fill="none" stroke="#40518D" stroke-width="6" stroke-linecap="round" stroke-linejoin="round" stroke-miterlimit="10" points="
			340.6,582.5 358.4,564.7 376.2,582.5 		"/>
		
			<polyline fill="none" stroke="#40518D" stroke-width="6" stroke-linecap="round" stroke-linejoin="round" stroke-miterlimit="10" points="
			376.1,582.5 393.9,564.7 411.7,582.5 		"/>
	</g>
	<g>
		
			<polyline fill="none" stroke="#40518D" stroke-width="6" stroke-linecap="round" stroke-linejoin="round" stroke-miterlimit="10" points="
			450.4,479.9 432.6,462.1 450.4,444.3 		"/>
		
			<polyline fill="none" stroke="#40518D" stroke-width="6" stroke-linecap="round" stroke-linejoin="round" stroke-miterlimit="10" points="
			450.4,444.3 432.6,426.5 450.4,408.7 		"/>
		
			<polyline fill="none" stroke="#40518D" stroke-width="6" stroke-linecap="round" stroke-linejoin="round" stroke-miterlimit="10" points="
			450.4,408.7 432.6,391 450.4,373.2 		"/>
		
			<polyline fill="none" stroke="#40518D" stroke-width="6" stroke-linecap="round" stroke-linejoin="round" stroke-miterlimit="10" points="
			450.4,373.2 432.6,355.4 450.4,337.6 		"/>
		<path fill="none" stroke="#40518D" stroke-width="6" stroke-linecap="round" stroke-linejoin="round" stroke-miterlimit="10" d="
			M450.4,337.6"/>
	</g>
</g>
<g id="KINECT_walls">
	<line fill="none" stroke="#0000FF" stroke-width="3" stroke-miterlimit="10" x1="-1" y1="11.5" x2="1024" y2="11.5"/>
	<line fill="none" stroke="#0000FF" stroke-width="3" stroke-miterlimit="10" x1="-1" y1="756.5" x2="1024" y2="756.5"/>
	<line fill="none" stroke="#0000FF" stroke-width="3" stroke-miterlimit="10" x1="740.5" y1="12" x2="740.5" y2="391"/>
	<line fill="none" stroke="#0000FF" stroke-width="3" stroke-miterlimit="10" x1="0" y1="267.5" x2="219" y2="267.5"/>
	<line fill="none" stroke="#0000FF" stroke-width="3" stroke-miterlimit="10" x1="219.5" y1="197" x2="219.5" y2="268"/>
	<line fill="none" stroke="#0000FF" stroke-width="3" stroke-miterlimit="10" x1="290" y1="197.5" x2="220" y2="197.5"/>
	<line fill="none" stroke="#0000FF" stroke-width="3" stroke-miterlimit="10" x1="289.5" y1="127" x2="289.5" y2="197"/>
	<line fill="none" stroke="#0000FF" stroke-width="3" stroke-miterlimit="10" x1="360" y1="127.5" x2="289" y2="127.5"/>
	<line fill="none" stroke="#0000FF" stroke-width="3" stroke-miterlimit="10" x1="0.5" y1="12" x2="0.5" y2="757"/>
</g>
<g id="KINECT_kill">
	<line fill="none" stroke="#FF0000" stroke-width="3" stroke-miterlimit="10" x1="441.5" y1="338" x2="441.5" y2="480"/>
	<line fill="none" stroke="#FF0000" stroke-width="3" stroke-miterlimit="10" x1="412" y1="573.5" x2="127" y2="573.5"/>
</g>
<g id="KINECT_end">
	<line fill="none" stroke="#00FF00" stroke-width="3" stroke-miterlimit="10" x1="1022.5" y1="0" x2="1022.5" y2="768"/>
</g>
</svg>
