<?xml version="1.0" encoding="utf-8"?>
<!-- Generator: Adobe Illustrator 18.1.1, SVG Export Plug-In . SVG Version: 6.00 Build 0)  -->
<!DOCTYPE svg PUBLIC "-//W3C//DTD SVG 1.1//EN" "http://www.w3.org/Graphics/SVG/1.1/DTD/svg11.dtd">
<svg version="1.1" xmlns="http://www.w3.org/2000/svg" xmlns:xlink="http://www.w3.org/1999/xlink" x="0px" y="0px"
	 viewBox="0 0 1024 768" enable-background="new 0 0 1024 768" xml:space="preserve">
<g id="background">
	<rect x="-0.7" fill="#242C51" width="1024.7" height="768"/>
</g>
<g id="barrieres">
	<rect x="-0.7" y="756.6" fill="#181E35" width="1024.7" height="11.4"/>
	<rect x="-0.7" fill="#181E35" width="1024.7" height="11.4"/>
	<path fill="none" stroke="#181E35" stroke-width="12" stroke-linecap="round" stroke-linejoin="round" stroke-miterlimit="10" d="
		M639.2,652c-17.9-53-68.2-91.5-127.4-91.5S402.3,599,384.4,652"/>
	
		<line fill="none" stroke="#181E35" stroke-width="12" stroke-linecap="round" stroke-linejoin="round" stroke-miterlimit="10" x1="512" y1="558" x2="512" y2="470"/>
</g>
<g id="pics">
	<g>
		
			<polyline fill="none" stroke="#40518D" stroke-width="6" stroke-linecap="round" stroke-linejoin="round" stroke-miterlimit="10" points="
			951.8,682.6 951.4,657.4 926.2,657.8 		"/>
		
			<polyline fill="none" stroke="#40518D" stroke-width="6" stroke-linecap="round" stroke-linejoin="round" stroke-miterlimit="10" points="
			926.2,657.9 925.8,632.7 900.6,633.1 		"/>
		
			<polyline fill="none" stroke="#40518D" stroke-width="6" stroke-linecap="round" stroke-linejoin="round" stroke-miterlimit="10" points="
			900.6,633.1 900.2,608 875,608.4 		"/>
		
			<polyline fill="none" stroke="#40518D" stroke-width="6" stroke-linecap="round" stroke-linejoin="round" stroke-miterlimit="10" points="
			875.1,608.5 874.6,583.3 849.5,583.7 		"/>
		<path fill="none" stroke="#40518D" stroke-width="6" stroke-linecap="round" stroke-linejoin="round" stroke-miterlimit="10" d="
			M849.5,583.7"/>
	</g>
	<g>
		
			<polyline fill="none" stroke="#40518D" stroke-width="6" stroke-linecap="round" stroke-linejoin="round" stroke-miterlimit="10" points="
			616.7,218.5 591.5,218.9 592,244.1 		"/>
		
			<polyline fill="none" stroke="#40518D" stroke-width="6" stroke-linecap="round" stroke-linejoin="round" stroke-miterlimit="10" points="
			592,244 566.8,244.5 567.3,269.6 		"/>
		
			<polyline fill="none" stroke="#40518D" stroke-width="6" stroke-linecap="round" stroke-linejoin="round" stroke-miterlimit="10" points="
			567.3,269.6 542.1,270.1 542.6,295.2 		"/>
		
			<polyline fill="none" stroke="#40518D" stroke-width="6" stroke-linecap="round" stroke-linejoin="round" stroke-miterlimit="10" points="
			542.6,295.2 517.4,295.6 517.9,320.8 		"/>
		
			<polyline fill="none" stroke="#40518D" stroke-width="6" stroke-linecap="round" stroke-linejoin="round" stroke-miterlimit="10" points="
			517.9,320.8 492.7,321.2 493.1,346.4 		"/>
		
			<polyline fill="none" stroke="#40518D" stroke-width="6" stroke-linecap="round" stroke-linejoin="round" stroke-miterlimit="10" points="
			493.2,346.4 468,346.8 468.5,372 		"/>
		
			<polyline fill="none" stroke="#40518D" stroke-width="6" stroke-linecap="round" stroke-linejoin="round" stroke-miterlimit="10" points="
			468.5,372 443.3,372.4 443.7,397.6 		"/>
		
			<polyline fill="none" stroke="#40518D" stroke-width="6" stroke-linecap="round" stroke-linejoin="round" stroke-miterlimit="10" points="
			443.8,397.5 418.6,398 419.1,423.1 		"/>
	</g>
	<g>
		
			<polyline fill="none" stroke="#40518D" stroke-width="6" stroke-linecap="round" stroke-linejoin="round" stroke-miterlimit="10" points="
			443.7,157.5 425.9,139.7 408.1,157.5 		"/>
		
			<polyline fill="none" stroke="#40518D" stroke-width="6" stroke-linecap="round" stroke-linejoin="round" stroke-miterlimit="10" points="
			408.2,157.5 390.4,139.7 372.6,157.5 		"/>
		
			<polyline fill="none" stroke="#40518D" stroke-width="6" stroke-linecap="round" stroke-linejoin="round" stroke-miterlimit="10" points="
			372.6,157.5 354.8,139.7 337,157.5 		"/>
		
			<polyline fill="none" stroke="#40518D" stroke-width="6" stroke-linecap="round" stroke-linejoin="round" stroke-miterlimit="10" points="
			337.1,157.5 319.3,139.7 301.5,157.5 		"/>
		
			<polyline fill="none" stroke="#40518D" stroke-width="6" stroke-linecap="round" stroke-linejoin="round" stroke-miterlimit="10" points="
			301.5,157.5 283.7,139.7 265.9,157.5 		"/>
		
			<polyline fill="none" stroke="#40518D" stroke-width="6" stroke-linecap="round" stroke-linejoin="round" stroke-miterlimit="10" points="
			265.9,157.5 248.1,139.7 230.3,157.5 		"/>
		
			<polyline fill="none" stroke="#40518D" stroke-width="6" stroke-linecap="round" stroke-linejoin="round" stroke-miterlimit="10" points="
			230.3,157.5 212.6,139.7 194.8,157.5 		"/>
		
			<polyline fill="none" stroke="#40518D" stroke-width="6" stroke-linecap="round" stroke-linejoin="round" stroke-miterlimit="10" points="
			194.8,157.5 177,139.7 159.2,157.5 		"/>
	</g>
</g>
<g id="bonus">
	<g>
		<circle fill="#F4D13D" cx="524.3" cy="652.3" r="3"/>
		<circle fill="#F4D13D" cx="499.3" cy="652.3" r="3"/>
		<path fill="#F4D13D" d="M517.6,661.2c0,0.8,0.3,1.6,0.9,2.1c1.2,1.2,3.1,1.2,4.3,0c0.6-0.6,0.9-1.3,0.9-2.1c0-0.8-0.3-1.6-0.9-2.1
			c-1.2-1.2-3.1-1.2-4.3,0C517.9,659.6,517.6,660.4,517.6,661.2z"/>
		<path fill="#F4D13D" d="M506,643.5c0-0.8-0.3-1.6-0.9-2.1c-0.6-0.6-1.3-0.9-2.2-0.9c-0.8,0-1.6,0.3-2.1,0.9
			c-0.6,0.6-0.9,1.3-0.9,2.1c0,0.8,0.3,1.6,0.9,2.2c1.2,1.2,3.1,1.2,4.3,0C505.7,645.1,506,644.3,506,643.5z"/>
		<circle fill="#F4D13D" cx="511.8" cy="664.9" r="3"/>
		<circle fill="#F4D13D" cx="511.8" cy="639.8" r="3"/>
		<path fill="#F4D13D" d="M499.9,661.2c0,0.8,0.3,1.6,0.9,2.1c0.6,0.6,1.3,0.9,2.1,0.9c0.8,0,1.6-0.3,2.2-0.9
			c0.6-0.6,0.9-1.3,0.9-2.1c0-0.8-0.3-1.6-0.9-2.1c-0.6-0.6-1.3-0.9-2.2-0.9c-0.8,0-1.6,0.3-2.1,0.9
			C500.2,659.6,499.9,660.4,499.9,661.2z"/>
		<path fill="#F4D13D" d="M517.6,643.5c0,0.8,0.3,1.6,0.9,2.2c1.2,1.2,3.1,1.2,4.3,0c0.6-0.6,0.9-1.3,0.9-2.2c0-0.8-0.3-1.6-0.9-2.1
			c-1.2-1.2-3.1-1.2-4.3,0C517.9,641.9,517.6,642.7,517.6,643.5z"/>
	</g>
</g>
<g id="interface">
	<path fill="#DF324B" d="M958.3,111.2h-29c-19.2,0-34.8-15.6-34.8-34.8v0c0-19.2,15.6-34.8,34.8-34.8h29c19.2,0,34.8,15.6,34.8,34.8
		v0C993.1,95.6,977.5,111.2,958.3,111.2z"/>
	<text transform="matrix(1 0 0 1 829.6221 85.9238)" fill="#FFFFFF" font-family="'HelveticaNeue-Bold'" font-size="28.4444">25</text>
	<text transform="matrix(1 0 0 1 919.5557 86.8413)" fill="#FFFFFF" font-family="'HelveticaNeue-Bold'" font-size="29.0326">310</text>
	<g>
		<circle fill="#DF324B" cx="845.3" cy="45.5" r="3.7"/>
		<circle fill="#DF324B" cx="845.3" cy="107.4" r="3.7"/>
		<circle fill="#DF324B" cx="860.8" cy="103.2" r="3.7"/>
		<circle fill="#DF324B" cx="872.1" cy="91.9" r="3.7"/>
		<circle fill="#DF324B" cx="814.4" cy="76.5" r="3.7"/>
		<circle fill="#DF324B" cx="876.3" cy="76.5" r="3.7"/>
		<circle fill="#DF324B" cx="818.5" cy="91.9" r="3.7"/>
		<circle fill="#DF324B" cx="872.1" cy="61" r="3.7"/>
		<circle fill="#DF324B" cx="829.9" cy="103.2" r="3.7"/>
		<circle fill="#DF324B" cx="860.8" cy="49.7" r="3.7"/>
	</g>
	<g>
		
			<circle opacity="0.25" fill="none" stroke="#FFFFFF" stroke-width="5" stroke-linecap="round" stroke-linejoin="round" stroke-miterlimit="10" cx="944.3" cy="384" r="9.3"/>
		
			<circle fill="none" stroke="#FFFFFF" stroke-width="5" stroke-linecap="round" stroke-linejoin="round" stroke-miterlimit="10" cx="982.3" cy="384" r="9.3"/>
		
			<circle opacity="0.6" fill="none" stroke="#FFFFFF" stroke-width="5" stroke-linecap="round" stroke-linejoin="round" stroke-miterlimit="10" cx="963.3" cy="384" r="9.3"/>
	</g>
</g>
<g id="KINECT_walls">
	<line fill="none" stroke="#0000FF" stroke-width="3" stroke-miterlimit="10" x1="-1" y1="11.5" x2="1024" y2="11.5"/>
	<line fill="none" stroke="#0000FF" stroke-width="3" stroke-miterlimit="10" x1="-1" y1="756.5" x2="1024" y2="756.5"/>
	<line fill="none" stroke="#0000FF" stroke-width="3" stroke-miterlimit="10" x1="511.5" y1="558" x2="511.5" y2="470"/>
	<line fill="none" stroke="#0000FF" stroke-width="3" stroke-miterlimit="10" x1="512" y1="558" x2="557.4" y2="568.5"/>
	<line fill="none" stroke="#0000FF" stroke-width="3" stroke-miterlimit="10" x1="557.4" y1="568.5" x2="590.3" y2="583.7"/>
	<line fill="none" stroke="#0000FF" stroke-width="3" stroke-miterlimit="10" x1="590.3" y1="583.7" x2="614.6" y2="608.5"/>
	<line fill="none" stroke="#0000FF" stroke-width="3" stroke-miterlimit="10" x1="614.6" y1="608.5" x2="631" y2="632.7"/>
	<line fill="none" stroke="#0000FF" stroke-width="3" stroke-miterlimit="10" x1="631" y1="632.7" x2="639.2" y2="652"/>
	<line fill="none" stroke="#0000FF" stroke-width="3" stroke-miterlimit="10" x1="511.2" y1="558" x2="465.8" y2="568.5"/>
	<line fill="none" stroke="#0000FF" stroke-width="3" stroke-miterlimit="10" x1="465.8" y1="568.5" x2="432.9" y2="583.7"/>
	<line fill="none" stroke="#0000FF" stroke-width="3" stroke-miterlimit="10" x1="432.9" y1="583.7" x2="408.6" y2="608.5"/>
	<line fill="none" stroke="#0000FF" stroke-width="3" stroke-miterlimit="10" x1="408.6" y1="608.5" x2="392.3" y2="632.7"/>
	<line fill="none" stroke="#0000FF" stroke-width="3" stroke-miterlimit="10" x1="392.3" y1="632.7" x2="384" y2="652"/>
</g>
<g id="KINECT_kill">
	<line fill="none" stroke="#FF0000" stroke-width="3" stroke-miterlimit="10" x1="443" y1="148.5" x2="158" y2="148.5"/>
	<line fill="none" stroke="#FF0000" stroke-width="3" stroke-miterlimit="10" x1="614.3" y1="218.7" x2="412.7" y2="420.3"/>
	<line fill="none" stroke="#FF0000" stroke-width="3" stroke-miterlimit="10" x1="961.3" y1="682.3" x2="855.8" y2="576.8"/>
</g>
<g id="KINECT_end">
	<line fill="none" stroke="#00FF00" stroke-width="3" stroke-miterlimit="10" x1="1022.5" y1="0" x2="1022.5" y2="768"/>
</g>
</svg>
