<?xml version="1.0" encoding="utf-8"?>
<!-- Generator: Adobe Illustrator 18.0.0, SVG Export Plug-In . SVG Version: 6.00 Build 0)  -->
<!DOCTYPE svg PUBLIC "-//W3C//DTD SVG 1.1//EN" "http://www.w3.org/Graphics/SVG/1.1/DTD/svg11.dtd">
<svg version="1.1" id="Layer_1" xmlns="http://www.w3.org/2000/svg" xmlns:xlink="http://www.w3.org/1999/xlink" x="0px" y="0px"
	 viewBox="0 0 1024 768" enable-background="new 0 0 1024 768" xml:space="preserve">
<path d="M69,359.4c11,13.5,28.2,21.3,54.9,21.3c66.7,0,80.5-36.9,80.5-86.2v-8h-51.9c-0.3,35.6-2.6,58.3-22.4,58.3
	c-14,0-20.1-6.8-22.7-28.3L69,359.4z"/>
<path d="M90,199.8c5.2,5.9,10.7,11.7,16.2,17.4c1.8-28,7.2-38.5,22.5-38.5c18,0,21.8,14.7,21.8,48.1h51.9v-9.6
	c0-53.9-26-74.4-73.4-74.4c-33.5,0-52.9,11.3-64.1,28.9L90,199.8z"/>
<path d="M476.8,147.3h43.6l57.1,228.9h-55.8l-8.3-43.6L476.8,147.3z"/>
<path d="M646.4,332.9H725v43.3H585.5v-43.3H646.4z M663.1,191h-71.5v-43.7H725V191"/>
<path d="M791.3,286.1l-58-138.8h59.6l25.6,85h0.6l26.3-85h57.7l-58,138.8"/>
<path d="M73.7,407.4h44.7v190.2H73.7V407.4z"/>
<path d="M187.2,597.6H147V407.4h40.2V597.6z M235.8,407.4h41.4v190.2h-41.4L235.8,407.4L235.8,407.4z"/>
<path d="M418.9,562.2h64.7v35.4H374.2v-35.4H418.9z"/>
<path d="M704.8,597.6h-29L634,407.4h47.9l22.6,147h0.5L704.8,597.6z"/>
<path d="M790.3,443.2v-35.8h110v36.2l-65.3-0.5L790.3,443.2L790.3,443.2z M835,561.7h68.2v36H790.3v-36H835z"/>
<line fill="none" stroke="#00FFFF" stroke-width="13" stroke-miterlimit="10" x1="396.6" y1="407.4" x2="396.6" y2="579.9"/>
<line fill="none" stroke="#0000FF" stroke-width="13" stroke-miterlimit="10" x1="601.3" y1="476" x2="601.3" y2="560.4"/>
<line fill="none" stroke="#00FFFF" stroke-width="13" stroke-miterlimit="10" x1="166.4" y1="423.8" x2="254.4" y2="579.9"/>
<line fill="none" stroke="#00FFFF" stroke-width="13" stroke-miterlimit="10" x1="520.4" y1="441.4" x2="520.4" y2="551.5"/>
<line fill="none" stroke="#00FFFF" stroke-width="13" stroke-miterlimit="10" x1="704.9" y1="579.9" x2="756.3" y2="407.4"/>
<line fill="none" stroke="#00FFFF" stroke-width="13" stroke-miterlimit="10" x1="810.4" y1="423.8" x2="810.4" y2="579.9"/>
<line fill="none" stroke="#00FFFF" stroke-width="13" stroke-miterlimit="10" x1="810.4" y1="496.5" x2="868.5" y2="496.5"/>
<line fill="none" stroke="#00FF00" stroke-width="13" stroke-miterlimit="10" x1="483.1" y1="159.2" x2="427.7" y2="376.2"/>
<line fill="none" stroke="#00FF00" stroke-width="13" stroke-miterlimit="10" x1="449.6" y1="290.3" x2="518.3" y2="286.4"/>
<line fill="none" stroke="#00FF00" stroke-width="13" stroke-miterlimit="10" x1="713.8" y1="169.5" x2="605.5" y2="347.5"/>
<line fill="none" stroke="#00FF00" stroke-width="13" stroke-miterlimit="10" x1="818.3" y1="249.8" x2="818.3" y2="379.1"/>
<line fill="none" stroke="#00FF00" stroke-width="13" stroke-miterlimit="10" x1="83.3" y1="169.5" x2="83.3" y2="357"/>
<line fill="none" stroke="#00FF00" stroke-width="13" stroke-miterlimit="10" x1="260.2" y1="169.5" x2="260.2" y2="384"/>
<path d="M284.8,245.1h18.6c15.8,0,19.6-14.6,19.6-28.8c0-27.7-11.4-28.8-38.2-28.2l0.2-41.9h25c44.8,0,67,17.9,67,64.2
	c0,24.8-5.9,42.6-28.8,53.1v0.7c15.3,3.4,26,13.9,27,30.2c1.5,18.6,1.8,58.7,5,73.6c1.2,3.2,2.8,5.9,5.2,8v3.2h-59.5
	c-1.5-4.4-2.8-8.7-3.2-13.4c-1-20.4,0.3-39.7-1.2-54c-1.5-14.2-5.9-23.6-18.6-24.5H285v-42.2L284.8,245.1L284.8,245.1z"/>
<path d="M540.8,514.8c0.9,39.6,3.8,52.7,19.8,52.7s17.1-16.1,17.1-27l48.6,10.8c-3.6,33.2-21.6,50.1-65.7,50.1
	c-49.8,0-63.1-16.1-66.4-62.9L540.8,514.8z M579.5,496.5c0-48.2-3-59.1-19.4-59.1c-15.7,0-17.7,10.8-17.7,33.8l-49.3-11.4
	c0-36.3,24.1-56.5,67.2-56.5c43.1,0,69.3,18.2,66.4,69.1L579.5,496.5z"/>
</svg>
