<?xml version="1.0" encoding="utf-8"?>
<!-- Generator: Adobe Illustrator 18.0.0, SVG Export Plug-In . SVG Version: 6.00 Build 0)  -->
<!DOCTYPE svg PUBLIC "-//W3C//DTD SVG 1.1//EN" "http://www.w3.org/Graphics/SVG/1.1/DTD/svg11.dtd">
<svg version="1.1" id="Layer_1" xmlns="http://www.w3.org/2000/svg" xmlns:xlink="http://www.w3.org/1999/xlink" x="0px" y="0px"
	 viewBox="0 0 1024 768" enable-background="new 0 0 1024 768" xml:space="preserve">
<line fill="none" stroke="#9CFFAD" stroke-width="13" stroke-miterlimit="10" x1="404.5" y1="339" x2="404.5" y2="560.1"/>
<line fill="none" stroke="#0000FF" stroke-width="13" stroke-miterlimit="10" x1="654.1" y1="426.9" x2="654.1" y2="535.1"/>
<line fill="none" stroke="#EFFF4E" stroke-width="13" stroke-miterlimit="10" x1="123.8" y1="360" x2="231.1" y2="560.1"/>
<line fill="none" stroke="#00AAF1" stroke-width="13" stroke-miterlimit="10" x1="555.5" y1="382.6" x2="555.5" y2="523.7"/>
<line fill="none" stroke="#3C000F" stroke-width="13" stroke-miterlimit="10" x1="773.3" y1="570.4" x2="843.2" y2="339"/>
<line fill="none" stroke="#FF698B" stroke-width="13" stroke-miterlimit="10" x1="909.1" y1="360" x2="909.1" y2="560.1"/>
<line fill="none" stroke="#DA1E00" stroke-width="13" stroke-miterlimit="10" x1="909.1" y1="453.2" x2="980" y2="453.2"/>
<line fill="none" stroke="#18BD00" stroke-width="13" stroke-miterlimit="10" x1="510" y1="21" x2="442.4" y2="299.1"/>
<line fill="none" stroke="#00B79B" stroke-width="13" stroke-miterlimit="10" x1="469.1" y1="186.6" x2="552.6" y2="186.4"/>
<line fill="none" stroke="#0067A6" stroke-width="13" stroke-miterlimit="10" x1="791.3" y1="34.2" x2="659.3" y2="262.3"/>
<line fill="none" stroke="#7E00C7" stroke-width="13" stroke-miterlimit="10" x1="918.8" y1="137.1" x2="918.8" y2="302.8"/>
<line fill="none" stroke="#5F0A00" stroke-width="13" stroke-miterlimit="10" x1="22.4" y1="34.2" x2="22.4" y2="274.5"/>
<line fill="none" stroke="#5B5200" stroke-width="13" stroke-miterlimit="10" x1="238.2" y1="34.2" x2="238.2" y2="309"/>
<path d="M5,277.5c13.4,17.3,34.4,27.3,67,27.3c81.3,0,98.2-47.3,98.2-110.4v-10.3h-63.3c-0.4,45.6-3.2,74.7-27.3,74.7
	c-17.1,0-24.5-8.7-27.7-36.3L5,277.5z"/>
<path d="M30.6,73c6.3,7.6,13,15,19.8,22.3C52.6,59.5,59.1,46,77.8,46c22,0,26.6,18.8,26.6,61.6h63.3V95.3C167.7,26.3,136,0,78.2,0
	C37.3,0,13.7,14.5,0,37L30.6,73z"/>
<path d="M502.3,5.8h53.2l69.6,293.3h-68l-10.1-55.9L502.3,5.8z"/>
<path d="M709.1,243.6H805v55.5H634.9v-55.5H709.1z M729.5,61.8h-87.2v-56H805v56"/>
<path d="M885.8,183.6L815.1,5.8h72.7L919,114.7h0.7L951.8,5.8h70.4l-70.7,177.8"/>
<path d="M10.7,339h54.5v243.7H10.7V339z"/>
<path d="M149.1,582.7h-49V339h49V582.7z M208.4,339h50.5v243.7h-50.5L208.4,339L208.4,339z"/>
<path d="M431.7,537.4h78.9v45.4H377.2v-45.4H431.7z"/>
<path d="M780.4,582.7H745L694,339h58.4L780,527.4h0.6L780.4,582.7z"/>
<path d="M884.6,384.9V339h134.1v46.4l-79.6-0.6L884.6,384.9L884.6,384.9z M939.1,536.7h83.2v46.1H884.6v-46.1H939.1z"/>
<path d="M268.2,131.1h22.7c19.3,0,23.9-18.7,23.9-36.9c0-35.5-13.9-36.9-46.6-36.1l0.2-53.7h30.5c54.6,0,81.7,22.9,81.7,82.3
	c0,31.8-7.2,54.6-35.1,68v0.9c18.7,4.4,31.7,17.8,32.9,38.7c1.8,23.8,2.2,75.2,6.1,94.3c1.5,4.1,3.4,7.6,6.3,10.3v4.1h-72.6
	c-1.8-5.6-3.4-11.1-3.9-17.2c-1.2-26.1,0.4-50.9-1.5-69.2c-1.8-18.2-7.2-30.2-22.7-31.4h-21.8v-54.1L268.2,131.1L268.2,131.1z"/>
<path d="M580.4,476.6c1.1,50.7,4.6,67.5,24.1,67.5c19.5,0,20.9-20.6,20.9-34.6l59.3,13.8c-4.4,42.5-26.3,64.2-80.1,64.2
	c-60.7,0-76.9-20.6-81-80.6L580.4,476.6z M627.6,453.2c0-61.8-3.7-75.7-23.7-75.7c-19.1,0-21.6,13.8-21.6,43.3l-60.1-14.6
	c0-46.5,29.4-72.4,81.9-72.4c52.6,0,84.5,23.3,81,88.5L627.6,453.2z"/>
</svg>
