<?xml version="1.0" encoding="utf-8"?>
<!-- Generator: Adobe Illustrator 18.0.0, SVG Export Plug-In . SVG Version: 6.00 Build 0)  -->
<!DOCTYPE svg PUBLIC "-//W3C//DTD SVG 1.1//EN" "http://www.w3.org/Graphics/SVG/1.1/DTD/svg11.dtd">
<svg version="1.1" id="Layer_1" xmlns="http://www.w3.org/2000/svg" xmlns:xlink="http://www.w3.org/1999/xlink" x="0px" y="0px"
	 viewBox="0 0 1024 768" enable-background="new 0 0 1024 768" xml:space="preserve">
<line fill="none" stroke="#F15A24" stroke-width="13" stroke-miterlimit="10" x1="420" y1="90.9" x2="466.2" y2="90.9"/>
<line fill="none" stroke="#006837" stroke-width="13" stroke-miterlimit="10" x1="849.1" y1="99.8" x2="813.7" y2="13"/>
<line fill="none" stroke="#F7931E" stroke-width="13" stroke-miterlimit="10" x1="554.8" y1="121.9" x2="554.8" y2="25.6"/>
<line fill="none" stroke="#FBB03B" stroke-width="13" stroke-miterlimit="10" x1="629.6" y1="141.2" x2="629.6" y2="28"/>
<line fill="none" stroke="#00FF00" stroke-width="13" stroke-miterlimit="10" x1="157.3" y1="27.2" x2="157.3" y2="167.4"/>
<line fill="none" stroke="#FF00FF" stroke-width="13" stroke-miterlimit="10" x1="315.1" y1="27.2" x2="315.1" y2="180.4"/>
<line fill="none" stroke="#0000FF" stroke-width="13" stroke-miterlimit="10" x1="157.3" y1="97.3" x2="200.4" y2="97.3"/>
<line fill="none" stroke="#603813" stroke-width="13" stroke-miterlimit="10" x1="698.2" y1="55.2" x2="772.3" y2="138.1"/>
<path d="M781.9,111.6c3.6,7.3,5.4,15.9,5.4,28.7c0,33.5-18.6,52.2-52.5,52.2c-37.4,0-53.2-21-53.2-44v-18.6h37.9v12.3
	c0,10,3.2,18.9,16.3,18.9c9.6,0,13.7-8.6,13.7-17.5c0-7.6-3.2-12.6-8.2-16.9L781.9,111.6z M686.9,79c-2-5.6-3.2-12.2-3.2-19.9
	c0-32.8,19.7-49.5,51.4-49.5c35.5,0,53.8,23.7,51.9,56.6h-37.7c-0.5-10.2,0-24.3-13.4-25.1c-8.4-0.8-13.3,3.9-14.2,11.7
	c-0.6,5.2,0.5,9.2,2.6,12.6L686.9,79z"/>
<line fill="none" stroke="#FF0000" stroke-width="13" stroke-miterlimit="10" x1="30.2" y1="52.6" x2="30.2" y2="140.6"/>
<line fill="none" stroke="#FFFF00" stroke-width="13" stroke-miterlimit="10" x1="63.6" y1="121.1" x2="111.3" y2="121.1"/>
<path d="M48.7,142.8c0,9.8,4.4,15.6,15.1,15.6c13.9,0,14.5-11.2,14.5-22.3v-13.7l41,1.5v61.9h-28l-1.8-15.6h-0.5
	c-8.4,14.8-17.7,19.5-35.3,19.5c-34.7,0-45.8-24-45.8-55.5L48.7,142.8z M7.8,62.7c0-38,17.4-55.5,54.9-55.5
	c34.9,0,55.5,14.8,55.5,50.5v13.1H77.4v-9.6c0-14.8-1.8-22.3-12.8-22.7c-12.8-0.2-13.3,5.6-15.2,10.6L7.8,62.7z"/>
<path d="M185.9,150.5h61.6v32.3H145.5v-32.2L185.9,150.5L185.9,150.5z"/>
<path d="M265.4,43V10.9h99.4V43h-58.9H265.4z"/>
<path d="M648.7,124.9c0,33.5-9.6,59.8-56.2,59.8s-56.2-26.3-56.2-59.8V99.8l40.2,20.8v16c0,13.4,5.2,21.3,16,21.3s16-7.9,16-21.3
	L648.7,124.9z"/>
<g>
	<path d="M852.5,72.9h0.5l19.6-63.4h43.1l-43.3,103.6v67.3h-40.2v-67.3"/>
</g>
<line fill="none" stroke="#C1272D" stroke-width="13" stroke-miterlimit="10" x1="419.2" y1="157.9" x2="419.2" y2="23.9"/>
<g>
	<path d="M461,78c7.5-2.8,10.7-9.6,10.7-18.6c0-8.9-4.8-18.4-19.4-18.4h-51.5V11.2h62.5c29.2,0,48.5,13.6,48.5,42.1
		c0,19.9-10.6,35.4-26.8,38.5v0.5c12.7,1.9,31.6,7.4,31.6,42.4c0,20.1-8.9,47.4-56.5,47.4h-59.3l1-29.7h51.4
		c16.3,0,21.8-10.3,21.8-22.3c0-13.2-5.3-20.4-13.6-22.9"/>
</g>
<line fill="none" stroke="#00FFFF" stroke-width="13" stroke-miterlimit="10" x1="152" y1="27.2" x2="238.9" y2="27.2"/>
</svg>
