<?xml version="1.0" encoding="utf-8"?>
<!-- Generator: Adobe Illustrator 18.0.0, SVG Export Plug-In . SVG Version: 6.00 Build 0)  -->
<!DOCTYPE svg PUBLIC "-//W3C//DTD SVG 1.1//EN" "http://www.w3.org/Graphics/SVG/1.1/DTD/svg11.dtd">
<svg version="1.1" id="Layer_1" xmlns="http://www.w3.org/2000/svg" xmlns:xlink="http://www.w3.org/1999/xlink" x="0px" y="0px"
	 viewBox="0 0 1024 768" enable-background="new 0 0 1024 768" xml:space="preserve">
<line fill="none" stroke="#F7931E" stroke-width="13" stroke-miterlimit="10" x1="37" y1="186" x2="37" y2="15"/>
<line fill="none" stroke="#F7931E" stroke-width="13" stroke-miterlimit="10" x1="486.9" y1="120.8" x2="486.9" y2="14.1"/>
<line fill="none" stroke="#F7931E" stroke-width="13" stroke-miterlimit="10" x1="324.8" y1="185.1" x2="324.8" y2="14.1"/>
<line fill="none" stroke="#F7931E" stroke-width="13" stroke-miterlimit="10" x1="167.5" y1="185.1" x2="167.5" y2="14.1"/>
<line fill="none" stroke="#FBB03B" stroke-width="13" stroke-miterlimit="10" x1="569.7" y1="142.2" x2="569.7" y2="16.6"/>
<line fill="none" stroke="#00FF00" stroke-width="13" stroke-miterlimit="10" x1="638.4" y1="21.9" x2="638.4" y2="195.9"/>
<line fill="none" stroke="#00FF00" stroke-width="13" stroke-miterlimit="10" x1="119.9" y1="261.8" x2="119.9" y2="384.9"/>
<line fill="none" stroke="#00FF00" stroke-width="13" stroke-miterlimit="10" x1="336.3" y1="258.6" x2="305.1" y2="380.8"/>
<line fill="none" stroke="#00FF00" stroke-width="13" stroke-miterlimit="10" x1="317.5" y1="332.4" x2="356.2" y2="330.2"/>
<line fill="none" stroke="#0000FF" stroke-width="13" stroke-miterlimit="10" x1="623.8" y1="298.8" x2="623.8" y2="356.8"/>
<line fill="none" stroke="#00FFFF" stroke-width="13" stroke-miterlimit="10" x1="568.2" y1="275.1" x2="568.2" y2="350.7"/>
<line fill="none" stroke="#FF00FF" stroke-width="13" stroke-miterlimit="10" x1="666.5" y1="257.4" x2="666.5" y2="380.9"/>
<line fill="none" stroke="#C1272D" stroke-width="13" stroke-miterlimit="10" x1="727.3" y1="250.8" x2="727.3" y2="367.8"/>
<line fill="none" stroke="#F7931E" stroke-width="13" stroke-miterlimit="10" x1="166.6" y1="95.6" x2="218.4" y2="95.6"/>
<line fill="none" stroke="#F7931E" stroke-width="13" stroke-miterlimit="10" x1="31.3" y1="260.6" x2="87.3" y2="260.6"/>
<line fill="none" stroke="#F7931E" stroke-width="13" stroke-miterlimit="10" x1="30.7" y1="321.9" x2="54.7" y2="321.9"/>
<line fill="none" stroke="#F7931E" stroke-width="13" stroke-miterlimit="10" x1="218" y1="367.9" x2="218" y2="251.9"/>
<line fill="none" stroke="#F7931E" stroke-width="13" stroke-miterlimit="10" x1="220" y1="262.6" x2="284.7" y2="262.6"/>
<line fill="none" stroke="#F7931E" stroke-width="13" stroke-miterlimit="10" x1="219.3" y1="317.9" x2="242" y2="317.9"/>
<line fill="none" stroke="#F7931E" stroke-width="13" stroke-miterlimit="10" x1="418.7" y1="249.9" x2="418.7" y2="376.6"/>
<line fill="none" stroke="#F7931E" stroke-width="13" stroke-miterlimit="10" x1="420.7" y1="340.6" x2="479.3" y2="262.6"/>
<path d="M21.7,176.8c8.1,9.5,20.1,14.6,37.8,14.6c16.7,0,32.8-4.6,39.5-21h0.5l1,17.4H130V89.5H69.8v28.7H90v5.9
	c0,25.1-5.1,38.5-19.8,38.5c-6,0-10.2-2-13.2-6.7L21.7,176.8z"/>
<path d="M52.7,49.7c2.4-14.1,7.4-20,17.5-20c15.9,0,17.2,18.7,17.2,30.5H129c0-20.8-2.3-59.3-58-59.3C46,1,30.5,7.6,21,19.5
	L52.7,49.7z"/>
<path d="M152.6,38.4V4.6h106v33.8h-62.9C195.7,38.4,152.6,38.4,152.6,38.4z M195.7,152.9h65.7v34.9H152.6v-34.9H195.7z"/>
<path d="M307.6,39.5h-38.5V4.6h120.1v34.9h-38.5H307.6z"/>
<path d="M44.9,326.7V381H14.6V251.4h30.3V326.7z"/>
<path d="M236.6,356.6h46.5V381h-77v-24.4H236.6z"/>
<path d="M459.3,307.3l38.1,73.7h-34.3l-23.4-48.8"/>
<path d="M591,124.1c0,37.1-10.6,66.3-62.3,66.3s-62.3-29.2-62.3-66.3V96.2l44.6,23.1v17.8c0,14.9,5.8,23.6,17.8,23.6
	c11.9,0,17.8-8.8,17.8-23.6L591,124.1z"/>
<path d="M658.4,83.2h15.1c12.8,0,15.9-11.8,15.9-23.4c0-22.4-9.2-23.4-31-22.8l0.1-34h20.3c36.3,0,54.4,14.5,54.4,52.1
	c0,20.1-4.8,34.5-23.4,43.1v0.5c12.4,2.7,21.1,11.3,21.9,24.5c1.2,15.1,1.5,47.6,4.1,59.7c1,2.6,2.3,4.8,4.2,6.5v2.6h-48.3
	c-1.2-3.5-2.3-7.1-2.6-10.9c-0.8-16.6,0.3-32.2-1-43.8c-1.2-11.6-4.8-19.2-15.1-19.9h-14.5V83.2H658.4z"/>
<path d="M134,305.2h10.7c9,0,11.3-8.4,11.3-16.5c0-15.9-6.5-16.5-21.9-16.2l0.1-24.1h14.3c25.7,0,38.5,10.3,38.5,36.8
	c0,14.2-3.4,24.4-16.5,30.5v0.4c8.8,1.9,14.9,8,15.5,17.3c0.9,10.7,1.1,33.7,2.9,42.2c0.7,1.8,1.6,3.4,3,4.6v1.8h-34.2
	c-0.9-2.5-1.6-5-1.8-7.7c-0.6-11.7,0.2-22.8-0.7-31s-3.4-13.6-10.7-14h-10.3L134,305.2L134,305.2z"/>
<path d="M332.8,251.9h24.5l32.1,128.9H358l-4.7-24.6L332.8,251.9z"/>
<path d="M582.2,325.5c0.6,27.2,2.6,36.2,13.6,36.2s11.7-11,11.7-18.5l33.4,7.4c-2.5,22.8-14.9,34.4-45.1,34.4
	c-34.2,0-43.4-11-45.6-43.2L582.2,325.5z M608.8,312.9c0-33.1-2.1-40.6-13.3-40.6c-10.8,0-12.2,7.4-12.2,23.2l-33.9-7.9
	c0-25,16.5-38.8,46.2-38.8c29.6,0,47.6,12.5,45.6,47.5L608.8,312.9z"/>
<path d="M657.2,250.9h31.4l50.1,129.9h-31.2L657.2,250.9z"/>
</svg>
