<?xml version="1.0" encoding="utf-8"?>
<!-- Generator: Adobe Illustrator 18.0.0, SVG Export Plug-In . SVG Version: 6.00 Build 0)  -->
<!DOCTYPE svg PUBLIC "-//W3C//DTD SVG 1.1//EN" "http://www.w3.org/Graphics/SVG/1.1/DTD/svg11.dtd">
<svg version="1.1" id="Layer_1" xmlns="http://www.w3.org/2000/svg" xmlns:xlink="http://www.w3.org/1999/xlink" x="0px" y="0px"
	 viewBox="0 0 1024 768" enable-background="new 0 0 1024 768" xml:space="preserve">
<line fill="none" stroke="#FF360D" stroke-width="13" stroke-miterlimit="10" x1="30.5" y1="251.7" x2="30.5" y2="19.2"/>
<line fill="none" stroke="#75F5FF" stroke-width="13" stroke-miterlimit="10" x1="642.2" y1="163" x2="642.2" y2="17.9"/>
<line fill="none" stroke="#0FFF97" stroke-width="13" stroke-miterlimit="10" x1="421.8" y1="250.5" x2="421.8" y2="17.9"/>
<line fill="none" stroke="#FFDD05" stroke-width="13" stroke-miterlimit="10" x1="207.9" y1="250.5" x2="207.9" y2="17.9"/>
<line fill="none" stroke="#7BAFFF" stroke-width="13" stroke-miterlimit="10" x1="754.8" y1="192.1" x2="754.8" y2="21.3"/>
<line fill="none" stroke="#C175FF" stroke-width="13" stroke-miterlimit="10" x1="848.2" y1="28.6" x2="848.2" y2="265.2"/>
<line fill="none" stroke="#61C500" stroke-width="13" stroke-miterlimit="10" x1="143.2" y1="354.8" x2="143.2" y2="522.2"/>
<line fill="none" stroke="#BC29FF" stroke-width="13" stroke-miterlimit="10" x1="437.4" y1="350.4" x2="395" y2="516.6"/>
<line fill="none" stroke="#7400DF" stroke-width="13" stroke-miterlimit="10" x1="411.8" y1="449.3" x2="464.6" y2="449.2"/>
<line fill="none" stroke="#0000FF" stroke-width="13" stroke-miterlimit="10" x1="828.4" y1="405.1" x2="828.4" y2="484"/>
<line fill="none" stroke="#00FFFF" stroke-width="13" stroke-miterlimit="10" x1="752.8" y1="372.9" x2="752.8" y2="475.7"/>
<line fill="none" stroke="#00164C" stroke-width="13" stroke-miterlimit="10" x1="886.5" y1="348.8" x2="886.5" y2="516.7"/>
<line fill="none" stroke="#233400" stroke-width="13" stroke-miterlimit="10" x1="969.1" y1="339.8" x2="969.1" y2="498.9"/>
<line fill="none" stroke="#B4E100" stroke-width="13" stroke-miterlimit="10" x1="206.7" y1="128.8" x2="277.1" y2="128.8"/>
<line fill="none" stroke="#CE4A00" stroke-width="13" stroke-miterlimit="10" x1="22.7" y1="353.1" x2="108.4" y2="353.1"/>
<line fill="none" stroke="#D7CC00" stroke-width="13" stroke-miterlimit="10" x1="21.9" y1="436.5" x2="76.4" y2="436.5"/>
<line fill="none" stroke="#009EAA" stroke-width="13" stroke-miterlimit="10" x1="276.6" y1="499" x2="276.6" y2="341.3"/>
<line fill="none" stroke="#008936" stroke-width="13" stroke-miterlimit="10" x1="277.3" y1="348.9" x2="365.3" y2="348.9"/>
<line fill="none" stroke="#3C00E1" stroke-width="13" stroke-miterlimit="10" x1="278.4" y1="431.1" x2="309.2" y2="431.1"/>
<line fill="none" stroke="#FF7799" stroke-width="13" stroke-miterlimit="10" x1="549.5" y1="338.6" x2="549.5" y2="510.9"/>
<line fill="none" stroke="#620026" stroke-width="13" stroke-miterlimit="10" x1="552.2" y1="461.9" x2="631.9" y2="355.9"/>
<path d="M9.7,239.2C20.7,252.1,37,259,61.1,259c22.7,0,44.6-6.3,53.7-28.6h0.7l1.4,23.7h40.1V120.5H75.1v39h27.5v8
	c0,34.1-6.9,52.4-26.9,52.4c-8.2,0-13.9-2.7-17.9-9.1L9.7,239.2z"/>
<path d="M51.8,66.4c3.3-19.2,10.1-27.2,23.8-27.2C97.2,39.2,99,64.6,99,80.6h56.6c0-28.3-3.1-80.6-78.9-80.6
	c-34,0.1-55.1,9.1-68,25.3L51.8,66.4z"/>
<path d="M187.7,51V5h144.1v46h-85.5C246.3,51,187.7,51,187.7,51z M246.3,206.7h89.3v47.5H187.7v-47.5H246.3z"/>
<path d="M398.4,52.5h-52.4V5h163.3v47.5H457H398.4z"/>
<path d="M41.2,443v73.8H0V340.6h41.2V443z"/>
<path d="M301.9,483.7h63.2v33.2H260.4v-33.2H301.9z"/>
<path d="M604.7,416.6l51.8,100.2h-46.6l-31.8-66.4"/>
<path d="M783.8,167.5c0,50.4-14.4,90.2-84.7,90.2s-84.7-39.7-84.7-90.2v-37.9L675,161v24.2c0,20.3,7.9,32.1,24.2,32.1
	c16.2,0,24.2-12,24.2-32.1L783.8,167.5z"/>
<path d="M875.4,111.9H896c17.4,0,21.6-16,21.6-31.8c0-30.5-12.5-31.8-42.2-31l0.1-46.2h27.6c49.4,0,74,19.7,74,70.8
	c0,27.3-6.5,46.9-31.8,58.6v0.7c16.9,3.7,28.7,15.4,29.8,33.3c1.6,20.5,2,64.7,5.6,81.2c1.4,3.5,3.1,6.5,5.7,8.8v3.5h-65.7
	c-1.6-4.8-3.1-9.7-3.5-14.8c-1.1-22.6,0.4-43.8-1.4-59.6c-1.6-15.8-6.5-26.1-20.5-27.1h-19.7v-46.5H875.4z"/>
<path d="M162.4,413.8h14.5c12.2,0,15.4-11.4,15.4-22.4c0-21.6-8.8-22.4-29.8-22l0.1-32.8h19.4c34.9,0,52.4,14,52.4,50
	c0,19.3-4.6,33.2-22.4,41.5v0.5c12,2.6,20.3,10.9,21.1,23.5c1.2,14.5,1.5,45.8,3.9,57.4c1,2.4,2.2,4.6,4.1,6.3v2.4h-46.5
	c-1.2-3.4-2.2-6.8-2.4-10.5c-0.8-15.9,0.3-31-1-42.2c-1.2-11.2-4.6-18.5-14.5-19h-14L162.4,413.8L162.4,413.8z"/>
<path d="M432.7,341.3H466l43.6,175.3H467l-6.4-33.5L432.7,341.3z"/>
<path d="M771.8,441.4c0.8,37,3.5,49.2,18.5,49.2s15.9-15,15.9-25.2l45.4,10.1c-3.4,31-20.3,46.8-61.3,46.8c-46.5,0-59-15-62-58.7
	L771.8,441.4z M808,424.3c0-45-2.9-55.2-18.1-55.2c-14.7,0-16.6,10.1-16.6,31.5l-46.1-10.7c0-34,22.4-52.8,62.8-52.8
	c40.3,0,64.7,17,62,64.6L808,424.3z"/>
<path d="M873.8,340h42.7l68.1,176.6h-42.4L873.8,340z"/>
</svg>
