<?xml version="1.0" encoding="utf-8"?>
<!-- Generator: Adobe Illustrator 18.0.0, SVG Export Plug-In . SVG Version: 6.00 Build 0)  -->
<!DOCTYPE svg PUBLIC "-//W3C//DTD SVG 1.1//EN" "http://www.w3.org/Graphics/SVG/1.1/DTD/svg11.dtd">
<svg version="1.1" id="Layer_1" xmlns="http://www.w3.org/2000/svg" xmlns:xlink="http://www.w3.org/1999/xlink" x="0px" y="0px"
	 viewBox="0 0 1024 768" enable-background="new 0 0 1024 768" xml:space="preserve">
<path d="M531.6,246h100.2v54.4H462.2V246L531.6,246L531.6,246z"/>
<path d="M720.9,249.3h20.2c32.2,0,43.3-12.7,43.3-101c0-71.7-5.8-91.1-42.5-91.1h-21V5.9h35c68.5,0,97.7,35.5,97.7,137.8
	c0,106.9-13.6,156.7-104.8,156.7h-28v-51.1H720.9z"/>
<path d="M328.4,327.9h37.7v160.3h-37.7V327.9z"/>
<line fill="none" stroke="#008E7C" stroke-width="13" stroke-miterlimit="10" x1="662.7" y1="340.2" x2="742.9" y2="340.2"/>
<line fill="none" stroke="#7A9300" stroke-width="13" stroke-miterlimit="10" x1="658.3" y1="475.9" x2="737.4" y2="475.9"/>
<line fill="none" stroke="#47001B" stroke-width="13" stroke-miterlimit="10" x1="665" y1="406.6" x2="713.7" y2="406.6"/>
<path d="M677.1,487.5h-36.7V329.8h36.7V487.5z"/>
<line fill="none" stroke="#00FFFF" stroke-width="13" stroke-miterlimit="10" x1="261.6" y1="76.7" x2="261.6" y2="215.8"/>
<line fill="none" stroke="#0000FF" stroke-width="13" stroke-miterlimit="10" x1="375.4" y1="112.5" x2="375.4" y2="243.1"/>
<path d="M291,172.7c1.2,61.3,5.3,81.5,27.6,81.5c22.4,0,23.9-24.9,23.9-41.7l67.7,16.7c-5.1,51.4-30.2,77.5-91.4,77.5
	c-69.4,0-87.9-24.9-92.5-97.3L291,172.7z M344.9,144.3c0-74.6-4.2-91.4-27-91.4c-21.9,0-24.6,16.7-24.6,52.3l-68.8-17.8
	c0-56.3,33.5-87.4,93.6-87.4s96.5,28.2,92.5,107.1L344.9,144.3z"/>
<line fill="none" stroke="#FF3A01" stroke-width="13" stroke-miterlimit="10" x1="38" y1="76.7" x2="38" y2="224.8"/>
<line fill="none" stroke="#4C84FF" stroke-width="13" stroke-miterlimit="10" x1="483.3" y1="29.6" x2="483.3" y2="267"/>
<line fill="none" stroke="#8500AD" stroke-width="13" stroke-miterlimit="10" x1="682.2" y1="20.4" x2="682.2" y2="278.4"/>
<path d="M235.1,460.6h11c17.6,0,23.6-6.9,23.6-55c0-39.1-3.1-49.6-23.1-49.6h-11.4v-27.8h19c37.2,0,53.2,19.3,53.2,74.9
	c0,58.1-7.4,85.3-57,85.3h-15.2v-27.8H235.1z"/>
<line fill="none" stroke="#6A7C00" stroke-width="13" stroke-miterlimit="10" x1="214.1" y1="336" x2="214.1" y2="476.4"/>
<line fill="none" stroke="#FFFF00" stroke-width="13" stroke-miterlimit="10" x1="94.1" y1="192.1" x2="174.5" y2="192.1"/>
<path d="M69.1,228.7c0,16.6,7.4,26.2,25.4,26.2c23.5,0,24.4-18.8,24.4-37.7V194l69,2.6V301h-47l-3.2-26.2h-0.9
	c-14.2,25-29.8,32.8-59.5,32.8C18.9,307.6,0,267.1,0,214L69.1,228.7z M0.1,93.6C0.1,29.7,29.6,0,92.6,0c58.9,0,93.6,25,93.6,85.1v22
	h-68.8V91c0-25-3.2-37.7-21.6-38.1c-21.6-0.4-22.4,9.5-25.6,17.8L0.1,93.6z"/>
<line fill="none" stroke="#00966E" stroke-width="13" stroke-miterlimit="10" x1="412.6" y1="365" x2="412.6" y2="445.6"/>
<line fill="none" stroke="#91003C" stroke-width="13" stroke-miterlimit="10" x1="443.1" y1="427.8" x2="486.9" y2="427.8"/>
<path d="M429.5,447.7c0,9,4.1,14.3,13.9,14.3c12.7,0,13.2-10.3,13.2-20.5v-12.6l37.6,1.4V487h-25.6l-1.7-14.3h-0.5
	c-7.7,13.6-16.2,17.8-32.4,17.8c-31.8,0-42-22-42-51L429.5,447.7z M391.9,374.1c0-34.8,16.1-51,50.3-51c32,0,51,13.6,51,46.4v12
	h-37.5v-8.8c0-13.6-1.7-20.5-11.7-20.8c-11.7-0.2-12.2,5.2-14,9.6L391.9,374.1z"/>
<line fill="none" stroke="#8FF800" stroke-width="13" stroke-miterlimit="10" x1="537.1" y1="365" x2="537.1" y2="445.6"/>
<line fill="none" stroke="#6F6DFF" stroke-width="13" stroke-miterlimit="10" x1="567.7" y1="427.8" x2="611.5" y2="427.8"/>
<path d="M554.1,447.7c0,9,4.1,14.3,13.9,14.3c12.7,0,13.2-10.3,13.2-20.5v-12.6l37.6,1.4V487h-25.6l-1.7-14.3h-0.5
	c-7.7,13.6-16.2,17.8-32.4,17.8c-31.8,0-42-22-42-51L554.1,447.7z M516.5,374.1c0-34.8,16.1-51,50.3-51c32,0,51,13.6,51,46.4v12
	h-37.5v-8.8c0-13.6-1.7-20.5-11.7-20.8c-11.7-0.2-12.2,5.2-14,9.6L516.5,374.1z"/>
<line fill="none" stroke="#00FF00" stroke-width="13" stroke-miterlimit="10" x1="776.1" y1="344.8" x2="776.1" y2="494.3"/>
<path d="M793.1,397.5h13c11,0,13.6-10.1,13.6-20c0-19.3-7.9-20-26.6-19.7l0.1-29.2h17.4c31.2,0,46.7,12.5,46.7,44.8
	c0,17.3-4.1,29.7-20,37v0.5c10.6,2.3,18.1,9.6,18.8,21c1,13,1.2,40.8,3.5,51.3c0.9,2.2,2,4.1,3.6,5.6v2.2h-41.4
	c-1-3.1-2-6.1-2.2-9.4c-0.7-14.2,0.2-27.7-0.9-37.6c-1-9.9-4.1-16.4-13-17.1h-12.5L793.1,397.5L793.1,397.5z"/>
</svg>
