<?xml version="1.0" encoding="utf-8"?>
<!-- Generator: Adobe Illustrator 18.0.0, SVG Export Plug-In . SVG Version: 6.00 Build 0)  -->
<!DOCTYPE svg PUBLIC "-//W3C//DTD SVG 1.1//EN" "http://www.w3.org/Graphics/SVG/1.1/DTD/svg11.dtd">
<svg version="1.1" id="Layer_1" xmlns="http://www.w3.org/2000/svg" xmlns:xlink="http://www.w3.org/1999/xlink" x="0px" y="0px"
	 viewBox="0 0 1024 768" enable-background="new 0 0 1024 768" xml:space="preserve">
<path d="M628.9,291h118.5v64.4H546.8V291H628.9L628.9,291z"/>
<path d="M852.9,294.9h23.9c38.1,0,51.2-15,51.2-119.5c0-84.8-6.9-107.8-50.3-107.8h-24.8V7h41.4c81,0,115.6,42,115.6,163
	c0,126.5-16.1,185.4-124,185.4h-33.1v-60.5L852.9,294.9L852.9,294.9z"/>
<path d="M388.5,387.9h44.6v189.6h-44.6V387.9z"/>
<line fill="none" stroke="#008E7C" stroke-width="13" stroke-miterlimit="10" x1="784" y1="402.5" x2="878.9" y2="402.5"/>
<line fill="none" stroke="#7A9300" stroke-width="13" stroke-miterlimit="10" x1="778.8" y1="563" x2="872.4" y2="563"/>
<line fill="none" stroke="#47001B" stroke-width="13" stroke-miterlimit="10" x1="786.7" y1="481" x2="844.3" y2="481"/>
<path d="M801,576.7h-43.4V390.2H801V576.7z"/>
<line fill="none" stroke="#00FFFF" stroke-width="13" stroke-miterlimit="10" x1="309.5" y1="90.7" x2="309.5" y2="255.3"/>
<line fill="none" stroke="#0000FF" stroke-width="13" stroke-miterlimit="10" x1="444.1" y1="133.1" x2="444.1" y2="287.6"/>
<path d="M344.3,204.3c1.4,72.5,6.3,96.4,32.7,96.4c26.5,0,28.3-29.5,28.3-49.3l80.1,19.8c-6,60.8-35.7,91.7-108.1,91.7
	c-82.1,0-104-29.5-109.4-115.1L344.3,204.3z M408,170.7c0-88.3-5-108.1-31.9-108.1c-25.9,0-29.1,19.8-29.1,61.9l-81.4-21.1
	C265.6,36.8,305.2,0,376.3,0s114.2,33.4,109.4,126.7L408,170.7z"/>
<line fill="none" stroke="#FF3A01" stroke-width="13" stroke-miterlimit="10" x1="45" y1="90.7" x2="45" y2="265.9"/>
<line fill="none" stroke="#4C84FF" stroke-width="13" stroke-miterlimit="10" x1="571.8" y1="35" x2="571.8" y2="315.9"/>
<line fill="none" stroke="#8500AD" stroke-width="13" stroke-miterlimit="10" x1="807.1" y1="24.1" x2="807.1" y2="329.4"/>
<path d="M278.1,544.9h13c20.8,0,27.9-8.2,27.9-65.1c0-46.3-3.7-58.7-27.3-58.7h-13.5v-32.9h22.5c44,0,62.9,22.8,62.9,88.6
	c0,68.7-8.8,100.9-67.4,100.9h-18v-32.9L278.1,544.9L278.1,544.9z"/>
<line fill="none" stroke="#6A7C00" stroke-width="13" stroke-miterlimit="10" x1="253.3" y1="397.5" x2="253.3" y2="563.6"/>
<line fill="none" stroke="#FFFF00" stroke-width="13" stroke-miterlimit="10" x1="111.3" y1="227.3" x2="206.4" y2="227.3"/>
<path d="M81.7,270.6c0,19.6,8.8,31,30,31c27.8,0,28.9-22.2,28.9-44.6v-27.4l81.6,3.1v123.5h-55.6l-3.8-31h-1.1
	c-16.8,29.6-35.3,38.8-70.4,38.8C22.4,363.9,0,316,0,253.2L81.7,270.6z M0.1,110.7C0.1,35.1,35,0,109.5,0
	c69.7,0,110.7,29.6,110.7,100.7v26h-81.4v-19c0-29.6-3.8-44.6-25.6-45.1C87.8,62.1,86.8,73.8,83,83.6L0.1,110.7z"/>
<line fill="none" stroke="#00966E" stroke-width="13" stroke-miterlimit="10" x1="488.1" y1="431.8" x2="488.1" y2="527.2"/>
<line fill="none" stroke="#91003C" stroke-width="13" stroke-miterlimit="10" x1="524.2" y1="506.1" x2="576" y2="506.1"/>
<path d="M508.1,529.6c0,10.6,4.9,16.9,16.4,16.9c15,0,15.6-12.2,15.6-24.3v-14.9l44.5,1.7v67.1h-30.3l-2-16.9h-0.6
	c-9.1,16.1-19.2,21.1-38.3,21.1c-37.6,0-49.7-26-49.7-60.3L508.1,529.6z M463.6,442.6c0-41.2,19-60.3,59.5-60.3
	c37.9,0,60.3,16.1,60.3,54.9v14.2h-44.4v-10.4c0-16.1-2-24.3-13.8-24.6c-13.8-0.2-14.4,6.2-16.6,11.4L463.6,442.6z"/>
<line fill="none" stroke="#8FF800" stroke-width="13" stroke-miterlimit="10" x1="635.4" y1="431.8" x2="635.4" y2="527.2"/>
<line fill="none" stroke="#6F6DFF" stroke-width="13" stroke-miterlimit="10" x1="671.6" y1="506.1" x2="723.4" y2="506.1"/>
<path d="M655.5,529.6c0,10.6,4.9,16.9,16.4,16.9c15,0,15.6-12.2,15.6-24.3v-14.9l44.5,1.7v67.1h-30.3l-2-16.9h-0.6
	c-9.1,16.1-19.2,21.1-38.3,21.1c-37.6,0-49.7-26-49.7-60.3L655.5,529.6z M611,442.6c0-41.2,19-60.3,59.5-60.3
	c37.9,0,60.3,16.1,60.3,54.9v14.2h-44.4v-10.4c0-16.1-2-24.3-13.8-24.6c-13.8-0.2-14.4,6.2-16.6,11.4L611,442.6z"/>
<line fill="none" stroke="#00FF00" stroke-width="13" stroke-miterlimit="10" x1="918.2" y1="407.9" x2="918.2" y2="584.8"/>
<path d="M938.3,470.3h15.4c13,0,16.1-11.9,16.1-23.7c0-22.8-9.3-23.7-31.5-23.3l0.1-34.5H959c36.9,0,55.2,14.8,55.2,53
	c0,20.5-4.9,35.1-23.7,43.8v0.6c12.5,2.7,21.4,11.4,22.2,24.8c1.2,15.4,1.4,48.3,4.1,60.7c1.1,2.6,2.4,4.9,4.3,6.6v2.6h-49
	c-1.2-3.7-2.4-7.2-2.6-11.1c-0.8-16.8,0.2-32.8-1.1-44.5c-1.2-11.7-4.9-19.4-15.4-20.2h-14.8L938.3,470.3L938.3,470.3z"/>
</svg>
