<?xml version="1.0" encoding="utf-8"?>
<!-- Generator: Adobe Illustrator 18.0.0, SVG Export Plug-In . SVG Version: 6.00 Build 0)  -->
<!DOCTYPE svg PUBLIC "-//W3C//DTD SVG 1.1//EN" "http://www.w3.org/Graphics/SVG/1.1/DTD/svg11.dtd">
<svg version="1.1" id="Layer_1" xmlns="http://www.w3.org/2000/svg" xmlns:xlink="http://www.w3.org/1999/xlink" x="0px" y="0px"
	 viewBox="0 0 1024 768" enable-background="new 0 0 1024 768" xml:space="preserve">
<path d="M593.2,224.2h81v44H537.1v-44H593.2z"/>
<path d="M746.3,226.9h16.3c26,0,35-10.3,35-81.7c0-58-4.7-73.7-34.4-73.7h-17V30.1h28.3c55.4,0,79,28.7,79,111.4
	c0,86.4-11,126.7-84.7,126.7h-22.6V226.9z"/>
<path d="M428.9,290.4h30.5V420h-30.5V290.4z"/>
<line fill="none" stroke="#C1272D" stroke-width="13" stroke-miterlimit="10" x1="648.2" y1="304.4" x2="713.1" y2="304.4"/>
<line fill="none" stroke="#C1272D" stroke-width="13" stroke-miterlimit="10" x1="695.7" y1="410.1" x2="759.6" y2="410.1"/>
<line fill="none" stroke="#C1272D" stroke-width="13" stroke-miterlimit="10" x1="701.1" y1="354.1" x2="740.5" y2="354.1"/>
<path d="M710.9,419.5h-29.7V292h29.7V419.5z"/>
<line fill="none" stroke="#00FFFF" stroke-width="13" stroke-miterlimit="10" x1="374.9" y1="87.3" x2="374.9" y2="199.8"/>
<line fill="none" stroke="#0000FF" stroke-width="13" stroke-miterlimit="10" x1="466.9" y1="116.3" x2="466.9" y2="221.9"/>
<path d="M398.7,164.9c1,49.6,4.3,65.9,22.3,65.9c18.1,0,19.3-20.1,19.3-33.7l54.7,13.5c-4.1,41.6-24.4,62.7-73.9,62.7
	c-56.1,0-71.1-20.1-74.8-78.7L398.7,164.9z M442.3,142c0-60.3-3.4-73.9-21.8-73.9c-17.7,0-19.9,13.5-19.9,42.3L345,96
	c0-45.5,27.1-70.7,75.7-70.7s78,22.8,74.8,86.6L442.3,142z"/>
<line fill="none" stroke="#FF0000" stroke-width="13" stroke-miterlimit="10" x1="194.1" y1="87.3" x2="194.1" y2="207.1"/>
<line fill="none" stroke="#FF0000" stroke-width="13" stroke-miterlimit="10" x1="554.2" y1="49.2" x2="554.2" y2="241.2"/>
<line fill="none" stroke="#FF0000" stroke-width="13" stroke-miterlimit="10" x1="715" y1="41.8" x2="715" y2="250.4"/>
<path d="M353.5,397.7h8.9c14.2,0,19.1-5.6,19.1-44.5c0-31.6-2.5-40.1-18.7-40.1h-9.2v-22.5h15.4c30.1,0,43,15.6,43,60.6
	c0,47-6,69-46.1,69h-12.3V397.7z"/>
<line fill="none" stroke="#FF0000" stroke-width="13" stroke-miterlimit="10" x1="336.5" y1="297" x2="336.5" y2="410.5"/>
<line fill="none" stroke="#FFFF00" stroke-width="13" stroke-miterlimit="10" x1="239.5" y1="180.6" x2="304.5" y2="180.6"/>
<path d="M219.3,210.2c0,13.4,6,21.2,20.5,21.2c19,0,19.7-15.2,19.7-30.5v-18.7l55.8,2.1v84.4h-38l-2.6-21.2h-0.7
	c-11.5,20.2-24.1,26.5-48.1,26.5c-47.2,0-62.5-32.7-62.5-75.7L219.3,210.2z M163.5,101c0-51.7,23.8-75.7,74.8-75.7
	c47.6,0,75.7,20.2,75.7,68.8v17.8h-55.6v-13c0-20.2-2.6-30.5-17.5-30.8c-17.5-0.3-18.1,7.7-20.7,14.4L163.5,101z"/>
<line fill="none" stroke="#FF0000" stroke-width="13" stroke-miterlimit="10" x1="497" y1="320.4" x2="497" y2="385.6"/>
<line fill="none" stroke="#FFFF00" stroke-width="13" stroke-miterlimit="10" x1="521.7" y1="371.2" x2="557.1" y2="371.2"/>
<path d="M510.7,387.3c0,7.3,3.3,11.6,11.2,11.6c10.3,0,10.7-8.3,10.7-16.6v-10.2l30.4,1.1v45.9h-20.7l-1.4-11.6h-0.4
	c-6.2,11-13.1,14.4-26.2,14.4c-25.7,0-34-17.8-34-41.2L510.7,387.3z M480.3,327.8c0-28.1,13-41.2,40.7-41.2
	c25.9,0,41.2,11,41.2,37.5v9.7h-30.3v-7.1c0-11-1.4-16.6-9.5-16.8c-9.5-0.2-9.9,4.2-11.3,7.8L480.3,327.8z"/>
<line fill="none" stroke="#FF0000" stroke-width="13" stroke-miterlimit="10" x1="597.7" y1="320.4" x2="597.7" y2="385.6"/>
<line fill="none" stroke="#FFFF00" stroke-width="13" stroke-miterlimit="10" x1="622.4" y1="371.2" x2="657.8" y2="371.2"/>
<path d="M611.4,387.3c0,7.3,3.3,11.6,11.2,11.6c10.3,0,10.7-8.3,10.7-16.6v-10.2l30.4,1.1v45.9H643l-1.4-11.6h-0.4
	c-6.2,11-13.1,14.4-26.2,14.4c-25.7,0-34-17.8-34-41.2L611.4,387.3z M581,327.8c0-28.1,13-41.2,40.7-41.2c25.9,0,41.2,11,41.2,37.5
	v9.7h-30.3v-7.1c0-11-1.4-16.6-9.5-16.8c-9.5-0.2-9.9,4.2-11.3,7.8L581,327.8z"/>
<line fill="none" stroke="#00FF00" stroke-width="13" stroke-miterlimit="10" x1="790.9" y1="304.1" x2="790.9" y2="425"/>
<path d="M804.7,346.7h10.5c8.9,0,11-8.2,11-16.2c0-15.6-6.4-16.2-21.5-15.9l0.1-23.6h14.1c25.2,0,37.8,10.1,37.8,36.2
	c0,14-3.3,24-16.2,29.9v0.4c8.6,1.9,14.6,7.8,15.2,17c0.8,10.5,1,33,2.8,41.5c0.7,1.8,1.6,3.3,2.9,4.5v1.8h-33.5
	c-0.8-2.5-1.6-4.9-1.8-7.6c-0.6-11.5,0.2-22.4-0.7-30.4c-0.8-8-3.3-13.3-10.5-13.8h-10.1L804.7,346.7L804.7,346.7z"/>
</svg>
