<?xml version="1.0" encoding="utf-8"?>
<!-- Generator: Adobe Illustrator 18.0.0, SVG Export Plug-In . SVG Version: 6.00 Build 0)  -->
<!DOCTYPE svg PUBLIC "-//W3C//DTD SVG 1.1//EN" "http://www.w3.org/Graphics/SVG/1.1/DTD/svg11.dtd">
<svg version="1.1" id="Layer_1" xmlns="http://www.w3.org/2000/svg" xmlns:xlink="http://www.w3.org/1999/xlink" x="0px" y="0px"
	 viewBox="0 0 1024 768" enable-background="new 0 0 1024 768" xml:space="preserve">
<g>
	<line fill="none" stroke="#FF0000" stroke-width="10" stroke-miterlimit="10" x1="105.6" y1="89.4" x2="105.6" y2="233"/>
	<line fill="none" stroke="#FF0000" stroke-width="10" stroke-miterlimit="10" x1="310.4" y1="238.7" x2="273.4" y2="89.4"/>
	<line fill="none" stroke="#FF0000" stroke-width="10" stroke-miterlimit="10" x1="470.6" y1="89.4" x2="533.2" y2="233"/>
	<line fill="none" stroke="#FF0000" stroke-width="10" stroke-miterlimit="10" x1="210.3" y1="279.7" x2="210.3" y2="419"/>
	<line fill="none" stroke="#FF0000" stroke-width="10" stroke-miterlimit="10" x1="357.1" y1="287.5" x2="394.1" y2="448.4"/>
	<line fill="none" stroke="#FF0000" stroke-width="10" stroke-miterlimit="10" x1="328.4" y1="385.8" x2="375.6" y2="385.8"/>
	<line fill="none" stroke="#FF0000" stroke-width="10" stroke-miterlimit="10" x1="593.3" y1="287.5" x2="538.6" y2="435.7"/>
	<line fill="none" stroke="#FF0000" stroke-width="10" stroke-miterlimit="10" x1="705.6" y1="287.5" x2="705.6" y2="429.3"/>
	<line fill="none" stroke="#FF0000" stroke-width="10" stroke-miterlimit="10" x1="875.4" y1="287.5" x2="824.3" y2="445"/>
	<line fill="none" stroke="#FF0000" stroke-width="10" stroke-miterlimit="10" x1="839.4" y1="393.7" x2="895.8" y2="393.7"/>
	<line fill="none" stroke="#FF0000" stroke-width="10" stroke-miterlimit="10" x1="621.3" y1="488.8" x2="658.3" y2="649.6"/>
	<line fill="none" stroke="#FF0000" stroke-width="10" stroke-miterlimit="10" x1="592.6" y1="587.1" x2="639.8" y2="587.1"/>
	<line fill="none" stroke="#FF0000" stroke-width="10" stroke-miterlimit="10" x1="231" y1="635.2" x2="285.8" y2="635.2"/>
	<line fill="none" stroke="#FF0000" stroke-width="10" stroke-miterlimit="10" x1="462" y1="518.9" x2="462" y2="635.2"/>
	<line fill="none" stroke="#0000FF" stroke-width="13" stroke-miterlimit="10" x1="399.1" y1="548.2" x2="399.1" y2="622.7"/>
	<line fill="none" stroke="#00FFFF" stroke-width="13" stroke-miterlimit="10" x1="327.6" y1="517.7" x2="327.6" y2="614.9"/>
</g>
<path d="M122.9,217.5h56.3v31H84v-31C84,217.5,122.9,217.5,122.9,217.5z"/>
<path d="M192,83h38.9v165.6H192V83z"/>
<path d="M305.6,210.9h0.5L326,83h41.7l-37.5,165.6H306L305.6,210.9z"/>
<path d="M380.9,83h38.9v165.6h-38.9V83z"/>
<path d="M478.9,248.6h-34.3V83h34.3V248.6z M521.7,83H558v165.6h-34.8L521.7,83z"/>
<path d="M584.9,83H615v80.9h-30.1V83z"/>
<path d="M235.1,413.5h56.3V445h-95.1v-31.5H235.1z"/>
<path d="M338,413.5l-5.7,31.5h-40.3l42.3-165.4H365L338,413.5z"/>
<path d="M546.5,445.2h-25l-36.4-165.4h41.7l19.7,127.9V445.2z"/>
<path d="M621.9,279.7h38.9v165.4h-38.9V279.7z"/>
<path d="M724.2,279.7h19c38.4,0,54.9,19.9,54.9,77.4c0,60-7.7,88.1-58.8,88.1h-15.1v-28.7h10.6c18.1,0,24.3-7.1,24.3-56.8
	c0-40.3-3.2-51.2-23.9-51.2H724L724.2,279.7L724.2,279.7z"/>
<path d="M882.8,383.5l-13.9-73.7v-30.1h24.9L935,445.2h-40.3l-6-31.5L882.8,383.5z"/>
<path d="M199.9,651V485.6h38.9V651H199.9z"/>
<path d="M443.9,510.3c7.3-16.8,21.6-28.1,50.2-28.1c34.3,0,53.1,14.8,53.1,53.7v7h-37.5c0-24.1-2.8-34.7-15.7-34.7
	c-12.4,0-15.8,9.4-16.6,35.4L443.9,510.3z M477.4,600.5c1.5,21.2,5.6,27.6,17.1,27.6c14.3,0,16.1-16.5,16.2-42.3h37.5v5.7
	c0,35.7-10,62.3-58.1,62.3c-20.2,0-32.8-6.1-40.7-16.7L477.4,600.5z"/>
<path d="M599.1,619.4l-5.7,31.5H553l42.3-165.4h30.3L599.1,619.4z"/>
<path d="M345.7,577.4c0.8,35,3.3,46.5,17.5,46.5c14.2,0,15.1-14.2,15.1-23.8l42.9,9.5c-3.2,29.3-19.1,44.2-58,44.2
	c-43.9,0-55.7-14.2-58.6-55.5L345.7,577.4z M379.9,561.3c0-42.5-2.7-52.1-17.1-52.1c-13.9,0-15.6,9.5-15.6,29.8l-43.5-10.1
	c0-32.1,21.2-49.9,59.3-49.9s61.2,16.1,58.6,61L379.9,561.3z"/>
</svg>
