<?xml version="1.0" encoding="utf-8"?>
<!-- Generator: Adobe Illustrator 18.0.0, SVG Export Plug-In . SVG Version: 6.00 Build 0)  -->
<!DOCTYPE svg PUBLIC "-//W3C//DTD SVG 1.1//EN" "http://www.w3.org/Graphics/SVG/1.1/DTD/svg11.dtd">
<svg version="1.1" id="Layer_1" xmlns="http://www.w3.org/2000/svg" xmlns:xlink="http://www.w3.org/1999/xlink" x="0px" y="0px"
	 viewBox="0 0 1024 768" enable-background="new 0 0 1024 768" xml:space="preserve">
<line fill="none" stroke="#FFFF00" stroke-width="13" stroke-miterlimit="10" x1="190.3" y1="22.4" x2="190.3" y2="183.3"/>
<line fill="none" stroke="#00FF00" stroke-width="13" stroke-miterlimit="10" x1="267.6" y1="22.4" x2="267.6" y2="187.2"/>
<line fill="none" stroke="#00FFFF" stroke-width="13" stroke-miterlimit="10" x1="398.8" y1="46.9" x2="398.8" y2="131.8"/>
<line fill="none" stroke="#0000FF" stroke-width="13" stroke-miterlimit="10" x1="468.3" y1="68.8" x2="468.3" y2="148.6"/>
<line fill="none" stroke="#FF00FF" stroke-width="13" stroke-miterlimit="10" x1="522.4" y1="13.4" x2="522.4" y2="183.3"/>
<line fill="none" stroke="#C1272D" stroke-width="13" stroke-miterlimit="10" x1="606.1" y1="4.3" x2="606.1" y2="165.3"/>
<line fill="none" stroke="#F15A24" stroke-width="13" stroke-miterlimit="10" x1="662.8" y1="46.9" x2="662.8" y2="137"/>
<line fill="none" stroke="#FBB03B" stroke-width="13" stroke-miterlimit="10" x1="785.1" y1="13.4" x2="785.1" y2="158.8"/>
<line fill="none" stroke="#8C6239" stroke-width="13" stroke-miterlimit="10" x1="785.7" y1="14.1" x2="879.6" y2="14.1"/>
<line fill="none" stroke="#603813" stroke-width="13" stroke-miterlimit="10" x1="785.7" y1="90" x2="839.8" y2="90"/>
<line fill="none" stroke="#F7931E" stroke-width="13" stroke-miterlimit="10" x1="696.9" y1="117" x2="745.7" y2="117"/>
<line fill="none" stroke="#006837" stroke-width="13" stroke-miterlimit="10" x1="913.7" y1="13.4" x2="913.7" y2="171.7"/>
<line fill="none" stroke="#FF0000" stroke-width="13" stroke-miterlimit="10" x1="17.1" y1="46.9" x2="93.1" y2="131.8"/>
<path d="M102.9,104.7c3.7,7.5,5.5,16.3,5.5,29.4c0,34.3-19,53.4-53.8,53.4C16.2,187.4,0,165.9,0,142.4v-19h38.8V136
	c0,10.3,3.3,19.3,16.7,19.3c9.8,0,14.1-8.8,14.1-17.9c0-7.8-3.2-12.9-8.4-17.3L102.9,104.7z M5.5,71.3C3.5,65.5,2.3,58.8,2.3,51
	c0-33.6,20.2-50.8,52.7-50.8c36.4,0,55.1,24.3,53.1,57.9H69.6c-0.6-10.4,0-24.9-13.7-25.7c-8.6-0.8-13.7,4-14.5,12
	c-0.6,5.4,0.6,9.4,2.7,12.9L5.5,71.3z"/>
<path d="M135.9,40.3V4.3h109v35.9H135.9z"/>
<path d="M286.4,80.4h14.3c12.1,0,15.1-11.2,15.1-22.1c0-21.2-8.8-22.1-29.4-21.6l0.2-32.2h19.2c34.3,0,51.5,13.7,51.5,49.3
	c0,19-4.5,32.7-22.1,40.8v0.6c11.7,2.6,20,10.7,20.8,23.2c1.2,14.3,1.4,45.1,3.9,56.5c0.9,2.4,2.2,4.5,4,6.2v2.4h-45.7
	c-1.2-3.3-2.2-6.7-2.4-10.3c-0.8-15.7,0.2-30.5-0.9-41.4c-1.2-11-4.5-18.2-14.3-18.8h-13.9V80.6h-0.2V80.4z"/>
<path d="M934.3,80.4h14.3c12.1,0,15.1-11.2,15.1-22.1c0-21.2-8.8-22.1-29.4-21.6l0.2-32.2h19.2c34.3,0,51.5,13.7,51.5,49.3
	c0,19-4.5,32.7-22.1,40.8v0.6c11.7,2.6,20,10.7,20.8,23.2c1.2,14.3,1.4,45.1,3.9,56.5c0.9,2.4,2.2,4.5,4,6.2v2.4H966
	c-1.2-3.3-2.2-6.7-2.4-10.3c-0.8-15.7,0.2-30.5-0.9-41.4s-4.5-18.2-14.3-18.8h-13.7V80.6h-0.3V80.4z"/>
<path d="M509.7,4.5h43.1l68.9,178.7h-42.9L509.7,4.5z"/>
<path d="M874.3,148.3v34.7h-98.8v-34.7H874.3z"/>
<path d="M416.8,105.5c0.8,37.5,3.2,49.8,16.9,49.8c13.7,0,14.5-15.2,14.5-25.5l41.3,10.2c-3.1,31.4-18.4,47.4-55.9,47.4
	c-42.3,0-53.7-15.2-56.5-59.4L416.8,105.5z M449.8,88.2c0-45.6-2.6-55.9-16.5-55.9c-13.4,0-15.1,10.2-15.1,31.9l-42-10.8
	C376.3,19,396.8,0,433.4,0s59,17.3,56.5,65.4L449.8,88.2z"/>
<path d="M681.6,139.3c0,10,4.5,15.9,15.5,15.9c14.3,0,14.8-11.4,14.8-22.9v-14.1l42,1.6v63.5h-28.6l-1.9-15.9h-0.6
	c-8.6,15.2-18.2,20-36.2,20c-35.5,0-47-24.6-47-56.9L681.6,139.3z M639.7,57.2c0-38.8,17.9-56.9,56.3-56.9
	c35.8,0,56.9,15.2,56.9,51.8v13.4h-41.8v-9.9c0-15.2-1.9-22.9-13.1-23.2c-13.1-0.2-13.7,5.8-15.6,10.8L639.7,57.2z"/>
</svg>
