<?xml version="1.0" encoding="utf-8"?>
<!-- Generator: Adobe Illustrator 18.0.0, SVG Export Plug-In . SVG Version: 6.00 Build 0)  -->
<!DOCTYPE svg PUBLIC "-//W3C//DTD SVG 1.1//EN" "http://www.w3.org/Graphics/SVG/1.1/DTD/svg11.dtd">
<svg version="1.1" id="Layer_1" xmlns="http://www.w3.org/2000/svg" xmlns:xlink="http://www.w3.org/1999/xlink" x="0px" y="0px"
	 viewBox="0 0 1024 768" enable-background="new 0 0 1024 768" xml:space="preserve">
<line fill="none" stroke="#FFFF00" stroke-width="13" stroke-miterlimit="10" x1="241" y1="28.4" x2="241" y2="232.2"/>
<line fill="none" stroke="#00FF00" stroke-width="13" stroke-miterlimit="10" x1="338.9" y1="28.4" x2="338.9" y2="237.1"/>
<line fill="none" stroke="#00FFFF" stroke-width="13" stroke-miterlimit="10" x1="505.2" y1="59.4" x2="505.2" y2="167"/>
<line fill="none" stroke="#0000FF" stroke-width="13" stroke-miterlimit="10" x1="593.2" y1="87.1" x2="593.2" y2="188.2"/>
<line fill="none" stroke="#FF00FF" stroke-width="13" stroke-miterlimit="10" x1="661.7" y1="17" x2="661.7" y2="232.2"/>
<line fill="none" stroke="#C1272D" stroke-width="13" stroke-miterlimit="10" x1="767.7" y1="5.5" x2="767.7" y2="209.4"/>
<line fill="none" stroke="#F15A24" stroke-width="13" stroke-miterlimit="10" x1="839.5" y1="59.4" x2="839.5" y2="173.5"/>
<line fill="none" stroke="#FBB03B" stroke-width="13" stroke-miterlimit="10" x1="994.4" y1="17" x2="994.4" y2="201.2"/>
<line fill="none" stroke="#8C6239" stroke-width="13" stroke-miterlimit="10" x1="995.2" y1="17.8" x2="1114.2" y2="17.8"/>
<line fill="none" stroke="#603813" stroke-width="13" stroke-miterlimit="10" x1="995.2" y1="114" x2="1063.7" y2="114"/>
<line fill="none" stroke="#F7931E" stroke-width="13" stroke-miterlimit="10" x1="882.7" y1="148.2" x2="944.6" y2="148.2"/>
<line fill="none" stroke="#006837" stroke-width="13" stroke-miterlimit="10" x1="1157.4" y1="17" x2="1157.4" y2="217.5"/>
<line fill="none" stroke="#FF0000" stroke-width="13" stroke-miterlimit="10" x1="21.7" y1="59.4" x2="117.9" y2="167"/>
<path d="M130.3,132.6c4.7,9.5,7,20.7,7,37.2c0,43.5-24.1,67.7-68.2,67.7C20.5,237.4,0,210.2,0,180.4v-24.1h49.2v16
	c0,13,4.2,24.5,21.2,24.5c12.4,0,17.8-11.1,17.8-22.7c0-9.9-4.1-16.3-10.6-21.9L130.3,132.6z M7,90.3C4.4,83,2.9,74.5,2.9,64.6
	C2.9,22,28.5,0.3,69.6,0.3c46.1,0,69.8,30.8,67.3,73.4H88.1c-0.7-13.2,0-31.5-17.4-32.6c-10.9-1-17.3,5.1-18.4,15.2
	c-0.8,6.8,0.7,11.9,3.4,16.3L7,90.3z"/>
<path d="M172.2,51V5.5h138.1V51H172.2z"/>
<path d="M362.8,101.9h18.1c15.3,0,19.1-14.2,19.1-28c0-26.9-11.1-28-37.2-27.4L363,5.7h24.3c43.5,0,65.2,17.4,65.2,62.5
	c0,24.1-5.7,41.4-28,51.7v0.7c14.8,3.3,25.3,13.5,26.3,29.4c1.5,18.1,1.8,57.1,4.9,71.6c1.1,3.1,2.8,5.7,5.1,7.8v3.1h-57.9
	c-1.5-4.2-2.8-8.5-3.1-13c-1-19.9,0.3-38.6-1.1-52.5c-1.5-13.9-5.7-23-18.1-23.8H363v-41.1H362.8z"/>
<path d="M1183.5,101.9h18.1c15.3,0,19.1-14.2,19.1-28c0-26.9-11.1-28-37.2-27.4l0.2-40.8h24.3c43.5,0,65.2,17.4,65.2,62.5
	c0,24.1-5.7,41.4-28,51.7v0.7c14.8,3.3,25.3,13.5,26.3,29.4c1.5,18.1,1.8,57.1,4.9,71.6c1.1,3.1,2.8,5.7,5.1,7.8v3.1h-57.9
	c-1.5-4.2-2.8-8.5-3.1-13c-1-19.9,0.3-38.6-1.1-52.5s-5.7-23-18.1-23.8h-17.4v-41.1H1183.5z"/>
<path d="M645.6,5.7h54.6L787.5,232h-54.3L645.6,5.7z"/>
<path d="M1107.4,187.9v44H982.2v-44H1107.4z"/>
<path d="M528,133.6c1,47.5,4.1,63.1,21.4,63.1c17.3,0,18.4-19.2,18.4-32.3l52.3,12.9c-3.9,39.8-23.3,60-70.8,60
	c-53.6,0-68-19.2-71.6-75.3L528,133.6z M569.8,111.7c0-57.7-3.3-70.8-20.9-70.8c-17,0-19.1,12.9-19.1,40.4l-53.2-13.7
	C476.6,24.1,502.6,0,549,0s74.7,21.9,71.6,82.8L569.8,111.7z"/>
<path d="M863.4,176.4c0,12.7,5.7,20.2,19.6,20.2c18.1,0,18.8-14.5,18.8-29v-17.8l53.2,2v80.4h-36.2l-2.4-20.2h-0.7
	c-10.9,19.2-23,25.3-45.8,25.3c-45,0-59.5-31.1-59.5-72.1L863.4,176.4z M810.3,72.4c0-49.2,22.7-72.1,71.3-72.1
	c45.3,0,72.1,19.2,72.1,65.6v17h-53V70.4c0-19.2-2.4-29-16.6-29.4c-16.6-0.3-17.3,7.3-19.7,13.7L810.3,72.4z"/>
</svg>
