<?xml version="1.0" encoding="utf-8"?>
<!-- Generator: Adobe Illustrator 18.1.1, SVG Export Plug-In . SVG Version: 6.00 Build 0)  -->
<svg version="1.1" xmlns="http://www.w3.org/2000/svg" xmlns:xlink="http://www.w3.org/1999/xlink" x="0px" y="0px"
	 viewBox="0 0 1024 768" enable-background="new 0 0 1024 768" xml:space="preserve">
<g id="background">
	<rect x="-0.7" fill="#242C51" width="1024.7" height="768"/>
</g>
<g id="ascenseurs">
	<g>
		
			<line fill="none" stroke="#8FA3D1" stroke-width="4" stroke-linecap="round" stroke-linejoin="round" stroke-miterlimit="10" stroke-dasharray="1,14" x1="415" y1="222" x2="415" y2="551"/>
		
			<line fill="none" stroke="#8FA3D1" stroke-width="6" stroke-linecap="round" stroke-linejoin="round" stroke-miterlimit="10" x1="422" y1="564" x2="410" y2="564"/>
		
			<line fill="none" stroke="#8FA3D1" stroke-width="6" stroke-linecap="round" stroke-linejoin="round" stroke-miterlimit="10" x1="421" y1="209" x2="409" y2="209"/>
		
			<line fill="none" stroke="#899DC6" stroke-width="10" stroke-linecap="round" stroke-linejoin="round" stroke-miterlimit="10" x1="415" y1="432" x2="415" y2="341"/>
	</g>
	<g>
		
			<line fill="none" stroke="#8FA3D1" stroke-width="4" stroke-linecap="round" stroke-linejoin="round" stroke-miterlimit="10" stroke-dasharray="1,14" x1="517" y1="222" x2="517" y2="551"/>
		
			<line fill="none" stroke="#8FA3D1" stroke-width="6" stroke-linecap="round" stroke-linejoin="round" stroke-miterlimit="10" x1="524" y1="564" x2="512" y2="564"/>
		
			<line fill="none" stroke="#8FA3D1" stroke-width="6" stroke-linecap="round" stroke-linejoin="round" stroke-miterlimit="10" x1="523" y1="209" x2="511" y2="209"/>
		
			<line fill="none" stroke="#899DC6" stroke-width="10" stroke-linecap="round" stroke-linejoin="round" stroke-miterlimit="10" x1="517" y1="432" x2="517" y2="341"/>
	</g>
</g>
<g id="barrieres">
	
		<line fill="none" stroke="#181E35" stroke-width="12" stroke-linecap="round" stroke-linejoin="round" stroke-miterlimit="10" x1="181" y1="283" x2="181" y2="762"/>
	
		<line fill="none" stroke="#181E35" stroke-width="12" stroke-linecap="round" stroke-linejoin="round" stroke-miterlimit="10" x1="181" y1="6" x2="181" y2="136"/>
	<rect x="-0.7" y="756.6" fill="#181E35" width="1024.7" height="11.4"/>
	<rect x="-0.7" fill="#181E35" width="1024.7" height="11.4"/>
	
		<polyline fill="none" stroke="#181E35" stroke-width="12" stroke-linecap="round" stroke-linejoin="round" stroke-miterlimit="10" points="
		618,529 739,529 739,243 618,243 	"/>
</g>
<g id="pics">
	<g>
		
			<polyline fill="none" stroke="#40518D" stroke-width="6" stroke-linecap="round" stroke-linejoin="round" stroke-miterlimit="10" points="
			320.2,675.5 338,657.7 355.8,675.5 		"/>
		
			<polyline fill="none" stroke="#40518D" stroke-width="6" stroke-linecap="round" stroke-linejoin="round" stroke-miterlimit="10" points="
			355.8,675.5 373.6,657.7 391.3,675.5 		"/>
		
			<polyline fill="none" stroke="#40518D" stroke-width="6" stroke-linecap="round" stroke-linejoin="round" stroke-miterlimit="10" points="
			391.3,675.5 409.1,657.7 426.9,675.5 		"/>
		
			<polyline fill="none" stroke="#40518D" stroke-width="6" stroke-linecap="round" stroke-linejoin="round" stroke-miterlimit="10" points="
			426.9,675.5 444.7,657.7 462.5,675.5 		"/>
		
			<polyline fill="none" stroke="#40518D" stroke-width="6" stroke-linecap="round" stroke-linejoin="round" stroke-miterlimit="10" points="
			462.5,675.5 480.3,657.7 498.1,675.5 		"/>
		
			<polyline fill="none" stroke="#40518D" stroke-width="6" stroke-linecap="round" stroke-linejoin="round" stroke-miterlimit="10" points="
			498,675.5 515.8,657.7 533.6,675.5 		"/>
		
			<polyline fill="none" stroke="#40518D" stroke-width="6" stroke-linecap="round" stroke-linejoin="round" stroke-miterlimit="10" points="
			533.6,675.5 551.4,657.7 569.2,675.5 		"/>
		
			<polyline fill="none" stroke="#40518D" stroke-width="6" stroke-linecap="round" stroke-linejoin="round" stroke-miterlimit="10" points="
			569.1,675.5 586.9,657.7 604.7,675.5 		"/>
	</g>
	<g>
		
			<polyline fill="none" stroke="#40518D" stroke-width="6" stroke-linecap="round" stroke-linejoin="round" stroke-miterlimit="10" points="
			17.2,117.7 35,135.5 52.8,117.7 		"/>
		
			<polyline fill="none" stroke="#40518D" stroke-width="6" stroke-linecap="round" stroke-linejoin="round" stroke-miterlimit="10" points="
			52.8,117.7 70.6,135.5 88.3,117.7 		"/>
		
			<polyline fill="none" stroke="#40518D" stroke-width="6" stroke-linecap="round" stroke-linejoin="round" stroke-miterlimit="10" points="
			88.3,117.7 106.1,135.5 123.9,117.7 		"/>
		
			<polyline fill="none" stroke="#40518D" stroke-width="6" stroke-linecap="round" stroke-linejoin="round" stroke-miterlimit="10" points="
			123.9,117.7 141.7,135.5 159.5,117.7 		"/>
	</g>
	<g>
		
			<polyline fill="none" stroke="#40518D" stroke-width="6" stroke-linecap="round" stroke-linejoin="round" stroke-miterlimit="10" points="
			770.3,108.3 769.9,133.4 795.1,133.9 		"/>
		
			<polyline fill="none" stroke="#40518D" stroke-width="6" stroke-linecap="round" stroke-linejoin="round" stroke-miterlimit="10" points="
			795,133.8 794.6,159 819.7,159.4 		"/>
		
			<polyline fill="none" stroke="#40518D" stroke-width="6" stroke-linecap="round" stroke-linejoin="round" stroke-miterlimit="10" points="
			819.7,159.4 819.3,184.6 844.5,185 		"/>
		
			<polyline fill="none" stroke="#40518D" stroke-width="6" stroke-linecap="round" stroke-linejoin="round" stroke-miterlimit="10" points="
			844.4,185 844,210.2 869.2,210.6 		"/>
	</g>
</g>
<g id="bonus">
	<g>
		<circle fill="#F4D13D" cx="671.7" cy="398.7" r="3"/>
		<circle fill="#F4D13D" cx="671.7" cy="373.7" r="3"/>
		<path fill="#F4D13D" d="M662.8,392c-0.8,0-1.6,0.3-2.1,0.9c-1.2,1.2-1.2,3.1,0,4.3c0.6,0.6,1.3,0.9,2.1,0.9c0.8,0,1.6-0.3,2.1-0.9
			c1.2-1.2,1.2-3.1,0-4.3C664.4,392.4,663.6,392,662.8,392z"/>
		<path fill="#F4D13D" d="M680.5,380.4c0.8,0,1.6-0.3,2.1-0.9c0.6-0.6,0.9-1.3,0.9-2.1c0-0.8-0.3-1.6-0.9-2.1
			c-0.6-0.6-1.3-0.9-2.1-0.9c-0.8,0-1.6,0.3-2.1,0.9c-1.2,1.2-1.2,3.1,0,4.3C679,380.1,679.7,380.4,680.5,380.4z"/>
		<circle fill="#F4D13D" cx="659.1" cy="386.2" r="3"/>
		<circle fill="#F4D13D" cx="684.2" cy="386.2" r="3"/>
		<path fill="#F4D13D" d="M662.8,374.3c-0.8,0-1.6,0.3-2.1,0.9c-0.6,0.6-0.9,1.3-0.9,2.1c0,0.8,0.3,1.6,0.9,2.1
			c0.6,0.6,1.3,0.9,2.1,0.9c0.8,0,1.6-0.3,2.1-0.9c0.6-0.6,0.9-1.3,0.9-2.1c0-0.8-0.3-1.6-0.9-2.1
			C664.4,374.6,663.6,374.3,662.8,374.3z"/>
		<path fill="#F4D13D" d="M680.5,392c-0.8,0-1.6,0.3-2.1,0.9c-1.2,1.2-1.2,3.1,0,4.3c0.6,0.6,1.3,0.9,2.1,0.9c0.8,0,1.6-0.3,2.1-0.9
			c1.2-1.2,1.2-3.1,0-4.3C682.1,392.4,681.3,392,680.5,392z"/>
	</g>
</g>
<g id="interface">
	<path fill="#DF324B" d="M958.3,111.2h-29c-19.2,0-34.8-15.6-34.8-34.8v0c0-19.2,15.6-34.8,34.8-34.8h29c19.2,0,34.8,15.6,34.8,34.8
		v0C993.1,95.6,977.5,111.2,958.3,111.2z"/>
	<text transform="matrix(1 0 0 1 829.6221 85.9238)" fill="#FFFFFF" font-family="'HelveticaNeue-Bold'" font-size="28.4444">25</text>
	<text transform="matrix(1 0 0 1 919.5557 86.8413)" fill="#FFFFFF" font-family="'HelveticaNeue-Bold'" font-size="29.0326">310</text>
	<g>
		<circle fill="#DF324B" cx="845.3" cy="45.5" r="3.7"/>
		<circle fill="#DF324B" cx="845.3" cy="107.4" r="3.7"/>
		<circle fill="#DF324B" cx="860.8" cy="103.2" r="3.7"/>
		<circle fill="#DF324B" cx="872.1" cy="91.9" r="3.7"/>
		<circle fill="#DF324B" cx="814.4" cy="76.5" r="3.7"/>
		<circle fill="#DF324B" cx="876.3" cy="76.5" r="3.7"/>
		<circle fill="#DF324B" cx="818.5" cy="91.9" r="3.7"/>
		<circle fill="#DF324B" cx="872.1" cy="61" r="3.7"/>
		<circle fill="#DF324B" cx="829.9" cy="103.2" r="3.7"/>
		<circle fill="#DF324B" cx="860.8" cy="49.7" r="3.7"/>
	</g>
	<g>
		
			<circle opacity="0.25" fill="none" stroke="#FFFFFF" stroke-width="5" stroke-linecap="round" stroke-linejoin="round" stroke-miterlimit="10" cx="944.3" cy="384" r="9.3"/>
		
			<circle fill="none" stroke="#FFFFFF" stroke-width="5" stroke-linecap="round" stroke-linejoin="round" stroke-miterlimit="10" cx="982.3" cy="384" r="9.3"/>
		
			<circle opacity="0.6" fill="none" stroke="#FFFFFF" stroke-width="5" stroke-linecap="round" stroke-linejoin="round" stroke-miterlimit="10" cx="963.3" cy="384" r="9.3"/>
	</g>
</g>
<g id="KINECT_walls" display="none">
	
		<line display="inline" fill="none" stroke="#0000FF" stroke-width="3" stroke-miterlimit="10" x1="-1" y1="11.5" x2="1024" y2="11.5"/>
	
		<line display="inline" fill="none" stroke="#0000FF" stroke-width="3" stroke-miterlimit="10" x1="-1" y1="756.5" x2="1024" y2="756.5"/>
	
		<line display="inline" fill="none" stroke="#0000FF" stroke-width="3" stroke-miterlimit="10" x1="180.5" y1="12" x2="180.5" y2="134"/>
	
		<line display="inline" fill="none" stroke="#0000FF" stroke-width="3" stroke-miterlimit="10" x1="180.5" y1="283" x2="180.5" y2="757"/>
	<polyline display="inline" fill="none" stroke="#0000FF" stroke-width="3" stroke-miterlimit="10" points="618,529 739,529 
		739,243 618,243 	"/>
</g>
<g id="KINECT_kill" display="none">
	
		<line display="inline" fill="none" stroke="#FF0000" stroke-width="3" stroke-miterlimit="10" x1="159" y1="126.5" x2="17" y2="126.5"/>
	
		<line display="inline" fill="none" stroke="#FF0000" stroke-width="3" stroke-miterlimit="10" x1="865.2" y1="215.7" x2="764.8" y2="115.3"/>
	
		<line display="inline" fill="none" stroke="#FF0000" stroke-width="3" stroke-miterlimit="10" x1="605" y1="666.5" x2="320" y2="666.5"/>
</g>
<g id="KINECT_end" display="none">
	
		<line display="inline" fill="none" stroke="#00FF00" stroke-width="3" stroke-miterlimit="10" x1="1022.5" y1="0" x2="1022.5" y2="768"/>
</g>
</svg>
