<?xml version="1.0" encoding="utf-8"?>
<!-- Generator: Adobe Illustrator 18.1.1, SVG Export Plug-In . SVG Version: 6.00 Build 0)  -->
<svg version="1.1" xmlns="http://www.w3.org/2000/svg" xmlns:xlink="http://www.w3.org/1999/xlink" x="0px" y="0px"
	 viewBox="0 0 1024 768" enable-background="new 0 0 1024 768" xml:space="preserve">
<g id="background">
	<rect x="-0.7" fill="#242C51" width="1024.7" height="768"/>
</g>
<g id="ascenseurs">
	<g>
		
			<line fill="none" stroke="#8FA3D1" stroke-width="4" stroke-linecap="round" stroke-linejoin="round" stroke-miterlimit="10" stroke-dasharray="1,14" x1="301" y1="219" x2="301" y2="548"/>
		
			<line fill="none" stroke="#8FA3D1" stroke-width="6" stroke-linecap="round" stroke-linejoin="round" stroke-miterlimit="10" x1="308" y1="561" x2="296" y2="561"/>
		
			<line fill="none" stroke="#8FA3D1" stroke-width="6" stroke-linecap="round" stroke-linejoin="round" stroke-miterlimit="10" x1="307" y1="206" x2="295" y2="206"/>
		
			<line fill="none" stroke="#899DC6" stroke-width="10" stroke-linecap="round" stroke-linejoin="round" stroke-miterlimit="10" x1="301" y1="429" x2="301" y2="338"/>
	</g>
</g>
<g id="barrieres">
	<rect x="-0.7" y="756.6" fill="#181E35" width="1024.7" height="11.4"/>
	<rect x="-0.7" fill="#181E35" width="1024.7" height="11.4"/>
	
		<polyline fill="none" stroke="#181E35" stroke-width="12" stroke-linecap="round" stroke-linejoin="round" stroke-miterlimit="10" points="
		661.1,248.1 782.1,248.1 782.1,534.1 713.1,534.1 713.1,623 	"/>
	<g>
		
			<polyline fill="none" stroke="#181E35" stroke-width="12" stroke-linecap="round" stroke-linejoin="round" stroke-miterlimit="10" points="
			-1,305 132,305 216,220.5 216,184 65,184 65,91 435,91 435,281 476.6,322.7 551.1,248.2 		"/>
		
			<polyline fill="none" stroke="#181E35" stroke-width="12" stroke-linecap="round" stroke-linejoin="round" stroke-miterlimit="10" points="
			-1,461 132,461 294,623 375,623 		"/>
	</g>
	
		<polyline fill="none" stroke="#181E35" stroke-width="12" stroke-linecap="round" stroke-linejoin="round" stroke-miterlimit="10" points="
		545,512 545,447 596.5,395.5 	"/>
</g>
<g id="pics">
	<g>
		
			<polyline fill="none" stroke="#40518D" stroke-width="6" stroke-linecap="round" stroke-linejoin="round" stroke-miterlimit="10" points="
			403.2,631.5 421,613.7 438.8,631.5 		"/>
		
			<polyline fill="none" stroke="#40518D" stroke-width="6" stroke-linecap="round" stroke-linejoin="round" stroke-miterlimit="10" points="
			438.8,631.5 456.6,613.7 474.3,631.5 		"/>
		
			<polyline fill="none" stroke="#40518D" stroke-width="6" stroke-linecap="round" stroke-linejoin="round" stroke-miterlimit="10" points="
			474.3,631.5 492.1,613.7 509.9,631.5 		"/>
		
			<polyline fill="none" stroke="#40518D" stroke-width="6" stroke-linecap="round" stroke-linejoin="round" stroke-miterlimit="10" points="
			509.9,631.5 527.7,613.7 545.5,631.5 		"/>
		
			<polyline fill="none" stroke="#40518D" stroke-width="6" stroke-linecap="round" stroke-linejoin="round" stroke-miterlimit="10" points="
			545.5,631.5 563.3,613.7 581.1,631.5 		"/>
		
			<polyline fill="none" stroke="#40518D" stroke-width="6" stroke-linecap="round" stroke-linejoin="round" stroke-miterlimit="10" points="
			581,631.5 598.8,613.7 616.6,631.5 		"/>
		
			<polyline fill="none" stroke="#40518D" stroke-width="6" stroke-linecap="round" stroke-linejoin="round" stroke-miterlimit="10" points="
			616.6,631.5 634.4,613.7 652.2,631.5 		"/>
		
			<polyline fill="none" stroke="#40518D" stroke-width="6" stroke-linecap="round" stroke-linejoin="round" stroke-miterlimit="10" points="
			652.1,631.5 669.9,613.7 687.7,631.5 		"/>
	</g>
	<g>
		
			<polyline fill="none" stroke="#40518D" stroke-width="6" stroke-linecap="round" stroke-linejoin="round" stroke-miterlimit="10" points="
			712.6,81.7 694.8,99.5 677,81.7 		"/>
		
			<polyline fill="none" stroke="#40518D" stroke-width="6" stroke-linecap="round" stroke-linejoin="round" stroke-miterlimit="10" points="
			677.1,81.7 659.3,99.5 641.5,81.7 		"/>
		
			<polyline fill="none" stroke="#40518D" stroke-width="6" stroke-linecap="round" stroke-linejoin="round" stroke-miterlimit="10" points="
			641.5,81.7 623.7,99.5 605.9,81.7 		"/>
		
			<polyline fill="none" stroke="#40518D" stroke-width="6" stroke-linecap="round" stroke-linejoin="round" stroke-miterlimit="10" points="
			605.9,81.7 588.1,99.5 570.3,81.7 		"/>
		
			<polyline fill="none" stroke="#40518D" stroke-width="6" stroke-linecap="round" stroke-linejoin="round" stroke-miterlimit="10" points="
			570.3,81.7 552.6,99.5 534.8,81.7 		"/>
		
			<polyline fill="none" stroke="#40518D" stroke-width="6" stroke-linecap="round" stroke-linejoin="round" stroke-miterlimit="10" points="
			534.8,81.7 517,99.5 499.2,81.7 		"/>
	</g>
</g>
<g id="bonus">
	<g>
		<circle fill="#F4D13D" cx="112.7" cy="149.7" r="3"/>
		<circle fill="#F4D13D" cx="112.7" cy="124.7" r="3"/>
		<path fill="#F4D13D" d="M103.8,143c-0.8,0-1.6,0.3-2.1,0.9c-1.2,1.2-1.2,3.1,0,4.3c0.6,0.6,1.3,0.9,2.1,0.9c0.8,0,1.6-0.3,2.1-0.9
			c1.2-1.2,1.2-3.1,0-4.3C105.4,143.4,104.6,143,103.8,143z"/>
		<path fill="#F4D13D" d="M121.5,131.4c0.8,0,1.6-0.3,2.1-0.9c0.6-0.6,0.9-1.3,0.9-2.1c0-0.8-0.3-1.6-0.9-2.1
			c-0.6-0.6-1.3-0.9-2.1-0.9c-0.8,0-1.6,0.3-2.2,0.9c-1.2,1.2-1.2,3.1,0,4.3C120,131.1,120.7,131.4,121.5,131.4z"/>
		<circle fill="#F4D13D" cx="100.1" cy="137.2" r="3"/>
		<circle fill="#F4D13D" cx="125.2" cy="137.2" r="3"/>
		<path fill="#F4D13D" d="M103.8,125.3c-0.8,0-1.6,0.3-2.1,0.9c-0.6,0.6-0.9,1.3-0.9,2.1c0,0.8,0.3,1.6,0.9,2.1
			c0.6,0.6,1.3,0.9,2.1,0.9c0.8,0,1.6-0.3,2.1-0.9c0.6-0.6,0.9-1.3,0.9-2.1c0-0.8-0.3-1.6-0.9-2.1
			C105.4,125.6,104.6,125.3,103.8,125.3z"/>
		<path fill="#F4D13D" d="M121.5,143c-0.8,0-1.6,0.3-2.2,0.9c-1.2,1.2-1.2,3.1,0,4.3c0.6,0.6,1.3,0.9,2.2,0.9c0.8,0,1.6-0.3,2.1-0.9
			c1.2-1.2,1.2-3.1,0-4.3C123.1,143.4,122.3,143,121.5,143z"/>
	</g>
</g>
<g id="interface">
	<path fill="#DF324B" d="M958.3,111.2h-29c-19.2,0-34.8-15.6-34.8-34.8v0c0-19.2,15.6-34.8,34.8-34.8h29c19.2,0,34.8,15.6,34.8,34.8
		v0C993.1,95.6,977.5,111.2,958.3,111.2z"/>
	<text transform="matrix(1 0 0 1 829.6221 85.9238)" fill="#FFFFFF" font-family="'HelveticaNeue-Bold'" font-size="28.4444">25</text>
	<text transform="matrix(1 0 0 1 919.5557 86.8413)" fill="#FFFFFF" font-family="'HelveticaNeue-Bold'" font-size="29.0326">310</text>
	<g>
		<circle fill="#DF324B" cx="845.3" cy="45.5" r="3.7"/>
		<circle fill="#DF324B" cx="845.3" cy="107.4" r="3.7"/>
		<circle fill="#DF324B" cx="860.8" cy="103.2" r="3.7"/>
		<circle fill="#DF324B" cx="872.1" cy="91.9" r="3.7"/>
		<circle fill="#DF324B" cx="814.4" cy="76.5" r="3.7"/>
		<circle fill="#DF324B" cx="876.3" cy="76.5" r="3.7"/>
		<circle fill="#DF324B" cx="818.5" cy="91.9" r="3.7"/>
		<circle fill="#DF324B" cx="872.1" cy="61" r="3.7"/>
		<circle fill="#DF324B" cx="829.9" cy="103.2" r="3.7"/>
		<circle fill="#DF324B" cx="860.8" cy="49.7" r="3.7"/>
	</g>
	<g>
		
			<circle opacity="0.25" fill="none" stroke="#FFFFFF" stroke-width="5" stroke-linecap="round" stroke-linejoin="round" stroke-miterlimit="10" cx="944.3" cy="384" r="9.3"/>
		
			<circle fill="none" stroke="#FFFFFF" stroke-width="5" stroke-linecap="round" stroke-linejoin="round" stroke-miterlimit="10" cx="982.3" cy="384" r="9.3"/>
		
			<circle opacity="0.6" fill="none" stroke="#FFFFFF" stroke-width="5" stroke-linecap="round" stroke-linejoin="round" stroke-miterlimit="10" cx="963.3" cy="384" r="9.3"/>
	</g>
</g>
<g id="KINECT_walls" display="none">
	
		<line display="inline" fill="none" stroke="#0000FF" stroke-width="3" stroke-miterlimit="10" x1="-1" y1="11.5" x2="1024" y2="11.5"/>
	
		<line display="inline" fill="none" stroke="#0000FF" stroke-width="3" stroke-miterlimit="10" x1="-1" y1="756.5" x2="1024" y2="756.5"/>
	<polyline display="inline" fill="none" stroke="#0000FF" stroke-width="3" stroke-miterlimit="10" points="661.1,248.1 
		782.1,248.1 782.1,534.1 713.1,534.1 713.1,623 	"/>
	<g display="inline">
		<polyline fill="none" stroke="#0000FF" stroke-width="3" stroke-miterlimit="10" points="-1,305.5 132,305.5 215.5,220.5 
			215.5,184.5 64.5,184.5 64.5,91.5 434.5,91.5 434.5,281 476.3,322.7 550.9,248.4 		"/>
		<polyline fill="none" stroke="#0000FF" stroke-width="3" stroke-miterlimit="10" points="-1,461.5 132,461.5 294,623.5 375,623.5 
					"/>
	</g>
	<polyline display="inline" fill="none" stroke="#0000FF" stroke-width="3" stroke-miterlimit="10" points="544.5,512 544.5,447 
		596,395.5 	"/>
</g>
<g id="KINECT_kill" display="none">
	
		<line display="inline" fill="none" stroke="#FF0000" stroke-width="3" stroke-miterlimit="10" x1="688" y1="623.5" x2="403" y2="623.5"/>
	
		<line display="inline" fill="none" stroke="#FF0000" stroke-width="3" stroke-miterlimit="10" x1="713" y1="91.5" x2="499" y2="91.5"/>
</g>
<g id="KINECT_end" display="none">
	
		<line display="inline" fill="none" stroke="#00FF00" stroke-width="3" stroke-miterlimit="10" x1="1022.5" y1="0" x2="1022.5" y2="768"/>
</g>
</svg>
