<?xml version="1.0" encoding="utf-8"?>
<!-- Generator: Adobe Illustrator 18.1.1, SVG Export Plug-In . SVG Version: 6.00 Build 0)  -->
<svg version="1.1" xmlns="http://www.w3.org/2000/svg" xmlns:xlink="http://www.w3.org/1999/xlink" x="0px" y="0px"
	 viewBox="0 0 1024 768" enable-background="new 0 0 1024 768" xml:space="preserve">
<g id="background">
	<rect x="-0.7" fill="#242C51" width="1024.7" height="768"/>
</g>
<g id="ascenseurs">
	
		<line fill="none" stroke="#8FA3D1" stroke-width="4" stroke-linecap="round" stroke-linejoin="round" stroke-miterlimit="10" stroke-dasharray="1,14" x1="493" y1="574" x2="822" y2="574"/>
	
		<line fill="none" stroke="#8FA3D1" stroke-width="6" stroke-linecap="round" stroke-linejoin="round" stroke-miterlimit="10" x1="835" y1="567" x2="835" y2="579"/>
	
		<line fill="none" stroke="#8FA3D1" stroke-width="6" stroke-linecap="round" stroke-linejoin="round" stroke-miterlimit="10" x1="480" y1="568" x2="480" y2="580"/>
	
		<line fill="none" stroke="#899DC6" stroke-width="10" stroke-linecap="round" stroke-linejoin="round" stroke-miterlimit="10" x1="703" y1="574" x2="612" y2="574"/>
</g>
<g id="barrieres">
	
		<polyline fill="none" stroke="#181E35" stroke-width="12" stroke-linecap="round" stroke-linejoin="round" stroke-miterlimit="10" points="
		0,267 220,267 220,197 290,197 290,127 360,127 	"/>
	
		<line fill="none" stroke="#181E35" stroke-width="12" stroke-linecap="round" stroke-linejoin="round" stroke-miterlimit="10" x1="740" y1="6" x2="740" y2="392"/>
	<rect x="-0.7" y="756.6" fill="#181E35" width="1024.7" height="11.4"/>
	<rect x="-0.7" fill="#181E35" width="1024.7" height="11.4"/>
</g>
<g id="pics">
	<g>
		
			<polyline fill="none" stroke="#40518D" stroke-width="6" stroke-linecap="round" stroke-linejoin="round" stroke-miterlimit="10" points="
			127.2,582.5 145,564.7 162.8,582.5 		"/>
		
			<polyline fill="none" stroke="#40518D" stroke-width="6" stroke-linecap="round" stroke-linejoin="round" stroke-miterlimit="10" points="
			162.8,582.5 180.6,564.7 198.3,582.5 		"/>
		
			<polyline fill="none" stroke="#40518D" stroke-width="6" stroke-linecap="round" stroke-linejoin="round" stroke-miterlimit="10" points="
			198.3,582.5 216.1,564.7 233.9,582.5 		"/>
		
			<polyline fill="none" stroke="#40518D" stroke-width="6" stroke-linecap="round" stroke-linejoin="round" stroke-miterlimit="10" points="
			233.9,582.5 251.7,564.7 269.5,582.5 		"/>
		
			<polyline fill="none" stroke="#40518D" stroke-width="6" stroke-linecap="round" stroke-linejoin="round" stroke-miterlimit="10" points="
			269.5,582.5 287.3,564.7 305.1,582.5 		"/>
		
			<polyline fill="none" stroke="#40518D" stroke-width="6" stroke-linecap="round" stroke-linejoin="round" stroke-miterlimit="10" points="
			305,582.5 322.8,564.7 340.6,582.5 		"/>
		
			<polyline fill="none" stroke="#40518D" stroke-width="6" stroke-linecap="round" stroke-linejoin="round" stroke-miterlimit="10" points="
			340.6,582.5 358.4,564.7 376.2,582.5 		"/>
		
			<polyline fill="none" stroke="#40518D" stroke-width="6" stroke-linecap="round" stroke-linejoin="round" stroke-miterlimit="10" points="
			376.1,582.5 393.9,564.7 411.7,582.5 		"/>
	</g>
	<g>
		
			<polyline fill="none" stroke="#40518D" stroke-width="6" stroke-linecap="round" stroke-linejoin="round" stroke-miterlimit="10" points="
			450.4,479.9 432.6,462.1 450.4,444.3 		"/>
		
			<polyline fill="none" stroke="#40518D" stroke-width="6" stroke-linecap="round" stroke-linejoin="round" stroke-miterlimit="10" points="
			450.4,444.3 432.6,426.5 450.4,408.7 		"/>
		
			<polyline fill="none" stroke="#40518D" stroke-width="6" stroke-linecap="round" stroke-linejoin="round" stroke-miterlimit="10" points="
			450.4,408.7 432.6,391 450.4,373.2 		"/>
		
			<polyline fill="none" stroke="#40518D" stroke-width="6" stroke-linecap="round" stroke-linejoin="round" stroke-miterlimit="10" points="
			450.4,373.2 432.6,355.4 450.4,337.6 		"/>
		<path fill="none" stroke="#40518D" stroke-width="6" stroke-linecap="round" stroke-linejoin="round" stroke-miterlimit="10" d="
			M450.4,337.6"/>
	</g>
</g>
<g id="bonus">
	<g>
		<circle fill="#F4D13D" cx="111.7" cy="139.7" r="3"/>
		<circle fill="#F4D13D" cx="111.7" cy="114.7" r="3"/>
		<path fill="#F4D13D" d="M102.8,133c-0.8,0-1.6,0.3-2.1,0.9c-1.2,1.2-1.2,3.1,0,4.3c0.6,0.6,1.3,0.9,2.1,0.9c0.8,0,1.6-0.3,2.1-0.9
			c1.2-1.2,1.2-3.1,0-4.3C104.4,133.4,103.6,133,102.8,133z"/>
		<path fill="#F4D13D" d="M120.5,121.4c0.8,0,1.6-0.3,2.1-0.9c0.6-0.6,0.9-1.3,0.9-2.2c0-0.8-0.3-1.6-0.9-2.1
			c-0.6-0.6-1.3-0.9-2.1-0.9c-0.8,0-1.6,0.3-2.2,0.9c-1.2,1.2-1.2,3.1,0,4.3C119,121.1,119.7,121.4,120.5,121.4z"/>
		<circle fill="#F4D13D" cx="99.1" cy="127.2" r="3"/>
		<circle fill="#F4D13D" cx="124.2" cy="127.2" r="3"/>
		<path fill="#F4D13D" d="M102.8,115.3c-0.8,0-1.6,0.3-2.1,0.9c-0.6,0.6-0.9,1.3-0.9,2.1c0,0.8,0.3,1.6,0.9,2.2
			c0.6,0.6,1.3,0.9,2.1,0.9c0.8,0,1.6-0.3,2.1-0.9c0.6-0.6,0.9-1.3,0.9-2.2c0-0.8-0.3-1.6-0.9-2.1
			C104.4,115.6,103.6,115.3,102.8,115.3z"/>
		<path fill="#F4D13D" d="M120.5,133c-0.8,0-1.6,0.3-2.2,0.9c-1.2,1.2-1.2,3.1,0,4.3c0.6,0.6,1.3,0.9,2.2,0.9c0.8,0,1.6-0.3,2.1-0.9
			c1.2-1.2,1.2-3.1,0-4.3C122.1,133.4,121.3,133,120.5,133z"/>
	</g>
</g>
<g id="interface">
	<path fill="#DF324B" d="M958.3,111.2h-29c-19.2,0-34.8-15.6-34.8-34.8v0c0-19.2,15.6-34.8,34.8-34.8h29c19.2,0,34.8,15.6,34.8,34.8
		v0C993.1,95.6,977.5,111.2,958.3,111.2z"/>
	<text transform="matrix(1 0 0 1 829.6221 85.9238)" fill="#FFFFFF" font-family="'HelveticaNeue-Bold'" font-size="28.4444">25</text>
	<text transform="matrix(1 0 0 1 919.5557 86.8413)" fill="#FFFFFF" font-family="'HelveticaNeue-Bold'" font-size="29.0326">310</text>
	<g>
		<circle fill="#DF324B" cx="845.3" cy="45.5" r="3.7"/>
		<circle fill="#DF324B" cx="845.3" cy="107.4" r="3.7"/>
		<circle fill="#DF324B" cx="860.8" cy="103.2" r="3.7"/>
		<circle fill="#DF324B" cx="872.1" cy="91.9" r="3.7"/>
		<circle fill="#DF324B" cx="814.4" cy="76.5" r="3.7"/>
		<circle fill="#DF324B" cx="876.3" cy="76.5" r="3.7"/>
		<circle fill="#DF324B" cx="818.5" cy="91.9" r="3.7"/>
		<circle fill="#DF324B" cx="872.1" cy="61" r="3.7"/>
		<circle fill="#DF324B" cx="829.9" cy="103.2" r="3.7"/>
		<circle fill="#DF324B" cx="860.8" cy="49.7" r="3.7"/>
	</g>
	<g>
		
			<circle opacity="0.25" fill="none" stroke="#FFFFFF" stroke-width="5" stroke-linecap="round" stroke-linejoin="round" stroke-miterlimit="10" cx="944.3" cy="384" r="9.3"/>
		
			<circle fill="none" stroke="#FFFFFF" stroke-width="5" stroke-linecap="round" stroke-linejoin="round" stroke-miterlimit="10" cx="982.3" cy="384" r="9.3"/>
		
			<circle opacity="0.6" fill="none" stroke="#FFFFFF" stroke-width="5" stroke-linecap="round" stroke-linejoin="round" stroke-miterlimit="10" cx="963.3" cy="384" r="9.3"/>
	</g>
</g>
<g id="KINECT_walls" display="none">
	
		<line display="inline" fill="none" stroke="#0000FF" stroke-width="3" stroke-miterlimit="10" x1="-1" y1="11.5" x2="1024" y2="11.5"/>
	
		<line display="inline" fill="none" stroke="#0000FF" stroke-width="3" stroke-miterlimit="10" x1="-1" y1="756.5" x2="1024" y2="756.5"/>
	
		<line display="inline" fill="none" stroke="#0000FF" stroke-width="3" stroke-miterlimit="10" x1="740.5" y1="12" x2="740.5" y2="391"/>
	<polyline display="inline" fill="none" stroke="#0000FF" stroke-width="3" stroke-miterlimit="10" points="0,267.5 219.5,267.5 
		219.5,197.5 289.5,197.5 289.5,127.5 360,127.5 	"/>
</g>
<g id="KINECT_kill" display="none">
	
		<line display="inline" fill="none" stroke="#FF0000" stroke-width="3" stroke-miterlimit="10" x1="441.5" y1="338" x2="441.5" y2="480"/>
	
		<line display="inline" fill="none" stroke="#FF0000" stroke-width="3" stroke-miterlimit="10" x1="412" y1="573.5" x2="127" y2="573.5"/>
</g>
<g id="KINECT_end" display="none">
	
		<line display="inline" fill="none" stroke="#00FF00" stroke-width="3" stroke-miterlimit="10" x1="1022.5" y1="0" x2="1022.5" y2="768"/>
</g>
</svg>
