<?xml version="1.0" encoding="utf-8"?>
<!-- Generator: Adobe Illustrator 18.0.0, SVG Export Plug-In . SVG Version: 6.00 Build 0)  -->
<!DOCTYPE svg PUBLIC "-//W3C//DTD SVG 1.1//EN" "http://www.w3.org/Graphics/SVG/1.1/DTD/svg11.dtd">
<svg version="1.1" id="Layer_1" xmlns="http://www.w3.org/2000/svg" xmlns:xlink="http://www.w3.org/1999/xlink" x="0px" y="0px"
	 viewBox="0 0 1280 720" enable-background="new 0 0 1280 720" xml:space="preserve">
<line fill="none" stroke="#FFFF00" stroke-width="13" stroke-miterlimit="10" x1="240.3" y1="28.4" x2="240.3" y2="232.2"/>
<line fill="none" stroke="#00FF00" stroke-width="13" stroke-miterlimit="10" x1="338.2" y1="28.4" x2="338.2" y2="237.1"/>
<line fill="none" stroke="#00FFFF" stroke-width="13" stroke-miterlimit="10" x1="504.5" y1="59.4" x2="504.5" y2="167"/>
<line fill="none" stroke="#0000FF" stroke-width="13" stroke-miterlimit="10" x1="592.5" y1="87.1" x2="592.5" y2="188.2"/>
<line fill="none" stroke="#FF00FF" stroke-width="13" stroke-miterlimit="10" x1="661" y1="17" x2="661" y2="232.2"/>
<line fill="none" stroke="#C1272D" stroke-width="13" stroke-miterlimit="10" x1="767" y1="5.5" x2="767" y2="209.4"/>
<line fill="none" stroke="#F15A24" stroke-width="13" stroke-miterlimit="10" x1="838.8" y1="59.4" x2="838.8" y2="173.5"/>
<line fill="none" stroke="#FBB03B" stroke-width="13" stroke-miterlimit="10" x1="993.7" y1="17" x2="993.7" y2="201.2"/>
<line fill="none" stroke="#8C6239" stroke-width="13" stroke-miterlimit="10" x1="994.5" y1="17.8" x2="1113.5" y2="17.8"/>
<line fill="none" stroke="#603813" stroke-width="13" stroke-miterlimit="10" x1="994.5" y1="114" x2="1063" y2="114"/>
<line fill="none" stroke="#F7931E" stroke-width="13" stroke-miterlimit="10" x1="882" y1="148.2" x2="944" y2="148.2"/>
<line fill="none" stroke="#006837" stroke-width="13" stroke-miterlimit="10" x1="1156.8" y1="17" x2="1156.8" y2="217.5"/>
<line fill="none" stroke="#FF0000" stroke-width="13" stroke-miterlimit="10" x1="21" y1="59.4" x2="117.2" y2="167"/>
<path d="M129.6,132.6c4.7,9.5,7,20.7,7,37.2c0,43.5-24.1,67.7-68.2,67.7c-48.6,0-69.1-27.2-69.1-57.1v-24.1h49.2v16
	c0,13,4.2,24.5,21.2,24.5c12.4,0,17.8-11.1,17.8-22.7c0-9.9-4.1-16.3-10.6-21.9L129.6,132.6z M6.3,90.3C3.7,83,2.2,74.5,2.2,64.6
	C2.2,22,27.8,0.3,68.9,0.3c46.1,0,69.8,30.8,67.3,73.4H87.4c-0.7-13.2,0-31.5-17.4-32.6c-10.9-1-17.3,5.1-18.4,15.2
	c-0.8,6.8,0.7,11.9,3.4,16.3L6.3,90.3z"/>
<path d="M171.5,51V5.5h138.1V51H171.5z"/>
<path d="M362.1,101.9h18.1c15.3,0,19.1-14.2,19.1-28c0-26.9-11.1-28-37.2-27.4l0.2-40.8h24.3c43.5,0,65.2,17.4,65.2,62.5
	c0,24.1-5.7,41.4-28,51.7v0.7c14.8,3.3,25.3,13.5,26.3,29.4c1.5,18.1,1.8,57.1,4.9,71.6c1.1,3.1,2.8,5.7,5.1,7.8v3.1h-57.9
	c-1.5-4.2-2.8-8.5-3.1-13c-1-19.9,0.3-38.6-1.1-52.5s-5.7-23-18.1-23.8h-17.4v-41.1H362.1z"/>
<path d="M1182.9,101.9h18.1c15.3,0,19.1-14.2,19.1-28c0-26.9-11.1-28-37.2-27.4l0.2-40.8h24.3c43.5,0,65.2,17.4,65.2,62.5
	c0,24.1-5.7,41.4-28,51.7v0.7c14.8,3.3,25.3,13.5,26.3,29.4c1.5,18.1,1.8,57.1,4.9,71.6c1.1,3.1,2.8,5.7,5.1,7.8v3.1h-57.9
	c-1.5-4.2-2.8-8.5-3.1-13c-1-19.9,0.3-38.6-1.1-52.5s-5.7-23-18.1-23.8H1183v-41.1H1182.9z"/>
<path d="M644.9,5.7h54.6L786.8,232h-54.3L644.9,5.7z"/>
<path d="M1106.7,187.9v44H981.5v-44H1106.7z"/>
<path d="M527.3,133.6c1,47.5,4.1,63.1,21.4,63.1c17.3,0,18.4-19.2,18.4-32.3l52.3,12.9c-3.9,39.8-23.3,60-70.8,60
	c-53.6,0-68-19.2-71.6-75.3L527.3,133.6z M569.1,111.7c0-57.7-3.3-70.8-20.9-70.8c-17,0-19.1,12.9-19.1,40.4L476,67.7
	C476,24.1,501.9,0,548.4,0c46.5,0,74.7,21.9,71.6,82.8L569.1,111.7z"/>
<path d="M862.7,176.4c0,12.7,5.7,20.2,19.6,20.2c18.1,0,18.8-14.5,18.8-29v-17.8l53.2,2v80.4H918l-2.4-20.2h-0.7
	c-10.9,19.2-23,25.3-45.8,25.3c-45,0-59.5-31.1-59.5-72.1L862.7,176.4z M809.6,72.4c0-49.2,22.7-72.1,71.3-72.1
	c45.3,0,72.1,19.2,72.1,65.6v17h-53V70.4c0-19.2-2.4-29-16.6-29.4c-16.6-0.3-17.3,7.3-19.7,13.7L809.6,72.4z"/>
</svg>
