<?xml version="1.0" standalone="no"?>
<!DOCTYPE svg PUBLIC "-//W3C//DTD SVG 1.1//EN" "http://www.w3.org/Graphics/SVG/1.1/DTD/svg11.dtd" >
<svg xmlns="http://www.w3.org/2000/svg">
<metadata></metadata>
<defs>
<font id="tstar_twregular" horiz-adv-x="1228" >
<font-face units-per-em="2048" ascent="1585" descent="-463" />
<missing-glyph horiz-adv-x="921" />
<glyph horiz-adv-x="2048" />
<glyph horiz-adv-x="2048" />
<glyph unicode="&#xd;" horiz-adv-x="2048" />
<glyph unicode=" "  horiz-adv-x="921" />
<glyph unicode="&#x09;" horiz-adv-x="921" />
<glyph unicode="&#xa0;" horiz-adv-x="921" />
<glyph unicode="!" horiz-adv-x="716" d="M283 0v170h170v-170h-170zM313 424v1032h113v-1032h-113z" />
<glyph unicode="&#x22;" horiz-adv-x="921" d="M297 1079v381h111v-381h-111zM551 1079v381h111v-381h-111z" />
<glyph unicode="#" d="M94 487v95h215l53 331h-200v93h215l65 407h103l-66 -407h332l68 407h100l-70 -407h224v-93h-236l-55 -331h223v-95h-238l-69 -444h-99l68 444h-332l-71 -444h-101l72 444h-201zM410 582h331l54 331h-330z" />
<glyph unicode="$" d="M193 360h112q0 -116 70.5 -186.5t187.5 -81.5v637l-155 82q-86 46 -138.5 127.5t-52.5 181.5q0 145 96 243t250 112v131h103v-133q156 -19 252 -120.5t96 -250.5h-113q0 110 -64 177t-171 83v-561l149 -80q107 -59 164 -151.5t57 -209.5q0 -149 -104.5 -253t-265.5 -123 v-127h-103v125q-168 13 -269 119t-101 259zM330 1114q0 -142 147 -217l86 -43v510q-105 -12 -169 -77.5t-64 -172.5zM666 94q118 15 188 89t70 182q0 91 -41 151.5t-119 104.5l-98 53v-580z" />
<glyph unicode="%" horiz-adv-x="1433" d="M70 922v331q6 103 78 166.5t176 63.5q108 0 178.5 -65t70.5 -171v-332q-6 -103 -78 -166t-176 -63q-108 0 -178.5 65t-70.5 171zM170 922q0 -68 40 -104t109 -36q67 0 109 32t45 99v334q0 68 -40 103.5t-109 35.5q-67 0 -108.5 -32t-45.5 -99v-333zM418 -20l489 1482h101 l-488 -1482h-102zM860 215v332q6 103 78 166t176 63q108 0 179 -65t71 -170v-332q-6 -103 -78 -166t-176 -63q-108 0 -179 65t-71 170zM961 215q0 -68 40 -103.5t109 -35.5q67 0 109 32t45 99v334q0 67 -40.5 103t-109.5 36q-67 0 -108 -32t-45 -99v-334z" />
<glyph unicode="&#x26;" d="M115 389q0 117 57 211t162 156l61 35l-80 69q-71 61 -102 125t-31 148q0 73 24 132t62.5 97.5t88.5 64.5t100 37t100 11q169 0 284 -99.5t115 -259.5h-112q0 114 -80 181t-207 67q-262 0 -262 -236q0 -41 6.5 -70.5t25 -55t34 -40.5t49.5 -44l704 -594l-67 -88l-91 75 q-10 -71 -40 -128t-71 -93.5t-93.5 -61.5t-105 -35.5t-107.5 -10.5q-61 0 -119 13t-114 43.5t-98 76t-67.5 116t-25.5 158.5zM227 387q0 -68 19.5 -121t50 -85t73 -53t83.5 -28.5t86 -7.5t86 7.5t83 28.5t72.5 53t50 85t19.5 121v14l-371 316q-60 -31 -92 -51 q-77 -45 -118.5 -118t-41.5 -161z" />
<glyph unicode="'" horiz-adv-x="716" d="M301 1079v381h113v-381h-113z" />
<glyph unicode="(" horiz-adv-x="1024" d="M315 700q0 524 275 897l90 -61q-252 -359 -252 -836q0 -473 252 -833l-86 -68q-279 375 -279 901z" />
<glyph unicode=")" horiz-adv-x="1024" d="M344 -133q252 360 252 833q0 477 -252 836l90 61q275 -373 275 -897q0 -526 -279 -901z" />
<glyph unicode="*" horiz-adv-x="1024" d="M209 979l225 123l-225 123l45 75l219 -131l-6 258h90l-8 -258l223 131l43 -75l-225 -123l225 -123l-43 -78l-223 133l8 -258h-90l6 258l-219 -133z" />
<glyph unicode="+" d="M172 530v103h389v377h105v-377h389v-103h-389v-403h-105v403h-389z" />
<glyph unicode="," horiz-adv-x="716" d="M190 -223l162 401h148l-193 -401h-117z" />
<glyph unicode="-" d="M319 522v111h588v-111h-588z" />
<glyph unicode="." horiz-adv-x="716" d="M266 0v199h183v-199h-183z" />
<glyph unicode="/" d="M281 -111l555 1688h108l-551 -1688h-112z" />
<glyph unicode="0" d="M211 356v744q0 169 109 272t294 103q182 0 292 -104t110 -273v-740q0 -169 -110 -272.5t-292 -103.5q-185 0 -294 102.5t-109 271.5zM324 360q0 -137 80 -202.5t210 -65.5q129 0 209 65.5t80 202.5v736q0 137 -80 202.5t-209 65.5q-130 0 -210 -65.5t-80 -202.5v-736z " />
<glyph unicode="1" d="M246 0v111h307v1222l-297 -157v120l303 164h107v-1349h315v-111h-735z" />
<glyph unicode="2" d="M209 1100q0 163 116 269t296 106q179 0 289 -108.5t110 -285.5q0 -174 -139 -297q-61 -53 -215 -145t-211 -141q-67 -55 -99 -109.5t-32 -136.5v-141h694v-111h-807v264q0 101 49.5 180t136.5 148q61 48 204.5 134t201.5 132t82 98.5t24 122.5q0 135 -75 210t-213 75 q-131 0 -215 -70t-84 -194h-113z" />
<glyph unicode="3" d="M213 362h113q0 -65 20.5 -115t51 -78.5t71 -46.5t75 -24t68.5 -6q35 0 69.5 6t75.5 24.5t72 48t51.5 80.5t20.5 118v131q0 66 -22 116.5t-53 77.5t-73.5 44t-75.5 21.5t-67 4.5h-71v98l303 488h-580v110h707v-100l-303 -492q82 -7 146 -34.5t101 -64t60.5 -85t32 -91.5 t8.5 -89v-135q0 -48 -11 -97t-40 -102.5t-72.5 -94t-115 -67t-161.5 -26.5q-91 0 -163.5 25.5t-116 65t-72 91.5t-39 100.5t-10.5 97.5z" />
<glyph unicode="4" d="M207 424v98l332 938h112l-321 -925h538v561h113v-1096h-113v424h-661z" />
<glyph unicode="5" d="M201 365h112q0 -126 81 -199.5t218 -73.5q123 0 212 76t89 207v98q0 121 -77.5 205t-219.5 84h-352l41 698h643v-110h-540l-31 -478h244q107 0 199 -48t149 -139.5t57 -207.5v-100q0 -169 -122 -282t-292 -113q-172 0 -291.5 106.5t-119.5 276.5z" />
<glyph unicode="6" d="M213 352v744q0 41 11 87.5t40 99.5t73 95t117 69.5t164 27.5q88 0 156.5 -27t108.5 -67.5t66.5 -93.5t35.5 -98t10 -89h-112q-1 64 -19 113.5t-45 77t-64 45t-69.5 23t-67.5 5.5q-36 0 -71 -5.5t-76.5 -23.5t-72 -46.5t-51.5 -79t-21 -117.5v-308q102 127 292 127 q89 0 160.5 -27t114.5 -67.5t71.5 -93.5t39 -100.5t10.5 -92.5v-174q0 -40 -11 -85.5t-40 -98t-72.5 -94t-116.5 -69t-164 -27.5q-89 0 -161 27t-114.5 67.5t-71.5 92.5t-39.5 97t-10.5 86zM326 362q0 -65 21 -115.5t51.5 -79t71 -46.5t74 -23.5t66.5 -5.5t67 5.5t76 23 t73.5 45.5t53 79t21.5 117v166q0 66 -21.5 117.5t-53.5 80t-73.5 46.5t-75.5 23.5t-67 5.5t-66 -5.5t-74 -23.5t-71.5 -46.5t-51.5 -80t-21 -117.5v-166z" />
<glyph unicode="7" d="M193 1350v110h843v-100l-495 -1360h-121l493 1350h-720z" />
<glyph unicode="8" d="M197 395q0 247 198 353q-93 57 -136.5 154t-43.5 183q0 49 10.5 98.5t39 103.5t72 94.5t116 67t163.5 26.5q90 0 161.5 -26.5t115.5 -67.5t73 -94.5t40.5 -103t11.5 -98.5q0 -84 -47.5 -180t-143.5 -155q59 -33 101.5 -79.5t64 -95.5t30.5 -93t9 -87q0 -50 -10.5 -101.5 t-40 -109t-74.5 -101.5t-120 -72.5t-171 -28.5q-94 0 -169 28.5t-120.5 72.5t-76 101t-42 109t-11.5 102zM313 395q0 -74 22.5 -130.5t55.5 -88t76.5 -51.5t79 -26.5t69.5 -6.5q33 0 68 6t79 26t77.5 51.5t56.5 88.5t23 131q0 140 -86.5 219.5t-217.5 79.5q-133 0 -218 -80 t-85 -219zM328 1085q0 -131 79.5 -205.5t208.5 -74.5q130 0 209.5 75t79.5 205q0 67 -21.5 119t-53 81.5t-73 48t-75.5 24.5t-66 6t-65.5 -6t-75 -24.5t-73 -48t-53 -81.5t-21.5 -119z" />
<glyph unicode="9" d="M213 926v174q0 33 8 70t25 80.5t49 82.5t74.5 71.5t106.5 51.5t140 19q89 0 161 -27t115 -68t71.5 -92.5t39.5 -97t11 -86.5v-744q0 -42 -10.5 -88t-39 -99t-71.5 -94.5t-115.5 -69t-163.5 -27.5q-88 0 -157 27t-110 67t-68 93t-37 98.5t-11 88.5h113q1 -64 20 -113.5 t47 -77t66 -45t71 -23t68 -5.5t69 5.5t75 23.5t70.5 47t50 79.5t20.5 117.5v307q-102 -127 -293 -127q-89 0 -160.5 28t-114 70t-71 95.5t-39 99.5t-10.5 88zM326 928q0 -66 21.5 -117.5t53 -80t73 -46.5t75.5 -23.5t67 -5.5t66.5 5.5t74 23.5t71.5 46.5t52 80t21 117.5v166 q0 66 -21 117t-51.5 79t-72 45.5t-74.5 23t-66 5.5t-66.5 -5.5t-75.5 -23t-73.5 -45.5t-53 -79t-21.5 -117v-166z" />
<glyph unicode=":" horiz-adv-x="819" d="M336 0v186h186v-186h-186zM336 680v186h186v-186h-186z" />
<glyph unicode=";" horiz-adv-x="819" d="M203 -223l162 401h147l-193 -401h-116zM338 680v186h186v-186h-186z" />
<glyph unicode="&#x3c;" d="M266 543l535 536h153l-530 -536l537 -543h-154z" />
<glyph unicode="=" d="M225 399v107h779v-107h-779zM225 698v107h779v-107h-779z" />
<glyph unicode="&#x3e;" d="M266 0l537 543l-531 536h154l537 -536l-543 -543h-154z" />
<glyph unicode="?" d="M213 1106q0 42 11.5 88t41 97.5t73 91.5t116 66t161.5 26q178 0 289 -109.5t111 -284.5q0 -125 -88 -227q-36 -43 -124.5 -109.5t-119.5 -99.5q-59 -62 -59 -184v-51h-113v45q0 158 90 256q39 43 123 104t117 98q61 68 61 166q0 139 -74.5 214t-212.5 75q-33 0 -65.5 -5 t-73.5 -22t-72 -44.5t-53.5 -76.5t-25.5 -114h-113zM489 0v170h168v-170h-168z" />
<glyph unicode="@" d="M213 -80v1180q0 33 8 70t25 80.5t49 82.5t74.5 71.5t106.5 51.5t140 19q89 0 161 -27.5t115 -69.5t71.5 -94.5t39.5 -98.5t11 -87v-1057h-113v74q-74 -77 -176 -74q-114 0 -189 66.5t-75 193.5v408q0 127 77.5 194.5t192.5 67.5q44 0 92 -20t78 -58v201q0 66 -21 117 t-51.5 79t-72 45.5t-74.5 23t-66 5.5t-67 -6t-75.5 -24t-73 -46.5t-53 -80t-21.5 -117.5v-1164q0 -65 20.5 -115.5t51 -79.5t70.5 -47.5t74.5 -25t67.5 -6.5v-113q-91 1 -163 28t-115 67.5t-71 94t-38 100t-10 91.5zM563 311q0 -84 45.5 -126t116.5 -42q75 0 125.5 40.5 t50.5 125.5v398q0 82 -51.5 121.5t-122.5 39.5t-117.5 -42t-46.5 -126v-389z" />
<glyph unicode="A" d="M92 0l422 1460h195l430 -1460h-117l-123 426h-567l-125 -426h-115zM360 535h508l-239 825h-29z" />
<glyph unicode="B" d="M217 0v1460h422q91 0 160.5 -27t108 -66.5t62 -92t31 -95t7.5 -85.5v-25q0 -37 -8.5 -76.5t-27.5 -84.5t-57.5 -86t-91.5 -66q63 -22 107.5 -64.5t65 -92.5t28.5 -91.5t8 -81.5v-51q0 -41 -8.5 -85.5t-34.5 -98t-66.5 -94.5t-111.5 -69t-162 -28h-432zM330 111h315 q33 0 65.5 5.5t72 23t68.5 45.5t49 78.5t20 117.5v43q0 67 -18.5 118t-46.5 80t-67 47.5t-73.5 24.5t-71.5 6h-313v-589zM330 809h317q37 0 68 5t66 21.5t58.5 44t39.5 77t16 116.5v19q0 258 -260 258h-305v-541z" />
<glyph unicode="C" d="M211 356v744q0 169 109 272t294 103q182 0 292 -104t110 -273h-113q0 135 -80 200.5t-209 65.5q-130 0 -210 -65.5t-80 -202.5v-736q0 -137 80 -202.5t210 -65.5q129 0 209 65.5t80 202.5h113v-2q0 -169 -110 -272.5t-292 -103.5q-185 0 -294 102.5t-109 271.5z" />
<glyph unicode="D" d="M211 0v1460h418q181 0 284 -103t103 -274v-700q0 -176 -102.5 -279.5t-284.5 -103.5h-418zM324 111h305q125 0 199.5 66t74.5 208v696q0 134 -74 201.5t-200 67.5h-305v-1239z" />
<glyph unicode="E" d="M231 0v1460h766v-110h-653v-541h604v-111h-604v-587h653v-111h-766z" />
<glyph unicode="F" d="M231 0v1460h766v-110h-653v-543h604v-111h-604v-696h-113z" />
<glyph unicode="G" d="M211 356v744q0 169 109 272t294 103q182 0 292 -104t110 -273h-113q0 135 -80 200.5t-209 65.5q-130 0 -210 -65.5t-80 -202.5v-736q0 -137 80 -202.5t210 -65.5q83 0 145.5 25.5t102.5 86.5t41 152v316h-311v110h424v-424q0 -169 -110 -272.5t-292 -103.5 q-185 0 -294 102.5t-109 271.5z" />
<glyph unicode="H" d="M197 0v1460h112v-657h609v657h112v-1460h-112v692h-609v-692h-112z" />
<glyph unicode="I" d="M221 0v111h336v1239h-336v110h785v-110h-336v-1239h336v-111h-785z" />
<glyph unicode="J" d="M254 354h113q0 -63 16 -111t41 -76t59.5 -45.5t65.5 -23.5t65 -6q36 0 68 6t66 23t58.5 44t40 73.5t15.5 107.5v1004h-450v110h563v-1102q0 -177 -96.5 -276.5t-266.5 -99.5q-167 0 -262.5 102t-95.5 270z" />
<glyph unicode="K" d="M203 0v1460h112v-758l566 758h131l-471 -639l508 -821h-136l-444 727l-154 -211v-516h-112z" />
<glyph unicode="L" d="M231 0v1460h113v-1349h651v-111h-764z" />
<glyph unicode="M" horiz-adv-x="1331" d="M156 0v1460h161l349 -854l344 854h166v-1460h-113v1303l-344 -838h-107l-344 838v-1303h-112z" />
<glyph unicode="N" d="M207 0v1460h151l551 -1294v1294h113v-1460h-158l-545 1280v-1280h-112z" />
<glyph unicode="O" d="M211 356v744q0 169 109 272t294 103q182 0 292 -104t110 -273v-740q0 -169 -110 -272.5t-292 -103.5q-185 0 -294 102.5t-109 271.5zM324 360q0 -137 80 -202.5t210 -65.5q129 0 209 65.5t80 202.5v736q0 137 -80 202.5t-209 65.5q-130 0 -210 -65.5t-80 -202.5v-736z " />
<glyph unicode="P" d="M213 0v1460h422q91 0 162 -28t111.5 -69t66.5 -94.5t34.5 -98t8.5 -85.5v-110q0 -43 -8.5 -88t-34 -99t-65 -95t-109 -69t-158.5 -28h-317v-596h-113zM326 707h309q33 0 65 5.5t71 23t67 45.5t47.5 78.5t19.5 117.5v104q0 56 -13.5 100.5t-36.5 73t-50.5 48.5t-60 29.5 t-59.5 13.5t-54 4h-305v-643z" />
<glyph unicode="Q" d="M211 356v744q0 169 109 272t294 103q182 0 292 -104t110 -273v-740q0 -157 -95 -259t-255 -115v-209h-103v209q-163 13 -257.5 113.5t-94.5 258.5zM324 360q0 -122 65 -187.5t174 -78.5v291h103v-291q108 13 172.5 78t64.5 188v736q0 137 -80 202.5t-209 65.5 q-130 0 -210 -65.5t-80 -202.5v-736z" />
<glyph unicode="R" d="M201 0v1460h422q66 0 121.5 -14.5t94 -38t69 -56t48.5 -66.5t29.5 -71.5t16 -68t4.5 -58.5v-71q0 -37 -6.5 -76.5t-26 -87.5t-50 -87.5t-83 -72.5t-119.5 -47l307 -645h-129l-297 637h-289v-637h-112zM313 748h310q33 0 65 5.5t71 23t67 45.5t47.5 78.5t19.5 117.5v63 q0 67 -20 117.5t-49 78.5t-68.5 45t-71.5 22.5t-66 5.5h-305v-602z" />
<glyph unicode="S" d="M193 360h112q0 -125 83.5 -196.5t215.5 -71.5q145 0 232.5 76t87.5 197q0 91 -41 151.5t-119 104.5q-71 40 -190.5 102t-167.5 88q-86 46 -137.5 127.5t-51.5 181.5q0 155 109.5 255t281.5 100q179 0 292.5 -105t113.5 -268h-113q0 125 -81 193.5t-212 68.5 q-122 0 -200 -65.5t-78 -184.5q0 -142 147 -217q248 -126 338 -176q107 -59 164 -151.5t57 -209.5q0 -163 -124 -270.5t-306 -107.5q-186 0 -299.5 107.5t-113.5 270.5z" />
<glyph unicode="T" d="M188 1348v112h850v-112h-368v-1348h-113v1348h-369z" />
<glyph unicode="U" d="M211 356v1104h113v-1100q0 -137 80 -202.5t210 -65.5q129 0 209 65.5t80 202.5v1100h113v-1102q0 -169 -110 -272.5t-292 -103.5q-185 0 -294 102.5t-109 271.5z" />
<glyph unicode="V" d="M113 1460h112l379 -1354h25l375 1354h112l-403 -1460h-193z" />
<glyph unicode="W" horiz-adv-x="1331" d="M31 1460h114l213 -1347l260 1026h101l252 -1026l215 1347h114l-245 -1460h-158l-227 924l-236 -924h-158z" />
<glyph unicode="X" d="M172 -20l377 735l-375 725h125l311 -617l316 617h125l-377 -725l381 -735h-129l-314 624l-311 -624h-129z" />
<glyph unicode="Y" d="M172 1460h123l319 -794l320 794h123l-387 -934v-526h-113v528z" />
<glyph unicode="Z" d="M217 0v113l643 1237h-614v110h731v-106l-643 -1243h678v-111h-795z" />
<glyph unicode="[" horiz-adv-x="1120" d="M418 -174v1763h284v-100h-182v-1563h182v-100h-284z" />
<glyph unicode="\" horiz-adv-x="1126" d="M236 1573h110l551 -1690h-109z" />
<glyph unicode="]" horiz-adv-x="1126" d="M422 -74h182v1563h-182v100h285v-1763h-285v100z" />
<glyph unicode="^" d="M283 942l278 518h109l274 -518h-113l-217 406l-217 -406h-114z" />
<glyph unicode="_" d="M70 -246h1087v-92h-1087v92z" />
<glyph unicode="`" d="M475 1518h131l148 -301h-123z" />
<glyph unicode="a" horiz-adv-x="1126" d="M166 324q0 140 94 217t242 77h340v132q0 129 -68.5 183t-189.5 54q-53 0 -98 -11.5t-83 -36.5t-59.5 -69.5t-21.5 -105.5h-113q0 70 23.5 128t61 95.5t87 63t100 36.5t101.5 11q72 0 135.5 -18.5t118 -56.5t86.5 -107t32 -160v-756h-112v125q-103 -143 -324 -143 q-68 0 -129.5 20t-112 59.5t-80.5 107.5t-30 155zM279 324q0 -68 21 -115t59.5 -71.5t83 -35t100.5 -10.5q119 0 209 73t90 195v156h-334q-108 0 -168.5 -46.5t-60.5 -145.5z" />
<glyph unicode="b" horiz-adv-x="1126" d="M174 0v1460h113v-489q107 127 276 127q180 0 284.5 -102t104.5 -279v-355q0 -175 -106 -278.5t-283 -103.5q-87 0 -160 32t-116 94v-106h-113zM287 362q0 -52 11.5 -95.5t40 -85.5t85.5 -66.5t139 -24.5q131 0 204 71.5t73 200.5v355q0 40 -7 75.5t-25.5 72.5t-48.5 63 t-80.5 42.5t-115.5 16.5q-132 0 -204 -70.5t-72 -199.5v-355z" />
<glyph unicode="c" horiz-adv-x="1126" d="M168 362v355q0 173 109 277t288 104q174 0 280 -96t113 -263h-110q-2 48 -17 89t-45.5 78.5t-87 59t-133.5 21.5q-133 0 -208.5 -71t-75.5 -199v-355q0 -51 13 -95.5t42.5 -86t88 -66t140.5 -24.5q124 0 199 63.5t82 178.5h112q-9 -161 -116.5 -256.5t-276.5 -95.5 q-182 0 -289.5 102t-107.5 280z" />
<glyph unicode="d" horiz-adv-x="1126" d="M172 362v355q0 177 104.5 279t284.5 102q172 0 279 -127v489h112v-1460h-112v106q-43 -62 -117.5 -94t-161.5 -32q-177 0 -283 103.5t-106 278.5zM285 362q0 -129 72.5 -200.5t203.5 -71.5q82 0 139.5 24.5t86.5 66.5t41 86t12 95v355q0 129 -73.5 199.5t-205.5 70.5 q-81 0 -138 -24t-85.5 -65.5t-40.5 -85.5t-12 -95v-355z" />
<glyph unicode="e" horiz-adv-x="1126" d="M166 362v355q0 173 109 277t288 104q181 0 288 -102.5t107 -278.5v-205h-679v-150q0 -51 13 -95.5t42.5 -86t88 -66t140.5 -24.5q124 0 199 63.5t82 178.5h112q-9 -161 -116.5 -256.5t-276.5 -95.5q-182 0 -289.5 102t-107.5 280zM279 621h567v96q0 40 -7.5 75.5t-27 72 t-50.5 63t-82 43t-116 16.5q-133 0 -208.5 -71t-75.5 -199v-96z" />
<glyph unicode="f" horiz-adv-x="1126" d="M137 856v111h215v200q0 150 92 230t226 80t225.5 -80t91.5 -230v-28h-113v39q0 93 -61 140.5t-143 47.5q-52 0 -97 -18.5t-76.5 -62.5t-31.5 -107v-211h326v-111h-326v-856h-113v856h-215z" />
<glyph unicode="g" horiz-adv-x="1126" d="M174 362v355q0 173 106.5 277t284.5 104q86 0 162 -32.5t113 -92.5v106h112v-1173q0 -84 -21.5 -149t-57 -106t-86.5 -67t-105 -36.5t-117 -10.5q-158 0 -263 85t-112 231h113q7 -99 77 -153t185 -54q44 0 78 4.5t73 20.5t64.5 43t42.5 76t17 116v200q-92 -126 -275 -126 q-182 0 -286.5 102t-104.5 280zM287 362q0 -51 12 -95t40.5 -86t86 -66.5t139.5 -24.5q130 0 202.5 71.5t72.5 200.5v355q0 40 -6.5 75.5t-25 72.5t-48 63t-80 42.5t-115.5 16.5q-132 0 -205 -70.5t-73 -199.5v-355z" />
<glyph unicode="h" horiz-adv-x="1126" d="M176 0v1460h113v-497q118 135 299 135q176 0 273 -97.5t97 -283.5v-717h-112v717q0 136 -67.5 203t-190.5 67q-127 0 -213 -74.5t-86 -195.5v-717h-113z" />
<glyph unicode="i" horiz-adv-x="1126" d="M178 969v110h443v-968h325v-111h-766v111h328v858h-330zM483 1294v183h158v-183h-158z" />
<glyph unicode="j" horiz-adv-x="1126" d="M172 -125h113v-39q0 -93 61 -140.5t143 -47.5q52 0 97 18.5t76.5 62.5t31.5 107v1133h-403v110h516v-1233q0 -150 -92 -229.5t-226 -79.5t-225.5 79.5t-91.5 229.5v29zM670 1294v183h157v-183h-157z" />
<glyph unicode="k" horiz-adv-x="1126" d="M184 0v1460h113v-944l530 563h142l-404 -440l422 -639h-135l-365 557l-190 -201v-356h-113z" />
<glyph unicode="l" horiz-adv-x="1126" d="M180 0v111h328v1239h-313v110h426v-1349h325v-111h-766z" />
<glyph unicode="m" horiz-adv-x="1331" d="M135 0v1079h113v-106q44 74 97 99.5t126 25.5q74 0 129 -40.5t82 -111.5q52 86 113 119t137 33q131 0 196.5 -84t65.5 -219v-795h-113v780q0 207 -157 207q-111 0 -157 -74t-46 -221v-692h-113v774q0 90 -36 151.5t-113 61.5q-113 0 -162 -74.5t-49 -222.5v-690h-113z " />
<glyph unicode="n" horiz-adv-x="1126" d="M176 0v1079h113v-116q118 135 299 135q176 0 273 -97.5t97 -283.5v-717h-112v717q0 136 -67.5 203t-190.5 67q-127 0 -213 -74.5t-86 -195.5v-717h-113z" />
<glyph unicode="o" horiz-adv-x="1126" d="M166 362v355q0 173 109 277t288 104q181 0 288 -102.5t107 -278.5v-355q0 -174 -108.5 -278t-286.5 -104q-182 0 -289.5 102t-107.5 280zM279 362q0 -51 13 -95.5t42.5 -86t88 -66t140.5 -24.5q131 0 207 72t76 200v355q0 40 -7.5 75.5t-27 72t-50.5 63t-82 43t-116 16.5 q-133 0 -208.5 -71t-75.5 -199v-355z" />
<glyph unicode="p" horiz-adv-x="1126" d="M172 -444v1523h113v-104q88 123 276 123q178 0 284.5 -104t106.5 -277v-355q0 -178 -104.5 -280t-286.5 -102q-86 0 -160 32t-116 97v-553h-113zM285 362q0 -129 72.5 -200.5t203.5 -71.5q82 0 139.5 24.5t86.5 66.5t41 86t12 95v355q0 129 -73.5 199.5t-205.5 70.5 q-81 0 -138 -24t-85.5 -65.5t-40.5 -85.5t-12 -95v-355z" />
<glyph unicode="q" horiz-adv-x="1126" d="M174 362v355q0 173 106.5 277t284.5 104q181 0 275 -123v104h112v-1523h-112v553q-51 -71 -119 -100t-156 -29q-182 0 -286.5 102t-104.5 280zM287 362q0 -51 12 -95t40.5 -86t86 -66.5t139.5 -24.5q130 0 202.5 71.5t72.5 200.5v355q0 40 -6.5 75.5t-25 72.5t-48 63 t-80 42.5t-115.5 16.5q-132 0 -205 -70.5t-73 -199.5v-355z" />
<glyph unicode="r" horiz-adv-x="1126" d="M258 0v1079h113v-129q39 70 120 109t148 39q66 0 124 -19.5t104 -57.5t73 -100.5t27 -142.5v-20h-113v30q0 68 -33 114.5t-79.5 65.5t-102.5 19q-39 0 -83 -17.5t-86.5 -50.5t-70.5 -91t-28 -130v-698h-113z" />
<glyph unicode="s" horiz-adv-x="1126" d="M168 319h113q0 -108 75 -167.5t203 -59.5q285 0 285 219q0 113 -146 156q-55 16 -284 68q-99 23 -164.5 92.5t-65.5 165.5q0 103 52.5 173.5t133.5 101t183 30.5q174 0 281 -88.5t108 -245.5h-113q-2 106 -72.5 164.5t-207.5 58.5q-50 0 -92 -9t-79.5 -29.5t-59 -60 t-21.5 -95.5q0 -54 40 -95.5t105 -56.5q252 -56 293 -68q100 -29 160.5 -96t60.5 -166q0 -87 -31.5 -152t-87.5 -103t-125.5 -56t-152.5 -18q-173 0 -282 90.5t-109 246.5z" />
<glyph unicode="t" horiz-adv-x="1126" d="M137 967v110h215v381h113v-381h409v-110h-409v-668q0 -63 31.5 -107t76.5 -62.5t97 -18.5q82 0 143 47.5t61 140.5v39h113v-29q0 -150 -91.5 -229.5t-225.5 -79.5t-226 79.5t-92 229.5v658h-215z" />
<glyph unicode="u" horiz-adv-x="1126" d="M168 362v717h113v-717q0 -40 7 -75.5t26.5 -72t49.5 -63t81 -43t116 -16.5q124 0 202.5 70.5t78.5 187.5v729h112v-1079h-112v109q-96 -127 -281 -127q-182 0 -287.5 101.5t-105.5 278.5z" />
<glyph unicode="v" horiz-adv-x="1126" d="M152 1079h116l281 -975h31l278 975h117l-311 -1079h-199z" />
<glyph unicode="w" horiz-adv-x="1331" d="M127 1079h115l172 -948l200 750h99l202 -750l170 948h117l-209 -1079h-149l-180 690l-183 -690h-145z" />
<glyph unicode="x" horiz-adv-x="1126" d="M152 0l346 543l-346 536h131l282 -438l273 438h135l-346 -534l346 -545h-131l-279 451l-280 -451h-131z" />
<glyph unicode="y" horiz-adv-x="1126" d="M150 1079h118l279 -975h39l272 975h117l-369 -1290q-23 -82 -50 -132.5t-66 -76.5t-81.5 -34.5t-109.5 -8.5h-51v111h78q76 0 112 26t58 109l65 217h-98z" />
<glyph unicode="z" horiz-adv-x="1126" d="M193 0v109l569 858h-549v110h674v-108l-570 -858h615v-111h-739z" />
<glyph unicode="{" horiz-adv-x="1024" d="M272 684v111h150v565q0 121 54 176t179 55h47v-104h-36q-81 0 -107.5 -26t-26.5 -103v-1256q0 -79 26.5 -110t107.5 -31h36v-106h-47q-121 0 -177 54t-56 177v598h-150z" />
<glyph unicode="|" horiz-adv-x="716" d="M307 -221v1861h105v-1861h-105z" />
<glyph unicode="}" horiz-adv-x="1024" d="M322 -39h36q81 0 107.5 31t26.5 110v1256q0 77 -26.5 103t-107.5 26h-36v104h47q125 0 179 -55t54 -176v-565h150v-111h-150v-598q0 -123 -56 -177t-177 -54h-47v106z" />
<glyph unicode="~" d="M203 586q104 119 241 119q55 0 118 -25.5t120.5 -51.5t99.5 -26q93 0 160 78l76 -68q-99 -114 -242 -114q-56 0 -117 25.5t-117.5 51t-101.5 25.5q-85 0 -161 -82z" />
<glyph unicode="&#xa1;" d="M528 944v170h170v-170h-170zM553 -342v1032h113v-1032h-113z" />
<glyph unicode="&#xa2;" d="M219 362v355q0 159 94.5 261.5t251.5 117.5v290h103v-290q152 -15 244 -110t98 -247h-111q-5 93 -59 161.5t-172 82.5v-891q100 12 161 75t68 165h113q-9 -149 -101.5 -242.5t-240.5 -107.5v-291h-103v291q-161 14 -253.5 114.5t-92.5 265.5zM332 362q0 -47 11 -88.5 t35.5 -81.5t72 -66.5t114.5 -33.5v891q-111 -12 -172 -81.5t-61 -184.5v-355z" />
<glyph unicode="&#xa3;" d="M197 725v111h79v260q0 166 101.5 270t271.5 104q167 0 275 -105t108 -269h-112q0 64 -19 113.5t-47.5 77t-67.5 45t-72 23t-67 5.5q-36 0 -69 -6.5t-68.5 -24t-61.5 -45.5t-42.5 -75.5t-16.5 -108.5v-264h453v-111h-453v-614h641v-111h-754v725h-79z" />
<glyph unicode="&#xa5;" d="M176 1460h119l319 -794l320 794h119l-342 -833h252v-103h-293v-200h293v-103h-293v-221h-113v221h-289v103h289v198l-2 2h-287v103h246z" />
<glyph unicode="&#xa6;" horiz-adv-x="716" d="M307 -221v778h105v-778h-105zM307 862v778h105v-778h-105z" />
<glyph unicode="&#xa7;" d="M213 319h113q0 -108 74.5 -166.5t203.5 -58.5q289 0 289 217q0 63 -37.5 104.5t-99.5 55.5q-36 8 -147.5 32.5t-178.5 39.5q-89 19 -146 86t-57 164q0 123 76 202q-61 67 -61 170q0 78 29.5 137.5t81.5 95t117 53t140 17.5q176 0 282.5 -88.5t106.5 -246.5h-110 q0 107 -72 166t-211 59q-51 0 -93.5 -8.5t-82 -29t-62 -60t-22.5 -95.5q0 -55 35 -95.5t96 -53.5q67 -15 174 -38.5t144 -31.5q98 -22 159.5 -92t61.5 -170q0 -128 -70 -211q55 -68 55 -162q0 -87 -31.5 -152t-87.5 -102t-125.5 -55t-152.5 -18q-174 0 -282.5 90t-108.5 245 zM332 793q0 -55 35 -96t96 -54q68 -15 175 -38.5t142 -31.5q42 -9 80 -30q47 53 47 141q0 63 -37.5 104.5t-99.5 55.5q-36 8 -147.5 32t-178.5 39q-34 8 -53 17q-59 -49 -59 -139z" />
<glyph unicode="&#xa8;" d="M319 1292v185h148v-185h-148zM760 1292v185h147v-185h-147z" />
<glyph unicode="&#xa9;" horiz-adv-x="1792" d="M162 723q0 200 98.5 369t267.5 267.5t369 98.5t368.5 -98.5t266.5 -267.5t98 -369t-98 -369t-266.5 -267.5t-368.5 -98.5t-369 98.5t-267.5 267.5t-98.5 369zM264 723q0 -130 50.5 -247t135.5 -201.5t202 -134.5t245 -50t245 50t201.5 134.5t134.5 201.5t50 247 q0 129 -50 246t-134.5 202t-201.5 135t-245 50t-245 -50t-202 -134.5t-135.5 -201.5t-50.5 -247zM659 530v392q0 24 5 50t20.5 57t39 55t65 40.5t94.5 16.5q52 0 93 -16.5t64.5 -41t38.5 -56t20 -57.5t5 -50h-94q0 39 -12.5 65.5t-33 39t-40 17.5t-41.5 5q-21 0 -40.5 -5 t-41 -17.5t-34.5 -40t-13 -66.5v-386q0 -39 13 -67t34.5 -40.5t41 -18t40.5 -5.5t41 5t40.5 18t33 40t12.5 66h94q0 -32 -9.5 -66t-32 -71.5t-70 -61.5t-113.5 -24q-52 0 -93 16.5t-64 41t-38 56.5t-20 58t-5 51z" />
<glyph unicode="&#xaa;" horiz-adv-x="716" d="M100 975q0 96 62.5 147.5t165.5 51.5h204v73q0 146 -153 146q-68 0 -112 -36t-44 -112h-94q0 61 23 109.5t60.5 75.5t79.5 41t85 14q66 0 120 -21.5t92 -76t38 -136.5v-487h-95v63q-77 -77 -184 -77q-112 0 -180 54t-68 171zM195 975q0 -78 41 -105.5t116 -27.5 q74 0 127 39t53 112v94h-202q-135 0 -135 -112z" />
<glyph unicode="&#xab;" d="M221 543l371 370v-147l-225 -223l225 -226v-145zM637 543l371 370v-147l-228 -223l228 -226v-145z" />
<glyph unicode="&#xac;" d="M197 528v107h833v-504h-112v397h-721z" />
<glyph unicode="&#xad;" d="M319 522v111h588v-111h-588z" />
<glyph unicode="&#xae;" horiz-adv-x="1792" d="M162 723q0 200 98.5 369t267.5 267.5t369 98.5t368.5 -98.5t266.5 -267.5t98 -369t-98 -369t-266.5 -267.5t-368.5 -98.5t-369 98.5t-267.5 267.5t-98.5 369zM264 723q0 -130 50.5 -247t135.5 -201.5t202 -134.5t245 -50t245 50t201.5 134.5t134.5 201.5t50 247t-50 247 t-134.5 201.5t-201.5 134.5t-245 50t-245 -50t-202 -134.5t-135.5 -201.5t-50.5 -247zM682 311v809h246q65 0 112 -24t69 -61t31 -70t9 -64v-41q0 -27 -7 -55.5t-23.5 -61t-50 -57.5t-79.5 -35l168 -340h-104l-162 330h-115v-330h-94zM776 733h154q20 0 39.5 5.5t40 18 t33 39.5t12.5 64v37q0 39 -12.5 66t-33 40t-40.5 18t-41 5h-152v-293z" />
<glyph unicode="&#xaf;" d="M311 1257v105h607v-105h-607z" />
<glyph unicode="&#xb0;" d="M358 1206q0 106 75 181t179 75q107 0 182.5 -74.5t75.5 -181.5q0 -105 -75.5 -180.5t-182.5 -75.5q-104 0 -179 76t-75 180zM451 1206q0 -66 47.5 -112.5t113.5 -46.5q68 0 116 46.5t48 112.5q0 67 -48 114.5t-116 47.5q-66 0 -113.5 -47.5t-47.5 -114.5z" />
<glyph unicode="&#xb1;" d="M193 0v102h839v-102h-839zM193 530v103h368v336h105v-336h368v-103h-368v-342h-105v342h-368z" />
<glyph unicode="&#xb2;" horiz-adv-x="716" d="M113 930v145q0 45 16 80.5t49 63t60.5 44t72.5 37.5q98 42 146.5 79.5t48.5 93.5q0 70 -38.5 107.5t-109.5 37.5q-64 0 -104.5 -40.5t-44.5 -111.5h-96q6 105 75 174.5t170 69.5q108 0 176 -64.5t68 -170.5q0 -56 -20 -91t-64 -77q-33 -28 -164 -88q-34 -16 -54.5 -28 t-43.5 -30.5t-34 -41.5t-11 -52v-45h387v-92h-485z" />
<glyph unicode="&#xb3;" horiz-adv-x="716" d="M119 1137h96q11 -67 54.5 -97t86.5 -30q18 0 34.5 2t38 10t36.5 21t26 38t11 58v22q0 41 -15.5 69.5t-40.5 41t-46.5 17.5t-43.5 5h-63v76l176 234h-317v92h430v-90l-172 -222q190 -34 190 -221v-24q0 -24 -7 -51.5t-25 -58t-44.5 -55t-69.5 -40.5t-96 -16q-61 0 -107 20 t-73 53.5t-41 69.5t-18 76z" />
<glyph unicode="&#xb4;" d="M475 1217l148 301h131l-156 -301h-123z" />
<glyph unicode="&#xb5;" horiz-adv-x="1126" d="M168 -465v1544h113v-717q0 -40 6.5 -75.5t25.5 -72.5t49 -63t80.5 -42.5t116.5 -16.5q124 0 202.5 70.5t78.5 187.5v729h112v-1079h-112v109q-96 -127 -281 -127q-173 0 -278 94v-541h-113z" />
<glyph unicode="&#xb6;" d="M199 1135q0 169 95.5 253.5t270.5 84.5h439v-1473h-113v1362h-211v-1362h-113v819q-165 0 -266.5 90.5t-101.5 225.5z" />
<glyph unicode="&#xb7;" d="M524 457v180h178v-180h-178z" />
<glyph unicode="&#xb8;" d="M463 -381l160 293h125l-156 -293h-129z" />
<glyph unicode="&#xb9;" horiz-adv-x="716" d="M139 930v94h178v584l-133 -13v93l230 20v-684h174v-94h-449z" />
<glyph unicode="&#xba;" horiz-adv-x="716" d="M98 1006v225q0 115 70.5 184.5t187.5 69.5q120 0 190 -68.5t70 -185.5v-225q0 -116 -71 -185t-189 -69q-119 0 -188.5 68t-69.5 186zM199 1006q0 -65 35.5 -110.5t121.5 -45.5q75 0 117.5 42t42.5 114v225q0 29 -7 54t-24 49t-50 38t-79 14q-73 0 -115 -41.5t-42 -113.5 v-225z" />
<glyph unicode="&#xbb;" d="M221 174v145l225 226l-225 223v147l369 -370zM637 174v145l223 226l-223 223v147l369 -370z" />
<glyph unicode="&#xbc;" horiz-adv-x="1433" d="M129 680v98h178v578l-133 -13v97l234 20v-682h172v-98h-451zM455 -20l489 1482h105l-488 -1482h-106zM852 186v99l201 483h102l-201 -483h250v293h101v-578h-101v186h-352z" />
<glyph unicode="&#xbd;" horiz-adv-x="1433" d="M88 680v98h178v578l-133 -13v97l234 20v-682h172v-98h-451zM420 -20l489 1482h105l-488 -1482h-106zM854 0v147q0 46 16 82t50.5 64t60.5 43t74 39q110 50 140 73q49 40 50 95q0 69 -37.5 106t-105.5 37q-64 0 -104.5 -40t-43.5 -111h-100q5 108 74.5 177.5t173.5 69.5 q108 0 176 -64.5t68 -172.5q0 -58 -20.5 -93t-63.5 -75q-31 -29 -164 -88q-70 -33 -106 -65t-36 -85v-43h385v-96h-487z" />
<glyph unicode="&#xbe;" horiz-adv-x="1433" d="M115 922h100q2 -42 17.5 -72.5t38 -45t43.5 -20.5t42 -6q142 0 142 127v23q0 33 -10.5 57.5t-25.5 38t-36 22t-37 11t-33 2.5h-65v78l172 229h-313v96h432v-94l-168 -217q186 -35 186 -221v-25q0 -31 -12.5 -66.5t-38 -72t-75.5 -60.5t-116 -24q-65 0 -114 23t-75.5 60.5 t-39 76.5t-14.5 80zM455 -20l489 1482h105l-488 -1482h-106zM852 186v99l201 483h102l-201 -483h250v293h101v-578h-101v186h-352z" />
<glyph unicode="&#xbf;" d="M213 12q0 126 88 228q36 43 124.5 109.5t119.5 99.5q59 62 59 184v51h113v-45q0 -158 -90 -256q-39 -43 -123 -104.5t-117 -98.5q-61 -68 -61 -166q0 -139 74 -213.5t212 -74.5q33 0 66 5.5t74 22.5t72 44.5t53.5 77t25.5 114.5h113q0 -42 -11.5 -88.5t-41 -98 t-73.5 -91.5t-116.5 -66.5t-161.5 -26.5q-178 0 -288.5 109t-110.5 284zM571 924v170h168v-170h-168z" />
<glyph unicode="&#xc0;" d="M92 0l422 1460h195l430 -1460h-117l-123 426h-567l-125 -426h-115zM360 535h508l-239 825h-29zM414 1901h131l147 -302h-123z" />
<glyph unicode="&#xc1;" d="M92 0l422 1460h195l430 -1460h-117l-123 426h-567l-125 -426h-115zM360 535h508l-239 825h-29zM518 1599l148 302h131l-156 -302h-123z" />
<glyph unicode="&#xc2;" d="M92 0l422 1460h195l430 -1460h-117l-123 426h-567l-125 -426h-115zM348 1599l205 302h113l204 -302h-125l-135 203l-135 -203h-127zM360 535h508l-239 825h-29z" />
<glyph unicode="&#xc3;" d="M92 0l422 1460h195l430 -1460h-117l-123 426h-567l-125 -426h-115zM305 1677q54 62 96.5 83.5t85.5 21.5q55 0 142 -36.5t121 -37.5q56 0 116 70l70 -66q-90 -104 -182 -104q-55 0 -139.5 36.5t-122.5 36.5q-53 0 -115 -67zM360 535h508l-239 825h-29z" />
<glyph unicode="&#xc4;" d="M92 0l422 1460h195l430 -1460h-117l-123 426h-567l-125 -426h-115zM315 1624v184h148v-184h-148zM360 535h508l-239 825h-29zM756 1624v184h147v-184h-147z" />
<glyph unicode="&#xc5;" d="M92 0l422 1460h195l430 -1460h-117l-123 426h-567l-125 -426h-115zM360 535h508l-239 825h-29zM408 1757q0 85 59.5 145t142.5 60q86 0 146.5 -59.5t60.5 -145.5q0 -84 -60.5 -144.5t-146.5 -60.5q-83 0 -142.5 60.5t-59.5 144.5zM494 1757q0 -47 34.5 -82t81.5 -35 q49 0 85 35t36 82q0 49 -35.5 84t-85.5 35q-47 0 -81.5 -35t-34.5 -84z" />
<glyph unicode="&#xc6;" horiz-adv-x="1843" d="M193 0l380 1460h1076v-110h-656v-521h604v-110h-604v-608h656v-111h-768v426h-467l-113 -426h-108zM440 537h441v813h-226z" />
<glyph unicode="&#xc7;" d="M211 356v744q0 169 109 272t294 103q182 0 292 -104t110 -273h-113q0 135 -80 200.5t-209 65.5q-130 0 -210 -65.5t-80 -202.5v-736q0 -137 80 -202.5t210 -65.5q129 0 209 65.5t80 202.5h113v-2q0 -169 -110 -272.5t-292 -103.5q-185 0 -294 102.5t-109 271.5zM399 -381 l160 293h125l-156 -293h-129z" />
<glyph unicode="&#xc8;" d="M231 0v1460h766v-110h-653v-541h604v-111h-604v-587h653v-111h-766zM449 1903h131l147 -301h-123z" />
<glyph unicode="&#xc9;" d="M231 0v1460h766v-110h-653v-541h604v-111h-604v-587h653v-111h-766zM506 1599l147 302h131l-155 -302h-123z" />
<glyph unicode="&#xca;" d="M231 0v1460h766v-110h-653v-541h604v-111h-604v-587h653v-111h-766zM354 1599l205 302h113l205 -302h-125l-136 203l-135 -203h-127z" />
<glyph unicode="&#xcb;" d="M231 0v1460h766v-110h-653v-541h604v-111h-604v-587h653v-111h-766zM324 1622v184h147v-184h-147zM764 1622v184h147v-184h-147z" />
<glyph unicode="&#xcc;" d="M221 0v111h336v1239h-336v110h785v-110h-336v-1239h336v-111h-785zM406 1901h131l147 -302h-123z" />
<glyph unicode="&#xcd;" d="M221 0v111h336v1239h-336v110h785v-110h-336v-1239h336v-111h-785zM539 1599l147 302h131l-155 -302h-123z" />
<glyph unicode="&#xce;" d="M221 0v111h336v1239h-336v110h785v-110h-336v-1239h336v-111h-785zM342 1599l205 302h112l205 -302h-125l-135 203l-135 -203h-127z" />
<glyph unicode="&#xcf;" d="M221 0v111h336v1239h-336v110h785v-110h-336v-1239h336v-111h-785zM309 1624v184h148v-184h-148zM750 1624v184h147v-184h-147z" />
<glyph unicode="&#xd0;" d="M147 723v102h127v637h422q91 0 162 -28t111.5 -69t66.5 -94.5t34.5 -98t8.5 -85.5v-706q0 -43 -8.5 -88t-33.5 -99.5t-64.5 -96t-109 -69.5t-158.5 -28h-431v723h-127zM387 111h313q33 0 65 5.5t70 23.5t66 46.5t47 79t19 117.5v698q0 67 -19.5 117.5t-48 79t-67 46 t-71 23t-65.5 5.5h-309v-527h348v-102h-348v-612z" />
<glyph unicode="&#xd1;" d="M207 0v1460h151l551 -1294v1294h113v-1460h-158l-545 1280v-1280h-112zM293 1671q54 62 96.5 83.5t85.5 21.5q55 0 141.5 -36.5t120.5 -37.5q57 0 117 70l70 -66q-90 -104 -183 -104q-55 0 -139.5 36.5t-122.5 36.5q-52 0 -114 -67z" />
<glyph unicode="&#xd2;" d="M211 356v744q0 169 109 272t294 103q182 0 292 -104t110 -273v-740q0 -169 -110 -272.5t-292 -103.5q-185 0 -294 102.5t-109 271.5zM324 360q0 -137 80 -202.5t210 -65.5q129 0 209 65.5t80 202.5v736q0 137 -80 202.5t-209 65.5q-130 0 -210 -65.5t-80 -202.5v-736z M438 1901h131l148 -302h-123z" />
<glyph unicode="&#xd3;" d="M211 356v744q0 169 109 272t294 103q182 0 292 -104t110 -273v-740q0 -169 -110 -272.5t-292 -103.5q-185 0 -294 102.5t-109 271.5zM324 360q0 -137 80 -202.5t210 -65.5q129 0 209 65.5t80 202.5v736q0 137 -80 202.5t-209 65.5q-130 0 -210 -65.5t-80 -202.5v-736z M516 1599l148 302h131l-156 -302h-123z" />
<glyph unicode="&#xd4;" d="M211 356v744q0 169 109 272t294 103q182 0 292 -104t110 -273v-740q0 -169 -110 -272.5t-292 -103.5q-185 0 -294 102.5t-109 271.5zM324 360q0 -137 80 -202.5t210 -65.5q129 0 209 65.5t80 202.5v736q0 137 -80 202.5t-209 65.5q-130 0 -210 -65.5t-80 -202.5v-736z M354 1599l205 302h113l205 -302h-125l-136 203l-135 -203h-127z" />
<glyph unicode="&#xd5;" d="M211 356v744q0 169 109 272t294 103q182 0 292 -104t110 -273v-740q0 -169 -110 -272.5t-292 -103.5q-185 0 -294 102.5t-109 271.5zM283 1677q54 62 96.5 83.5t85.5 21.5q55 0 141.5 -36.5t120.5 -37.5q57 0 117 70l69 -66q-90 -104 -182 -104q-55 0 -139.5 36.5 t-122.5 36.5q-53 0 -115 -67zM324 360q0 -137 80 -202.5t210 -65.5q129 0 209 65.5t80 202.5v736q0 137 -80 202.5t-209 65.5q-130 0 -210 -65.5t-80 -202.5v-736z" />
<glyph unicode="&#xd6;" d="M211 356v744q0 169 109 272t294 103q182 0 292 -104t110 -273v-740q0 -169 -110 -272.5t-292 -103.5q-185 0 -294 102.5t-109 271.5zM322 1622v184h147v-184h-147zM324 360q0 -137 80 -202.5t210 -65.5q129 0 209 65.5t80 202.5v736q0 137 -80 202.5t-209 65.5 q-130 0 -210 -65.5t-80 -202.5v-736zM762 1622v184h147v-184h-147z" />
<glyph unicode="&#xd7;" d="M221 231l322 322l-322 321l72 72l321 -321l322 321l72 -72l-322 -321l322 -322l-72 -71l-322 321l-321 -321z" />
<glyph unicode="&#xd8;" d="M211 362v738q0 33 8 70t25 80.5t49 82.5t74.5 71.5t106.5 51.5t140 19q106 0 181 -35l45 139h110l-65 -199q67 -57 99 -136.5t32 -145.5v-738q0 -41 -11 -87.5t-40 -99.5t-72.5 -94.5t-116.5 -69t-164 -27.5q-94 0 -172 30l-41 -123h-114l59 183q-68 59 -100.5 140 t-32.5 150zM324 362q0 -113 57 -180l379 1153q-67 29 -146 29q-33 0 -66.5 -5t-75.5 -22.5t-73.5 -45t-53 -78.5t-21.5 -117v-734zM473 119q60 -27 141 -27q33 0 66.5 5.5t75.5 23t73 45.5t52.5 79t21.5 117v734q0 107 -55 172z" />
<glyph unicode="&#xd9;" d="M211 356v1104h113v-1100q0 -137 80 -202.5t210 -65.5q129 0 209 65.5t80 202.5v1100h113v-1102q0 -169 -110 -272.5t-292 -103.5q-185 0 -294 102.5t-109 271.5zM422 1901h131l147 -302h-122z" />
<glyph unicode="&#xda;" d="M211 356v1104h113v-1100q0 -137 80 -202.5t210 -65.5q129 0 209 65.5t80 202.5v1100h113v-1102q0 -169 -110 -272.5t-292 -103.5q-185 0 -294 102.5t-109 271.5zM506 1599l147 302h131l-155 -302h-123z" />
<glyph unicode="&#xdb;" d="M211 356v1104h113v-1100q0 -137 80 -202.5t210 -65.5q129 0 209 65.5t80 202.5v1100h113v-1102q0 -169 -110 -272.5t-292 -103.5q-185 0 -294 102.5t-109 271.5zM354 1599l205 302h113l205 -302h-125l-136 203l-135 -203h-127z" />
<glyph unicode="&#xdc;" d="M211 356v1104h113v-1100q0 -137 80 -202.5t210 -65.5q129 0 209 65.5t80 202.5v1100h113v-1102q0 -169 -110 -272.5t-292 -103.5q-185 0 -294 102.5t-109 271.5zM317 1624v184h148v-184h-148zM758 1624v184h147v-184h-147z" />
<glyph unicode="&#xdd;" d="M172 1460h123l319 -794l320 794h123l-387 -934v-526h-113v528zM475 1599l148 302h131l-156 -302h-123z" />
<glyph unicode="&#xde;" d="M211 0v1460h113v-276h309q91 0 162 -28t111.5 -69t66.5 -94.5t34.5 -98t8.5 -85.5v-111q0 -43 -8.5 -88t-34 -99t-65 -95t-109 -69t-158.5 -28h-317v-319h-113zM324 430h309q33 0 65 5.5t71 23t67 45.5t47.5 78.5t19.5 117.5v105q0 67 -20 117t-48.5 78t-68 45.5 t-71.5 22.5t-66 5h-305v-643z" />
<glyph unicode="&#xdf;" horiz-adv-x="1126" d="M174 0v1098q0 42 8 86t32.5 98t64 94.5t109.5 68.5t161 28q90 0 159 -28t107.5 -69.5t63 -95.5t32 -98.5t7.5 -87.5q0 -92 -40.5 -170.5t-117.5 -104.5q65 -22 110 -64t65 -92.5t28 -91t8 -79.5v-111q0 -43 -8.5 -88.5t-34 -100t-65 -95.5t-109 -69t-158.5 -28h-107v111 h103q33 0 65 5.5t70 23.5t65.5 46t46.5 78.5t19 116.5v104q0 67 -17 117.5t-42.5 79t-60.5 46t-65 23t-63 5.5h-47v110h53q92 0 140.5 60.5t48.5 165.5q0 67 -18 117.5t-44.5 78.5t-63 45.5t-67.5 23t-63 5.5q-33 0 -64.5 -5.5t-69 -23t-64.5 -45.5t-45.5 -78.5 t-18.5 -117.5v-1092h-113z" />
<glyph unicode="&#xe0;" horiz-adv-x="1126" d="M166 324q0 140 94 217t242 77h340v132q0 129 -68.5 183t-189.5 54q-53 0 -98 -11.5t-83 -36.5t-59.5 -69.5t-21.5 -105.5h-113q0 70 23.5 128t61 95.5t87 63t100 36.5t101.5 11q72 0 135.5 -18.5t118 -56.5t86.5 -107t32 -160v-756h-112v125q-103 -143 -324 -143 q-68 0 -129.5 20t-112 59.5t-80.5 107.5t-30 155zM279 324q0 -68 21 -115t59.5 -71.5t83 -35t100.5 -10.5q119 0 209 73t90 195v156h-334q-108 0 -168.5 -46.5t-60.5 -145.5zM371 1518h131l147 -301h-123z" />
<glyph unicode="&#xe1;" horiz-adv-x="1126" d="M166 324q0 140 94 217t242 77h340v132q0 129 -68.5 183t-189.5 54q-53 0 -98 -11.5t-83 -36.5t-59.5 -69.5t-21.5 -105.5h-113q0 70 23.5 128t61 95.5t87 63t100 36.5t101.5 11q72 0 135.5 -18.5t118 -56.5t86.5 -107t32 -160v-756h-112v125q-103 -143 -324 -143 q-68 0 -129.5 20t-112 59.5t-80.5 107.5t-30 155zM279 324q0 -68 21 -115t59.5 -71.5t83 -35t100.5 -10.5q119 0 209 73t90 195v156h-334q-108 0 -168.5 -46.5t-60.5 -145.5zM461 1217l147 301h131l-155 -301h-123z" />
<glyph unicode="&#xe2;" horiz-adv-x="1126" d="M166 324q0 140 94 217t242 77h340v132q0 129 -68.5 183t-189.5 54q-53 0 -98 -11.5t-83 -36.5t-59.5 -69.5t-21.5 -105.5h-113q0 70 23.5 128t61 95.5t87 63t100 36.5t101.5 11q72 0 135.5 -18.5t118 -56.5t86.5 -107t32 -160v-756h-112v125q-103 -143 -324 -143 q-68 0 -129.5 20t-112 59.5t-80.5 107.5t-30 155zM279 324q0 -68 21 -115t59.5 -71.5t83 -35t100.5 -10.5q119 0 209 73t90 195v156h-334q-108 0 -168.5 -46.5t-60.5 -145.5zM324 1214l204 302h113l205 -302h-125l-135 203l-135 -203h-127z" />
<glyph unicode="&#xe3;" horiz-adv-x="1126" d="M166 324q0 140 94 217t242 77h340v132q0 129 -68.5 183t-189.5 54q-53 0 -98 -11.5t-83 -36.5t-59.5 -69.5t-21.5 -105.5h-113q0 70 23.5 128t61 95.5t87 63t100 36.5t101.5 11q72 0 135.5 -18.5t118 -56.5t86.5 -107t32 -160v-756h-112v125q-103 -143 -324 -143 q-68 0 -129.5 20t-112 59.5t-80.5 107.5t-30 155zM270 1352q53 62 96 83t87 21q55 0 141.5 -36.5t120.5 -37.5q56 0 116 70l70 -66q-90 -104 -182 -104q-55 0 -139.5 37t-122.5 37q-52 0 -115 -68zM279 324q0 -68 21 -115t59.5 -71.5t83 -35t100.5 -10.5q119 0 209 73 t90 195v156h-334q-108 0 -168.5 -46.5t-60.5 -145.5z" />
<glyph unicode="&#xe4;" horiz-adv-x="1126" d="M166 324q0 140 94 217t242 77h340v132q0 129 -68.5 183t-189.5 54q-53 0 -98 -11.5t-83 -36.5t-59.5 -69.5t-21.5 -105.5h-113q0 70 23.5 128t61 95.5t87 63t100 36.5t101.5 11q72 0 135.5 -18.5t118 -56.5t86.5 -107t32 -160v-756h-112v125q-103 -143 -324 -143 q-68 0 -129.5 20t-112 59.5t-80.5 107.5t-30 155zM272 1292v185h148v-185h-148zM279 324q0 -68 21 -115t59.5 -71.5t83 -35t100.5 -10.5q119 0 209 73t90 195v156h-334q-108 0 -168.5 -46.5t-60.5 -145.5zM713 1292v185h147v-185h-147z" />
<glyph unicode="&#xe5;" horiz-adv-x="1126" d="M166 324q0 140 94 217t242 77h340v132q0 129 -68.5 183t-189.5 54q-53 0 -98 -11.5t-83 -36.5t-59.5 -69.5t-21.5 -105.5h-113q0 70 23.5 128t61 95.5t87 63t100 36.5t101.5 11q72 0 135.5 -18.5t118 -56.5t86.5 -107t32 -160v-756h-112v125q-103 -143 -324 -143 q-68 0 -129.5 20t-112 59.5t-80.5 107.5t-30 155zM279 324q0 -68 21 -115t59.5 -71.5t83 -35t100.5 -10.5q119 0 209 73t90 195v156h-334q-108 0 -168.5 -46.5t-60.5 -145.5zM367 1403q0 85 59.5 145t142.5 60q86 0 146.5 -59.5t60.5 -145.5q0 -84 -60.5 -144.5 t-146.5 -60.5q-83 0 -142.5 60.5t-59.5 144.5zM453 1403q0 -47 34.5 -82t81.5 -35q49 0 85 35t36 82q0 49 -35.5 84t-85.5 35q-47 0 -81.5 -35t-34.5 -84z" />
<glyph unicode="&#xe6;" horiz-adv-x="1740" d="M135 324q0 140 94 217t242 77h340v132q0 129 -68.5 183t-189.5 54q-53 0 -98 -11.5t-83 -36.5t-59.5 -69.5t-21.5 -105.5h-113q0 70 23.5 128t61 95.5t87 63t100 36.5t101.5 11q103 0 190.5 -38t135.5 -118q53 75 137.5 115.5t193.5 40.5q181 0 288.5 -102.5 t107.5 -278.5v-205h-680v-168q2 -49 16 -91t44.5 -80t88 -60.5t135.5 -22.5q124 0 199 63.5t82 178.5h113q-9 -161 -117 -256.5t-277 -95.5q-123 0 -214 47t-138 135q-58 -90 -154.5 -135t-214.5 -45q-68 0 -129.5 20t-112 59.5t-80.5 107.5t-30 155zM248 324q0 -68 21 -115 t59.5 -71.5t83 -35t100.5 -10.5q115 0 204 69.5t95 186.5v168h-334q-108 0 -168.5 -46.5t-60.5 -145.5zM924 621h567v96q0 40 -7.5 75.5t-27 72t-50.5 63t-82 43t-116 16.5q-130 0 -205.5 -68t-78.5 -190v-108z" />
<glyph unicode="&#xe7;" horiz-adv-x="1126" d="M168 362v355q0 173 109 277t288 104q174 0 280 -96t113 -263h-110q-2 48 -17 89t-45.5 78.5t-87 59t-133.5 21.5q-133 0 -208.5 -71t-75.5 -199v-355q0 -51 13 -95.5t42.5 -86t88 -66t140.5 -24.5q124 0 199 63.5t82 178.5h112q-9 -161 -116.5 -256.5t-276.5 -95.5 q-182 0 -289.5 102t-107.5 280zM350 -381l160 293h125l-156 -293h-129z" />
<glyph unicode="&#xe8;" horiz-adv-x="1126" d="M166 362v355q0 173 109 277t288 104q181 0 288 -102.5t107 -278.5v-205h-679v-150q0 -51 13 -95.5t42.5 -86t88 -66t140.5 -24.5q124 0 199 63.5t82 178.5h112q-9 -161 -116.5 -256.5t-276.5 -95.5q-182 0 -289.5 102t-107.5 280zM279 621h567v96q0 40 -7.5 75.5t-27 72 t-50.5 63t-82 43t-116 16.5q-133 0 -208.5 -71t-75.5 -199v-96zM387 1518h131l148 -301h-123z" />
<glyph unicode="&#xe9;" horiz-adv-x="1126" d="M166 362v355q0 173 109 277t288 104q181 0 288 -102.5t107 -278.5v-205h-679v-150q0 -51 13 -95.5t42.5 -86t88 -66t140.5 -24.5q124 0 199 63.5t82 178.5h112q-9 -161 -116.5 -256.5t-276.5 -95.5q-182 0 -289.5 102t-107.5 280zM279 621h567v96q0 40 -7.5 75.5t-27 72 t-50.5 63t-82 43t-116 16.5q-133 0 -208.5 -71t-75.5 -199v-96zM453 1217l147 301h131l-156 -301h-122z" />
<glyph unicode="&#xea;" horiz-adv-x="1126" d="M166 362v355q0 173 109 277t288 104q181 0 288 -102.5t107 -278.5v-205h-679v-150q0 -51 13 -95.5t42.5 -86t88 -66t140.5 -24.5q124 0 199 63.5t82 178.5h112q-9 -161 -116.5 -256.5t-276.5 -95.5q-182 0 -289.5 102t-107.5 280zM279 621h567v96q0 40 -7.5 75.5t-27 72 t-50.5 63t-82 43t-116 16.5q-133 0 -208.5 -71t-75.5 -199v-96zM303 1217l205 301h113l204 -301h-125l-135 202l-135 -202h-127z" />
<glyph unicode="&#xeb;" horiz-adv-x="1126" d="M166 362v355q0 173 109 277t288 104q181 0 288 -102.5t107 -278.5v-205h-679v-150q0 -51 13 -95.5t42.5 -86t88 -66t140.5 -24.5q124 0 199 63.5t82 178.5h112q-9 -161 -116.5 -256.5t-276.5 -95.5q-182 0 -289.5 102t-107.5 280zM264 1292v185h148v-185h-148zM279 621 h567v96q0 40 -7.5 75.5t-27 72t-50.5 63t-82 43t-116 16.5q-133 0 -208.5 -71t-75.5 -199v-96zM705 1292v185h147v-185h-147z" />
<glyph unicode="&#xec;" horiz-adv-x="1126" d="M178 969v110h443v-968h325v-111h-766v111h328v858h-330zM342 1518h131l148 -301h-123z" />
<glyph unicode="&#xed;" horiz-adv-x="1126" d="M178 969v110h443v-968h325v-111h-766v111h328v858h-330zM477 1217l148 301h131l-156 -301h-123z" />
<glyph unicode="&#xee;" horiz-adv-x="1126" d="M178 969v110h443v-968h325v-111h-766v111h328v858h-330zM307 1214l205 302h113l204 -302h-124l-136 203l-135 -203h-127z" />
<glyph unicode="&#xef;" horiz-adv-x="1126" d="M178 969v110h443v-968h325v-111h-766v111h328v858h-330zM270 1292v185h148v-185h-148zM711 1292v185h147v-185h-147z" />
<glyph unicode="&#xf0;" horiz-adv-x="1126" d="M166 362v355q0 173 109 277t288 104q173 0 283 -99v93q0 112 -60 182l-32 -57h-105l60 116q-63 31 -150 31v111q117 0 201 -43l45 86h129l-90 -148q59 -59 86.5 -134.5t27.5 -139.5v-734q0 -174 -108.5 -278t-286.5 -104q-182 0 -289.5 102t-107.5 280zM279 362 q0 -51 13 -95.5t42.5 -86t88 -66t140.5 -24.5q131 0 207 72t76 200v355q0 40 -7.5 75.5t-27 72t-50.5 63t-82 43t-116 16.5q-133 0 -208.5 -71t-75.5 -199v-355z" />
<glyph unicode="&#xf1;" horiz-adv-x="1126" d="M172 0v1079h113v-116q118 135 299 135q176 0 273 -97.5t97 -283.5v-717h-112v717q0 136 -67.5 203t-190.5 67q-127 0 -213 -74.5t-86 -195.5v-717h-113zM242 1352q53 62 96 83t86 21q55 0 141.5 -36.5t120.5 -37.5q57 0 117 70l69 -66q-90 -104 -182 -104 q-55 0 -139.5 37t-122.5 37q-52 0 -115 -68z" />
<glyph unicode="&#xf2;" horiz-adv-x="1126" d="M166 362v355q0 173 109 277t288 104q181 0 288 -102.5t107 -278.5v-355q0 -174 -108.5 -278t-286.5 -104q-182 0 -289.5 102t-107.5 280zM279 362q0 -51 13 -95.5t42.5 -86t88 -66t140.5 -24.5q131 0 207 72t76 200v355q0 40 -7.5 75.5t-27 72t-50.5 63t-82 43t-116 16.5 q-133 0 -208.5 -71t-75.5 -199v-355zM397 1518h131l148 -301h-123z" />
<glyph unicode="&#xf3;" horiz-adv-x="1126" d="M166 362v355q0 173 109 277t288 104q181 0 288 -102.5t107 -278.5v-355q0 -174 -108.5 -278t-286.5 -104q-182 0 -289.5 102t-107.5 280zM279 362q0 -51 13 -95.5t42.5 -86t88 -66t140.5 -24.5q131 0 207 72t76 200v355q0 40 -7.5 75.5t-27 72t-50.5 63t-82 43t-116 16.5 q-133 0 -208.5 -71t-75.5 -199v-355zM467 1217l147 301h131l-155 -301h-123z" />
<glyph unicode="&#xf4;" horiz-adv-x="1126" d="M166 362v355q0 173 109 277t288 104q181 0 288 -102.5t107 -278.5v-355q0 -174 -108.5 -278t-286.5 -104q-182 0 -289.5 102t-107.5 280zM279 362q0 -51 13 -95.5t42.5 -86t88 -66t140.5 -24.5q131 0 207 72t76 200v355q0 40 -7.5 75.5t-27 72t-50.5 63t-82 43t-116 16.5 q-133 0 -208.5 -71t-75.5 -199v-355zM297 1217l205 301h112l205 -301h-125l-135 202l-135 -202h-127z" />
<glyph unicode="&#xf5;" horiz-adv-x="1126" d="M166 362v355q0 173 109 277t288 104q181 0 288 -102.5t107 -278.5v-355q0 -174 -108.5 -278t-286.5 -104q-182 0 -289.5 102t-107.5 280zM246 1352q53 62 96 83t86 21q55 0 141.5 -36.5t120.5 -37.5q57 0 117 70l70 -66q-90 -104 -183 -104q-55 0 -139.5 37t-122.5 37 q-52 0 -115 -68zM279 362q0 -51 13 -95.5t42.5 -86t88 -66t140.5 -24.5q131 0 207 72t76 200v355q0 40 -7.5 75.5t-27 72t-50.5 63t-82 43t-116 16.5q-133 0 -208.5 -71t-75.5 -199v-355z" />
<glyph unicode="&#xf6;" horiz-adv-x="1126" d="M166 362v355q0 173 109 277t288 104q181 0 288 -102.5t107 -278.5v-355q0 -174 -108.5 -278t-286.5 -104q-182 0 -289.5 102t-107.5 280zM268 1292v185h148v-185h-148zM279 362q0 -51 13 -95.5t42.5 -86t88 -66t140.5 -24.5q131 0 207 72t76 200v355q0 40 -7.5 75.5 t-27 72t-50.5 63t-82 43t-116 16.5q-133 0 -208.5 -71t-75.5 -199v-355zM709 1292v185h147v-185h-147z" />
<glyph unicode="&#xf7;" d="M193 530v103h841v-103h-841zM541 180v166h145v-166h-145zM541 815v166h145v-166h-145z" />
<glyph unicode="&#xf8;" horiz-adv-x="1126" d="M166 362v355q0 173 109 277t288 104q59 0 129 -17l27 74h110l-41 -115q81 -47 125.5 -129.5t44.5 -193.5v-355q0 -174 -108.5 -278t-286.5 -104q-61 0 -117 12l-26 -72h-115l41 109q-87 46 -133.5 131.5t-46.5 201.5zM279 362q0 -157 102 -225l276 840q-48 10 -94 10 q-133 0 -208.5 -71t-75.5 -199v-355zM481 96q37 -6 82 -6q131 0 207 72t76 200v355q0 147 -92 215z" />
<glyph unicode="&#xf9;" horiz-adv-x="1126" d="M168 362v717h113v-717q0 -40 7 -75.5t26.5 -72t49.5 -63t81 -43t116 -16.5q124 0 202.5 70.5t78.5 187.5v729h112v-1079h-112v109q-96 -127 -281 -127q-182 0 -287.5 101.5t-105.5 278.5zM397 1518h131l148 -301h-123z" />
<glyph unicode="&#xfa;" horiz-adv-x="1126" d="M168 362v717h113v-717q0 -40 7 -75.5t26.5 -72t49.5 -63t81 -43t116 -16.5q124 0 202.5 70.5t78.5 187.5v729h112v-1079h-112v109q-96 -127 -281 -127q-182 0 -287.5 101.5t-105.5 278.5zM467 1217l147 301h131l-155 -301h-123z" />
<glyph unicode="&#xfb;" horiz-adv-x="1126" d="M168 362v717h113v-717q0 -40 7 -75.5t26.5 -72t49.5 -63t81 -43t116 -16.5q124 0 202.5 70.5t78.5 187.5v729h112v-1079h-112v109q-96 -127 -281 -127q-182 0 -287.5 101.5t-105.5 278.5zM297 1217l205 301h112l205 -301h-125l-135 202l-135 -202h-127z" />
<glyph unicode="&#xfc;" horiz-adv-x="1126" d="M168 362v717h113v-717q0 -40 7 -75.5t26.5 -72t49.5 -63t81 -43t116 -16.5q124 0 202.5 70.5t78.5 187.5v729h112v-1079h-112v109q-96 -127 -281 -127q-182 0 -287.5 101.5t-105.5 278.5zM270 1292v185h148v-185h-148zM711 1292v185h147v-185h-147z" />
<glyph unicode="&#xfd;" horiz-adv-x="1126" d="M150 1079h118l279 -975h39l272 975h117l-369 -1290q-23 -82 -50 -132.5t-66 -76.5t-81.5 -34.5t-109.5 -8.5h-51v111h78q76 0 112 26t58 109l65 217h-98zM424 1217l147 301h131l-155 -301h-123z" />
<glyph unicode="&#xfe;" horiz-adv-x="1126" d="M172 -463v1921h113v-487q107 127 276 127q180 0 284.5 -102t104.5 -279v-355q0 -175 -106 -278.5t-283 -103.5q-87 0 -160 32t-116 94v-569h-113zM285 362q0 -52 11.5 -95.5t40 -85.5t85.5 -66.5t139 -24.5q131 0 204 71.5t73 200.5v355q0 40 -7 75.5t-25.5 72.5 t-48.5 63t-80.5 42.5t-115.5 16.5q-132 0 -204 -70.5t-72 -199.5v-355z" />
<glyph unicode="&#xff;" horiz-adv-x="1126" d="M150 1079h118l279 -975h39l272 975h117l-369 -1290q-23 -82 -50 -132.5t-66 -76.5t-81.5 -34.5t-109.5 -8.5h-51v111h78q76 0 112 26t58 109l65 217h-98zM264 1292v185h148v-185h-148zM705 1292v185h147v-185h-147z" />
<glyph unicode="&#x152;" horiz-adv-x="1843" d="M193 362v738q0 33 8 70t25 80.5t49 82.5t74.5 71.5t106.5 51.5t140 19q176 0 289 -109v94h766v-110h-654v-521h605v-110h-605v-608h654v-111h-766v88q-109 -106 -291 -106q-89 0 -161 28t-115.5 69.5t-73 95t-40.5 100t-11 87.5zM305 362q0 -66 21.5 -117t53 -79 t73.5 -45.5t76 -23t67 -5.5q32 0 64.5 5t73.5 21.5t72 42.5t53.5 73.5t25.5 109.5v752q0 66 -21.5 117t-52.5 78.5t-73 45t-75.5 22.5t-66.5 5q-27 0 -54.5 -4t-62.5 -13.5t-64.5 -29.5t-55 -48t-40 -72.5t-14.5 -100.5v-734z" />
<glyph unicode="&#x153;" horiz-adv-x="1740" d="M133 362v355q0 173 109 277t288 104q116 0 203 -44t137 -124q50 79 138 123.5t202 44.5q181 0 288.5 -102.5t107.5 -278.5v-205h-680v-150q0 -51 13 -95.5t42.5 -86t88 -66t140.5 -24.5q124 0 199 63.5t82 178.5h113q-9 -161 -117 -256.5t-277 -95.5q-117 0 -205 42.5 t-137 124.5q-51 -80 -138 -123.5t-200 -43.5q-182 0 -289.5 102t-107.5 280zM246 362q0 -51 13 -95.5t42.5 -86t88 -66t140.5 -24.5q131 0 207 72t76 200v373q-2 49 -17 90.5t-45.5 79.5t-87 60t-133.5 22q-133 0 -208.5 -71t-75.5 -199v-355zM926 621h567v96 q0 40 -7.5 75.5t-27 72t-50.5 63t-82 43t-116 16.5q-130 0 -205.5 -68t-78.5 -190v-108z" />
<glyph unicode="&#x178;" d="M172 1460h123l319 -794l320 794h123l-387 -934v-526h-113v528zM319 1624v184h148v-184h-148zM760 1624v184h147v-184h-147z" />
<glyph unicode="&#x2c6;" d="M352 1217l205 301h113l204 -301h-124l-136 202l-135 -202h-127z" />
<glyph unicode="&#x2dc;" d="M299 1321q53 62 96 83t86 21q55 0 141.5 -36t120.5 -37q58 0 117 69l70 -65q-91 -105 -182 -105q-55 0 -140 37t-123 37q-51 0 -114 -68z" />
<glyph unicode="&#x2000;" horiz-adv-x="981" />
<glyph unicode="&#x2001;" horiz-adv-x="1962" />
<glyph unicode="&#x2002;" horiz-adv-x="981" />
<glyph unicode="&#x2003;" horiz-adv-x="1962" />
<glyph unicode="&#x2004;" horiz-adv-x="654" />
<glyph unicode="&#x2005;" horiz-adv-x="490" />
<glyph unicode="&#x2006;" horiz-adv-x="327" />
<glyph unicode="&#x2007;" horiz-adv-x="327" />
<glyph unicode="&#x2008;" horiz-adv-x="245" />
<glyph unicode="&#x2009;" horiz-adv-x="392" />
<glyph unicode="&#x200a;" horiz-adv-x="109" />
<glyph unicode="&#x2010;" d="M319 522v111h588v-111h-588z" />
<glyph unicode="&#x2011;" d="M319 522v111h588v-111h-588z" />
<glyph unicode="&#x2012;" d="M319 522v111h588v-111h-588z" />
<glyph unicode="&#x2013;" d="M184 530v103h860v-103h-860z" />
<glyph unicode="&#x2014;" d="M-78 530v103h1385v-103h-1385z" />
<glyph unicode="&#x2018;" horiz-adv-x="716" d="M246 1137l106 381h99l-78 -381h-127z" />
<glyph unicode="&#x2019;" horiz-adv-x="716" d="M260 1137l76 381h127l-105 -381h-98z" />
<glyph unicode="&#x201a;" horiz-adv-x="716" d="M258 -213l78 381h127l-107 -381h-98z" />
<glyph unicode="&#x201c;" horiz-adv-x="1024" d="M293 1137l104 381h101l-76 -381h-129zM551 1137l106 381h99l-76 -381h-129z" />
<glyph unicode="&#x201d;" horiz-adv-x="1024" d="M262 1137l78 381h129l-109 -381h-98zM520 1137l78 381h129l-106 -381h-101z" />
<glyph unicode="&#x201e;" horiz-adv-x="1024" d="M289 -213l78 381h129l-109 -381h-98zM547 -213l78 381h129l-107 -381h-100z" />
<glyph unicode="&#x2022;" d="M397 725q0 88 61.5 150.5t149.5 62.5t150.5 -62.5t62.5 -150.5t-62.5 -150.5t-150.5 -62.5t-149.5 62.5t-61.5 150.5z" />
<glyph unicode="&#x2026;" d="M106 0v199h183v-199h-183zM518 -2v199h182v-199h-182zM940 0v199h182v-199h-182z" />
<glyph unicode="&#x202f;" horiz-adv-x="392" />
<glyph unicode="&#x2039;" horiz-adv-x="1126" d="M377 543l371 370v-147l-224 -223l224 -226v-145z" />
<glyph unicode="&#x203a;" horiz-adv-x="1126" d="M379 172v145l225 226l-225 223v147l369 -370z" />
<glyph unicode="&#x205f;" horiz-adv-x="490" />
<glyph unicode="&#x20ac;" d="M150 535v102h172v201h-172v102h172v160q0 42 8.5 86t34 97.5t65.5 94.5t110.5 69t161.5 28q89 0 159 -28t109.5 -69t65.5 -94.5t34.5 -98.5t8.5 -87h-112q0 65 -19 115t-46.5 78t-65 45t-69.5 22.5t-65 5.5t-64.5 -5.5t-70 -23t-66.5 -45.5t-47.5 -78.5t-19.5 -117.5 v-154h400v-102h-400v-201h400v-102h-400v-170q0 -56 13 -101t36 -73.5t49.5 -49t58.5 -30.5t58.5 -14.5t52.5 -4.5q33 0 65 5.5t69.5 23t65.5 45.5t46.5 78.5t18.5 115.5h112q0 -43 -9 -88t-35 -98.5t-67 -94.5t-112 -69t-162 -28q-75 0 -136 19t-100 52t-67 71.5 t-42.5 83.5t-20.5 82t-6 72v173h-172z" />
<glyph unicode="&#x2122;" horiz-adv-x="1331" d="M102 1372v92h490v-92h-199v-608h-92v608h-199zM674 764v700h145l123 -450l119 450h145v-700h-90v586l-139 -463h-74l-139 461v-584h-90z" />
<glyph unicode="&#x25fc;" horiz-adv-x="1075" d="M0 0v1075h1075v-1075h-1075z" />
<glyph unicode="&#xfb01;" d="M141 967v110h195v88q0 139 69.5 217t208.5 78h76v-110h-96q-57 0 -101 -38t-44 -122v-113h620v-1077h-113v967h-507v-967h-113v967h-195zM938 1292v183h147v-183h-147z" />
<glyph unicode="&#xfb02;" d="M76 967v110h194v88q0 139 70 217t209 78h76v-110h-97q-57 0 -101 -38t-44 -122v-113h487v383h113v-1202q0 -147 143 -147h27v-111h-37q-109 0 -177.5 66.5t-68.5 201.5v699h-487v-967h-113v967h-194z" />
</font>
</defs>
</svg>
